<?xml version="1.0" encoding="UTF-8"?>
<svg xmlns="http://www.w3.org/2000/svg" xmlns:xlink="http://www.w3.org/1999/xlink" width="3700px" height="15417px" viewBox="0 0 3700 15323" version="1.1">
<defs>
<clipPath id="clip1">
  <path d="M 384 2 L 3645 2 L 3645 5107.667969 L 384 5107.667969 Z M 384 2 "/>
</clipPath>
</defs>
<g id="surface1">
<path style=" stroke:none;fill-rule:evenodd;fill:rgb(82.745099%,21.960784%,20%);fill-opacity:1;" d="M 3636.945312 2462.515625 C 3636.945312 3473.984375 2835.242188 4293.925781 1846.289062 4293.925781 C 857.339844 4293.925781 55.636719 3473.984375 55.636719 2462.515625 C 55.636719 1450.984375 857.339844 630.976562 1846.289062 630.976562 C 2835.242188 630.976562 3636.945312 1450.984375 3636.945312 2462.515625 "/>
<path style=" stroke:none;fill-rule:nonzero;fill:rgb(93.725491%,23.921569%,22.745098%);fill-opacity:1;" d="M 128.605469 2916.097656 C 128.605469 2916.097656 -1.023438 1006.160156 1758.933594 951.613281 L 1636.144531 746.976562 L 681.152344 1067.550781 L 408.269531 1381.34375 L 169.535156 1838.382812 L 33.128906 2370.429688 L 74.054688 2725.085938 "/>
<path style=" stroke:none;fill-rule:nonzero;fill:rgb(13.725491%,12.156863%,12.54902%);fill-opacity:1;" d="M 619.820312 1213.097656 C 305.691406 1534.5 111.277344 1978.363281 111.277344 2469.292969 C 111.277344 2960.222656 305.691406 3404.089844 619.820312 3725.425781 C 934.144531 4046.832031 1367.355469 4245.132812 1846.226562 4245.132812 C 2325.164062 4245.132812 2758.371094 4046.832031 3072.695312 3725.425781 C 3386.828125 3404.089844 3581.304688 2960.222656 3581.304688 2469.292969 C 3581.304688 1978.363281 3386.828125 1534.5 3072.695312 1213.097656 C 2758.371094 891.757812 2325.164062 693.453125 1846.226562 693.453125 C 1367.355469 693.453125 934.144531 891.757812 619.820312 1213.097656 Z M 540.328125 3803.1875 C 206.4375 3461.769531 0 2989.832031 0 2469.292969 C 0 1948.691406 206.4375 1476.882812 540.328125 1135.398438 C 874.160156 793.851562 1336.210938 582.183594 1846.226562 582.246094 C 2356.308594 582.183594 2818.421875 793.851562 3152.1875 1135.398438 C 3486.082031 1476.882812 3692.582031 1948.757812 3692.519531 2469.292969 C 3692.582031 2989.832031 3486.082031 3461.769531 3152.1875 3803.1875 C 2818.421875 4144.734375 2356.308594 4356.339844 1846.226562 4356.339844 C 1336.210938 4356.339844 874.160156 4144.734375 540.328125 3803.1875 "/>
<path style=" stroke:none;fill-rule:evenodd;fill:rgb(94.117647%,83.92157%,71.764708%);fill-opacity:1;" d="M 2600.027344 2472.621094 L 2327.144531 2513.546875 L 1958.78125 2554.472656 L 1720.050781 2561.316406 L 1488.097656 2554.472656 L 1310.757812 2499.925781 L 1153.820312 2329.375 L 1031.03125 1981.496094 L 1003.789062 1906.484375 L 840.070312 1851.9375 L 744.527344 1695.007812 L 676.355469 1469.914062 L 751.371094 1272.121094 L 928.710938 1210.730469 L 1071.960938 1278.964844 L 1140.199219 1428.984375 L 1222.054688 1415.363281 L 1249.363281 1381.28125 L 1222.054688 1224.351562 L 1215.214844 1026.558594 L 1256.144531 753.691406 L 1254.609375 597.851562 L 1378.929688 399.035156 L 1597.261719 242.109375 L 1979.246094 78.402344 L 2402.222656 139.789062 L 2770.585938 405.816406 L 2941.082031 678.683594 L 3050.25 876.472656 L 3077.554688 1367.59375 L 2995.699219 1790.546875 L 2845.601562 2165.667969 L 2702.351562 2363.523438 "/>
<path style=" stroke:none;fill-rule:evenodd;fill:rgb(20%,31.37255%,38.039216%);fill-opacity:1;" d="M 2368.074219 3652.65625 L 1392.617188 3693.582031 L 1392.617188 3857.289062 L 1474.472656 4430.265625 L 1433.546875 4478.03125 L 751.371094 4246.09375 L 703.597656 4164.238281 L 635.425781 3393.472656 L 478.550781 2929.65625 L 444.402344 2820.496094 L 990.101562 2445.378906 L 1160.664062 2377.144531 L 1310.757812 2561.316406 L 1440.324219 2677.253906 L 1590.417969 2725.023438 L 1658.65625 2745.484375 L 1740.515625 3100.140625 L 1801.90625 3175.21875 L 1958.78125 3120.605469 L 1849.617188 3332.082031 L 2443.152344 3611.726562 L 2368.074219 3652.65625 "/>
<path style=" stroke:none;fill-rule:evenodd;fill:rgb(42.745098%,41.960785%,42.745098%);fill-opacity:1;" d="M 751.371094 1272.121094 L 928.710938 1210.730469 L 1071.960938 1278.964844 L 1140.199219 1428.984375 L 1222.054688 1415.363281 L 1242.519531 1333.511719 L 1201.59375 1176.644531 L 1242.519531 801.460938 L 1208.433594 596.828125 L 1331.222656 453.585938 L 1597.261719 242.109375 L 1522.183594 139.789062 L 1147.039062 323.960938 L 990.101562 446.742188 L 901.464844 637.753906 L 764.992188 821.925781 L 724.0625 1040.179688 L 751.371094 1272.121094 "/>
<path style=" stroke:none;fill-rule:evenodd;fill:rgb(86.274511%,85.09804%,84.705883%);fill-opacity:1;" d="M 1031.03125 630.914062 C 1031.03125 630.914062 1133.355469 378.574219 1542.648438 255.792969 C 1951.9375 133.011719 1563.113281 167.097656 1563.113281 167.097656 L 1119.734375 337.644531 L 949.171875 508.132812 L 874.160156 644.597656 L 1031.03125 630.914062 "/>
<path style=" stroke:none;fill-rule:evenodd;fill:rgb(86.274511%,85.09804%,84.705883%);fill-opacity:1;" d="M 826.386719 1224.351562 C 826.386719 1224.351562 683.132812 746.851562 1228.898438 678.683594 L 1208.433594 596.828125 L 833.230469 685.523438 L 724.0625 1040.179688 L 751.371094 1272.121094 L 826.386719 1224.351562 "/>
<path style=" stroke:none;fill-rule:evenodd;fill:rgb(96.862745%,89.411765%,80.392158%);fill-opacity:1;" d="M 1044.71875 1858.71875 L 1134.058594 1772.195312 C 1134.058594 1772.195312 1174.347656 1776.863281 1181.128906 1824.632812 C 1187.96875 1872.402344 1208.433594 2302.132812 1501.71875 2534.074219 C 1528.515625 2555.175781 1283.449219 2499.925781 1283.449219 2499.925781 L 1065.183594 2158.890625 "/>
<path style=" stroke:none;fill-rule:evenodd;fill:rgb(96.862745%,89.411765%,80.392158%);fill-opacity:1;" d="M 2299.902344 1729.15625 C 2299.902344 1729.15625 2315.824219 1522.351562 2371.527344 1538.273438 C 2427.164062 1554.195312 2427.164062 1609.832031 2427.164062 1609.832031 C 2427.164062 1609.832031 2291.972656 1697.3125 2299.902344 1729.15625 "/>
<path style=" stroke:none;fill-rule:nonzero;fill:rgb(96.862745%,89.411765%,80.392158%);fill-opacity:1;" d="M 2866.066406 972.011719 C 2866.066406 972.011719 2753.640625 995.738281 2743.28125 1094.792969 C 2732.917969 1193.847656 2866.066406 1115.253906 2886.53125 1108.414062 "/>
<path style=" stroke:none;fill-rule:nonzero;fill:rgb(96.862745%,89.411765%,80.392158%);fill-opacity:1;" d="M 2040.640625 978.855469 C 2040.640625 978.855469 1890.546875 999.316406 1890.546875 1094.792969 C 1890.546875 1190.265625 2061.105469 1183.488281 2108.878906 1142.5625 "/>
<path style=" stroke:none;fill-rule:evenodd;fill:rgb(96.862745%,89.411765%,80.392158%);fill-opacity:1;" d="M 1112.890625 1422.207031 C 1112.890625 1422.207031 853.695312 1265.277344 826.386719 1415.363281 C 799.144531 1565.449219 737.75 1674.609375 867.316406 1831.476562 L 778.679688 1804.167969 L 696.820312 1592.757812 L 669.511719 1388.121094 L 826.386719 1224.351562 L 1003.789062 1238.035156 L 1106.113281 1319.890625 L 1112.890625 1422.207031 "/>
<path style=" stroke:none;fill-rule:evenodd;fill:rgb(96.862745%,89.411765%,80.392158%);fill-opacity:1;" d="M 1235.679688 992.476562 C 1235.679688 992.476562 1351.6875 392.195312 1938.316406 276.257812 C 2421.347656 180.78125 2675.042969 296.71875 2770.585938 405.816406 C 2770.585938 405.816406 2340.832031 -105.707031 1931.476562 51.160156 C 1522.183594 208.023438 1222.054688 494.511719 1228.898438 678.683594 C 1240.539062 992.347656 1235.679688 992.476562 1235.679688 992.476562 "/>
<path style=" stroke:none;fill-rule:evenodd;fill:rgb(96.862745%,89.411765%,80.392158%);fill-opacity:1;" d="M 2818.296875 474.046875 C 2818.296875 474.046875 2620.492188 467.207031 2613.648438 644.597656 C 2613.648438 644.597656 2613.648438 671.839844 2627.335938 699.144531 C 2627.335938 699.144531 2784.210938 521.753906 2879.6875 617.292969 "/>
<path style=" stroke:none;fill-rule:evenodd;fill:rgb(96.862745%,89.411765%,80.392158%);fill-opacity:1;" d="M 1952.066406 717.625 C 1952.066406 717.625 1918.042969 445.398438 1685.898438 603.671875 C 1535.867188 705.988281 1549.488281 849.230469 1576.796875 876.472656 C 1604.042969 903.777344 1596.621094 958.710938 1617.40625 921.046875 C 1638.191406 883.316406 1631.347656 760.535156 1706.363281 726.449219 C 1781.445312 692.300781 1904.421875 654.191406 1952.066406 717.625 "/>
<path style=" stroke:none;fill-rule:evenodd;fill:rgb(28.627452%,44.705883%,54.509807%);fill-opacity:1;" d="M 1310.757812 2561.316406 L 669.511719 2847.804688 C 669.511719 2847.804688 935.550781 3905.058594 799.144531 4232.472656 L 703.597656 4198.386719 L 696.820312 3795.960938 L 519.480469 3031.972656 L 444.402344 2820.496094 L 1112.890625 2370.367188 L 1310.757812 2561.316406 "/>
<path style=" stroke:none;fill-rule:evenodd;fill:rgb(28.627452%,44.705883%,54.509807%);fill-opacity:1;" d="M 1376.691406 3146.121094 L 1467.632812 3257.070312 L 1467.632812 3666.339844 L 1358.464844 3666.339844 C 1358.464844 3666.339844 1344.84375 3379.851562 1344.84375 3345.765625 C 1344.84375 3311.617188 1358.464844 3188.839844 1358.464844 3188.839844 "/>
<path style=" stroke:none;fill-rule:evenodd;fill:rgb(28.627452%,44.705883%,54.509807%);fill-opacity:1;" d="M 1378.929688 3727.730469 L 1071.960938 3741.351562 L 1160.664062 3802.742188 L 1378.929688 3836.890625 "/>
<path style=" stroke:none;fill-rule:evenodd;fill:rgb(20%,31.37255%,38.039216%);fill-opacity:1;" d="M 2429.46875 3659.496094 L 2681.886719 3652.71875 L 2743.28125 4280.242188 L 2484.082031 4314.324219 L 2429.46875 3659.496094 "/>
<path style=" stroke:none;fill-rule:evenodd;fill:rgb(20%,31.37255%,38.039216%);fill-opacity:1;" d="M 2497.703125 3659.496094 L 2879.6875 3639.035156 C 2879.6875 3639.035156 3036.628906 3243.449219 3036.628906 3222.988281 C 3036.628906 3202.523438 3173.035156 2650.011719 3173.035156 2650.011719 L 2866.066406 2329.4375 L 2804.671875 2274.828125 L 2640.957031 2438.535156 L 2640.957031 3072.902344 L 2497.703125 3659.496094 "/>
<path style=" stroke:none;fill-rule:evenodd;fill:rgb(28.627452%,44.705883%,54.509807%);fill-opacity:1;" d="M 2668.265625 3611.792969 L 2429.46875 3659.496094 L 2463.617188 3850.511719 C 2552.253906 3891.4375 2702.351562 3782.277344 2702.351562 3782.277344 "/>
<path style=" stroke:none;fill-rule:evenodd;fill:rgb(28.627452%,44.705883%,54.509807%);fill-opacity:1;" d="M 2675.042969 2418.070312 L 3152.570312 2772.792969 L 3166.195312 2609.085938 L 2804.671875 2274.828125 L 2675.042969 2418.070312 "/>
<path style=" stroke:none;fill-rule:evenodd;fill:rgb(100%,100%,100%);fill-opacity:1;" d="M 1615.679688 5003.367188 L 1474.472656 4430.265625 L 1404.253906 4007.4375 L 1392.617188 3693.582031 L 2031.816406 3659.5625 L 2429.46875 3659.496094 L 2393.335938 4375.78125 L 2454.730469 4928.292969 L 2447.886719 5030.609375 L 1929.492188 5071.535156 L 1615.679688 5003.367188 "/>
<path style=" stroke:none;fill-rule:evenodd;fill:rgb(86.274511%,85.09804%,84.705883%);fill-opacity:1;" d="M 2340.832031 3652.71875 C 2340.832031 3652.71875 2306.679688 4362.09375 2409.003906 4866.839844 C 2409.003906 4866.839844 2204.355469 4996.460938 1904.230469 5030.546875 L 2477.238281 5010.082031 L 2545.476562 4969.15625 L 2463.617188 3850.511719 L 2443.152344 3611.726562 "/>
<path style=" stroke:none;fill-rule:evenodd;fill:rgb(100%,100%,100%);fill-opacity:1;" d="M 2754.917969 4225.757812 L 3020.957031 4150.683594 L 3525.730469 4123.441406 L 3600.746094 3891.5 L 3464.335938 3489.074219 L 3307.464844 3468.613281 L 3089.132812 3536.78125 L 2879.6875 3639.035156 L 2768.539062 3618.632812 L 2681.886719 3652.71875 "/>
<path style=" stroke:none;fill-rule:evenodd;fill:rgb(86.274511%,85.09804%,84.705883%);fill-opacity:1;" d="M 2750.121094 4089.226562 C 2750.121094 4089.226562 2927.460938 4007.375 2954.769531 4014.21875 L 2879.6875 3639.035156 L 2968.390625 3604.949219 C 2968.390625 3604.949219 3029.785156 3959.667969 3029.785156 4000.597656 C 3029.785156 4000.597656 3411.769531 4021.058594 3445.917969 4021.058594 C 3445.917969 4021.058594 3527.777344 3864.132812 3507.3125 3700.421875 L 3582.328125 3918.742188 L 3589.171875 4041.523438 L 3480.003906 4205.230469 L 3357.21875 4232.472656 L 3152.570312 4225.695312 L 3084.335938 4136.996094 L 2845.601562 4171.082031 L 2770.585938 4198.386719 "/>
<path style=" stroke:none;fill-rule:nonzero;fill:rgb(100%,100%,100%);fill-opacity:1;" d="M 2482.035156 3605.011719 L 2331.941406 3223.050781 L 2175.066406 2997.953125 C 2175.066406 2997.953125 2209.152344 2902.414062 2256.925781 2902.414062 C 2304.699219 2902.414062 2413.800781 2902.414062 2413.800781 2902.414062 L 2563.894531 2957.027344 L 2550.273438 3209.367188 L 2482.035156 3605.011719 "/>
<path style=" stroke:none;fill-rule:evenodd;fill:rgb(86.274511%,85.09804%,84.705883%);fill-opacity:1;" d="M 2511.328125 3475.328125 C 2511.328125 3475.328125 2320.367188 3106.984375 2320.367188 3052.4375 C 2320.367188 3052.4375 2354.453125 2970.582031 2402.222656 2991.046875 C 2449.933594 3011.511719 2552.253906 3066.058594 2552.253906 3066.058594 L 2552.253906 2936.5 L 2320.367188 2888.730469 L 2163.429688 2909.191406 L 2429.46875 3536.714844 L 2484.082031 3543.558594 "/>
<path style=" stroke:none;fill-rule:nonzero;fill:rgb(100%,100%,100%);fill-opacity:1;" d="M 1677.074219 2575.0625 L 1488.097656 2554.472656 L 1310.757812 2499.925781 L 1310.757812 2561.316406 L 1397.414062 2656.855469 L 1670.296875 2779.632812 "/>
<path style=" stroke:none;fill-rule:evenodd;fill:rgb(86.274511%,85.09804%,84.705883%);fill-opacity:1;" d="M 1372.152344 2595.464844 C 1372.152344 2595.464844 1583.640625 2684.160156 1651.878906 2663.695312 L 1658.65625 2745.484375 L 1467.695312 2704.625 L 1351.6875 2622.769531 L 1372.152344 2595.464844 "/>
<path style=" stroke:none;fill-rule:evenodd;fill:rgb(82.745099%,21.960784%,20%);fill-opacity:1;" d="M 2754.152344 2925.628906 C 2638.398438 2922.238281 2533.835938 2908.488281 2442.257812 2882.65625 C 2448.527344 2845.179688 2436.886719 2808.347656 2446.222656 2781.296875 C 2471.738281 2762.878906 2514.523438 2763.199219 2553.085938 2758.851562 C 2519.703125 2742.480469 2472.890625 2736.023438 2434.390625 2745.484375 C 2433.496094 2719.394531 2421.792969 2703.28125 2414.695312 2682.878906 C 2479.796875 2659.667969 2633.410156 2507.40625 2719.808594 2557.796875 C 2760.996094 2581.777344 2778.515625 2718.820312 2781.714844 2785.390625 C 2784.335938 2840.640625 2776.664062 2896.402344 2754.152344 2925.628906 "/>
<path style="fill:none;stroke-width:2;stroke-linecap:butt;stroke-linejoin:miter;stroke:rgb(82.745099%,21.960784%,20%);stroke-opacity:1;stroke-miterlimit:4;" d="M 134.581282 106.6312 C 128.924983 106.796892 123.815551 107.468823 119.340598 108.731175 C 119.646958 110.562569 119.07814 112.362467 119.53434 113.684376 C 120.781157 114.58442 122.871848 114.568768 124.756199 114.781228 C 123.124953 115.581246 120.837466 115.896786 118.956169 115.434451 C 118.912458 116.709403 118.340586 117.496822 117.99376 118.493838 C 121.174939 119.628103 128.681231 127.068785 132.903079 124.606311 C 134.915701 123.43444 135.771791 116.737463 135.92812 113.484324 C 136.056199 110.784383 135.681314 108.059435 134.581282 106.6312 Z M 134.581282 106.6312 " transform="matrix(20.464602,0,0,-20.463408,0,5107.666667)"/>
<path style=" stroke:none;fill-rule:evenodd;fill:rgb(82.745099%,21.960784%,20%);fill-opacity:1;" d="M 2200.648438 2736.46875 C 2200.328125 2745.230469 2200.007812 2754.054688 2199.625 2762.878906 C 2163.492188 2786.605469 2105.167969 2786.347656 2065.519531 2806.300781 C 2123.96875 2808.859375 2170.015625 2822.925781 2209.792969 2842.75 C 2208.898438 2864.8125 2208.066406 2886.875 2207.234375 2908.9375 C 2140.980469 2954.277344 2080.484375 3021.804688 2002.460938 3064.332031 C 1965.625 3084.410156 1836.1875 3136.144531 1796.921875 3127 C 1774.730469 3121.882812 1772.746094 3094.324219 1763.855469 3068.359375 C 1744.992188 3012.789062 1701.441406 2924.285156 1697.667969 2840.578125 C 1692.804688 2734.871094 1682.125 2557.671875 1796.089844 2579.476562 C 1887.988281 2597 1994.914062 2639.332031 2066.03125 2678.210938 C 2109.515625 2702 2134.714844 2731.351562 2200.648438 2736.46875 "/>
<path style="fill:none;stroke-width:2;stroke-linecap:butt;stroke-linejoin:miter;stroke:rgb(82.745099%,21.960784%,20%);stroke-opacity:1;stroke-miterlimit:4;" d="M 107.534389 115.875024 C 107.518736 115.446859 107.503084 115.01564 107.484378 114.58442 C 105.718753 113.424958 102.868748 113.437556 100.931333 112.462493 C 103.787446 112.33746 106.03752 111.650067 107.981235 110.681303 C 107.937524 109.603159 107.896867 108.525015 107.856209 107.446871 C 104.618721 105.231216 101.662588 101.931309 97.849983 99.853095 C 96.05 98.871923 89.725054 96.343782 87.806345 96.790655 C 86.721965 97.04072 86.624998 98.387445 86.190559 99.656288 C 85.268807 102.371882 83.140704 106.696866 82.956316 110.787437 C 82.718672 115.953098 82.196811 124.612419 87.765688 123.546874 C 92.256292 122.690544 97.481206 120.621874 100.956338 118.721951 C 103.081196 117.559434 104.312552 116.12509 107.534389 115.875024 Z M 107.534389 115.875024 " transform="matrix(20.464602,0,0,-20.463408,0,5107.666667)"/>
<path style=" stroke:none;fill-rule:evenodd;fill:rgb(82.745099%,21.960784%,20%);fill-opacity:1;" d="M 2266.453125 2862.574219 C 2256.351562 2805.023438 2244.648438 2788.585938 2249.1875 2738.324219 C 2402.800781 2635.941406 2431.578125 2914.246094 2266.453125 2862.574219 "/>
<path style="fill:none;stroke-width:2;stroke-linecap:butt;stroke-linejoin:miter;stroke:rgb(82.745099%,21.960784%,20%);stroke-opacity:1;stroke-miterlimit:4;" d="M 110.749926 109.712538 C 110.256314 112.524914 109.684443 113.328177 109.906243 115.784352 C 117.412535 120.787566 118.818736 107.187452 110.749926 109.712538 Z M 110.749926 109.712538 " transform="matrix(20.464602,0,0,-20.463408,0,5107.666667)"/>
<path style=" stroke:none;fill-rule:evenodd;fill:rgb(93.725491%,23.921569%,22.745098%);fill-opacity:1;" d="M 2488.816406 2909.257812 C 2488.816406 2909.257812 2441.105469 2841.023438 2475.195312 2820.5625 C 2509.28125 2800.097656 2543.429688 2820.625 2563.894531 2786.476562 C 2584.359375 2752.390625 2563.894531 2731.929688 2570.671875 2691.003906 C 2577.515625 2650.074219 2611.667969 2643.234375 2645.753906 2636.390625 C 2679.839844 2629.613281 2775.382812 2615.925781 2789.003906 2650.074219 L 2748.078125 2527.292969 L 2666.21875 2499.988281 L 2406.957031 2650.074219 L 2393.335938 2725.085938 L 2393.335938 2875.171875 "/>
<path style=" stroke:none;fill-rule:evenodd;fill:rgb(93.725491%,23.921569%,22.745098%);fill-opacity:1;" d="M 1772.617188 3134.355469 C 1764.367188 3027.882812 1755.734375 2921.597656 1746.078125 2815.253906 C 1731.625 2656.46875 1784.195312 2684.160156 1921.882812 2684.160156 C 1942.921875 2684.160156 2051.320312 2709.226562 2059.058594 2725.085938 C 2096.277344 2801.058594 1996.898438 2784.175781 2101.96875 2841.472656 C 2190.609375 2889.816406 2347.289062 2812.121094 2311.476562 2704.625 C 2291.394531 2680.707031 2206.980469 2697.207031 2176.730469 2681.472656 C 2123.457031 2653.847656 2070.121094 2626.222656 2016.851562 2598.597656 C 1949.0625 2563.425781 1792.316406 2512.140625 1720.050781 2561.316406 C 1536.890625 2685.886719 1731.625 2997.121094 1796.921875 3127 "/>
<path style=" stroke:none;fill-rule:evenodd;fill:rgb(13.725491%,12.156863%,12.54902%);fill-opacity:1;" d="M 1952.066406 717.625 C 1766.160156 674.332031 1673.8125 795.386719 1617.40625 921.046875 C 1567.078125 908.832031 1587.15625 840.40625 1599.820312 805.492188 C 1633.140625 713.980469 1767.246094 592.160156 1876.796875 608.722656 C 1923.992188 615.820312 1987.753906 658.921875 1952.066406 717.625 "/>
<path style=" stroke:none;fill-rule:evenodd;fill:rgb(13.725491%,12.156863%,12.54902%);fill-opacity:1;" d="M 2858.007812 929.292969 C 2860.886719 929.421875 2863.894531 929.550781 2866.835938 929.679688 C 2908.789062 1016.96875 2945.175781 1109.371094 2998.191406 1186.429688 C 2962.699219 1269.113281 2729.339844 1342.335938 2732.917969 1193.847656 C 2783.378906 1171.785156 2870.480469 1189.308594 2915.246094 1161.171875 C 2889.347656 1090.1875 2852.0625 1029.757812 2858.007812 929.292969 "/>
<path style=" stroke:none;fill-rule:evenodd;fill:rgb(13.725491%,12.156863%,12.54902%);fill-opacity:1;" d="M 2047.292969 931.597656 C 2087.132812 1004.6875 2100.117188 1081.425781 2156.777344 1136.679688 C 2182.292969 1161.554688 2231.921875 1191.867188 2207.363281 1260.992188 C 2201.609375 1277.300781 2159.589844 1313.6875 2135.289062 1320.785156 C 2046.714844 1346.941406 1840.28125 1326.21875 1910.179688 1215.78125 C 1983.46875 1219.171875 2081.953125 1263.359375 2136.695312 1210.15625 C 2094.679688 1142.945312 2019.664062 1009.933594 2047.292969 931.597656 "/>
<path style=" stroke:none;fill-rule:evenodd;fill:rgb(13.725491%,12.156863%,12.54902%);fill-opacity:1;" d="M 2824.753906 1674.289062 C 2691.351562 1759.980469 2542.597656 1853.152344 2324.011719 1831.539062 C 2277.328125 1790.933594 2259.546875 1700.574219 2304.890625 1640.910156 C 2328.550781 1681.515625 2313.714844 1756.207031 2379.523438 1767.398438 C 2503.523438 1788.628906 2647.863281 1691.554688 2737.078125 1657.664062 C 2792.394531 1564.363281 2732.28125 1530.085938 2682.460938 1470.039062 C 2580.457031 1347.132812 2443.601562 1194.679688 2448.589844 1010.636719 C 2489.773438 980.707031 2493.355469 1056.230469 2499.304688 1069.980469 C 2552.574219 1194.679688 2686.617188 1354.101562 2784.464844 1460.769531 C 2808.511719 1487.050781 2848.03125 1512.246094 2852.445312 1529.640625 C 2865.109375 1580.160156 2819.445312 1640.71875 2824.753906 1674.289062 "/>
<path style=" stroke:none;fill-rule:evenodd;fill:rgb(13.725491%,12.156863%,12.54902%);fill-opacity:1;" d="M 1066.269531 1584.125 C 1024.445312 1560.207031 1014.46875 1455.140625 965.417969 1452.132812 C 895.261719 1447.914062 908.054688 1588.472656 908.308594 1670.710938 C 860.023438 1626.90625 851.519531 1491.910156 887.011719 1422.589844 C 846.59375 1402.765625 828.5625 1444.523438 806.113281 1459.234375 C 834.957031 1249.867188 1112.378906 1362.09375 1066.269531 1584.125 "/>
<path style=" stroke:none;fill-rule:evenodd;fill:rgb(13.725491%,12.156863%,12.54902%);fill-opacity:1;" d="M 2909.683594 1761.453125 C 2847.585938 1879.628906 2759.714844 2009.761719 2577.515625 2013.597656 C 2573.808594 1975.421875 2570.992188 1917.355469 2577.773438 1894.335938 C 2716.996094 1880.972656 2803.011719 1810.117188 2909.683594 1761.453125 "/>
<path style=" stroke:none;fill-rule:evenodd;fill:rgb(13.725491%,12.156863%,12.54902%);fill-opacity:1;" d="M 2036.804688 1838.0625 C 2153.003906 1899.195312 2366.539062 1905.78125 2524.5 1901.113281 C 2532.941406 1935.710938 2532.75 1978.492188 2533.070312 2020.699219 C 2330.085938 2030.800781 2090.011719 1980.601562 2036.804688 1838.0625 "/>
<path style=" stroke:none;fill-rule:evenodd;fill:rgb(13.725491%,12.156863%,12.54902%);fill-opacity:1;" d="M 2014.675781 1952.015625 C 2095.0625 2153.773438 2371.207031 2130.558594 2604.121094 2124.996094 C 2593.886719 2151.152344 2571.632812 2182.101562 2544.003906 2193.292969 C 2469.375 2223.667969 2263.578125 2246.691406 2159.910156 2191.695312 C 2094.230469 2156.777344 2052.023438 2077.804688 2016.019531 2031.570312 C 1998.625 2009.25 1912.035156 1952.144531 2014.675781 1952.015625 "/>
<path style=" stroke:none;fill-rule:evenodd;fill:rgb(50.588238%,69.01961%,76.862746%);fill-opacity:1;" d="M 2815.035156 3064.90625 C 2720.703125 3226.375 2630.46875 3392.257812 2518.617188 3534.734375 C 2565.492188 3396.796875 2585.574219 3166.007812 2592.671875 2990.023438 C 2690.839844 2944.109375 2774.808594 3000.382812 2815.035156 3064.90625 "/>
<path style=" stroke:none;fill-rule:evenodd;fill:rgb(13.725491%,12.156863%,12.54902%);fill-opacity:1;" d="M 3322.492188 3645.363281 C 3216.90625 3666.46875 3142.722656 3769.039062 3039.695312 3762.515625 C 3096.292969 3682.710938 3195.484375 3649.074219 3322.492188 3645.363281 "/>
<path style=" stroke:none;fill-rule:evenodd;fill:rgb(13.725491%,12.156863%,12.54902%);fill-opacity:1;" d="M 3369.050781 3810.542969 C 3282.96875 3819.621094 3181.925781 3833.5625 3094.632812 3826.402344 C 3135.945312 3763.285156 3295.121094 3785.089844 3369.050781 3810.542969 "/>
<path style=" stroke:none;fill-rule:evenodd;fill:rgb(13.725491%,12.156863%,12.54902%);fill-opacity:1;" d="M 3398.851562 3953.019531 C 3302.15625 3955.066406 3181.925781 3953.148438 3090.027344 3945.472656 C 3144.386719 3887.023438 3336.113281 3923.792969 3398.851562 3953.019531 "/>
<path style=" stroke:none;fill-rule:evenodd;fill:rgb(86.274511%,85.09804%,84.705883%);fill-opacity:1;" d="M 2633.027344 4342.78125 C 2646.90625 4464.285156 2695.058594 4587.320312 2689.046875 4720.332031 C 2635.585938 4738.367188 2604.886719 4754.160156 2533.199219 4754.035156 C 2528.144531 4640.972656 2513.054688 4468.183594 2517.53125 4360.433594 C 2552.765625 4362.734375 2604.761719 4335.238281 2633.027344 4342.78125 "/>
<path style=" stroke:none;fill-rule:evenodd;fill:rgb(94.117647%,83.92157%,71.764708%);fill-opacity:1;" d="M 2477.113281 2552.808594 C 2428.574219 2584.527344 2387.195312 2624.113281 2340.574219 2657.941406 C 2237.164062 2663.058594 2180.695312 2650.777344 2104.71875 2591.433594 C 2106 2586.640625 2113.609375 2588.75 2113.867188 2582.929688 C 2224.628906 2632.234375 2365.324219 2562.785156 2477.113281 2552.808594 "/>
<path style=" stroke:none;fill-rule:evenodd;fill:rgb(50.588238%,69.01961%,76.862746%);fill-opacity:1;" d="M 1895.917969 3307.460938 C 1926.359375 3175.664062 2045.566406 3107.433594 2153.769531 3034.851562 C 2265.496094 3176.625 2333.414062 3358.941406 2408.234375 3534.863281 C 2231.472656 3481.59375 2050.871094 3395.136719 1895.917969 3307.460938 "/>
<g clip-path="url(#clip1)" clip-rule="nonzero">
<path style=" stroke:none;fill-rule:evenodd;fill:rgb(13.725491%,12.156863%,12.54902%);fill-opacity:1;" d="M 2517.53125 4360.433594 C 2513.054688 4468.183594 2528.144531 4640.972656 2533.199219 4754.035156 C 2604.886719 4754.160156 2635.585938 4738.367188 2689.046875 4720.332031 C 2695.058594 4587.320312 2646.90625 4464.285156 2633.027344 4342.78125 C 2604.761719 4335.238281 2552.765625 4362.734375 2517.53125 4360.433594 Z M 1401.953125 3747.554688 C 1449.214844 4181.890625 1517.640625 4546.96875 1643.117188 4931.554688 C 1921.691406 5016.09375 2257.5 5023.445312 2503.652344 4947.15625 C 2458.503906 4730.117188 2478.199219 4465.820312 2451.789062 4234.199219 C 2431.898438 4060.132812 2442.066406 3884.914062 2414.757812 3707.328125 C 2116.421875 3645.238281 1694.726562 3692.8125 1401.953125 3747.554688 Z M 2485.296875 3710.015625 C 2482.738281 3896.550781 2493.613281 4080.53125 2507.871094 4267.324219 C 2579.5 4256.515625 2628.101562 4249.355469 2694.675781 4234.773438 C 2673.0625 4055.015625 2675.683594 3852.683594 2631.683594 3693.644531 C 2580.84375 3694.15625 2536.011719 3693.070312 2485.296875 3710.015625 Z M 2848.609375 3679.960938 C 2814.648438 3672.160156 2775.0625 3679.703125 2742.578125 3680.28125 C 2757.859375 3832.347656 2794.890625 4000.148438 2807.933594 4159.699219 C 2859.03125 4161.296875 2886.339844 4137.191406 2928.355469 4129.132812 C 2930.59375 3989.023438 2916.140625 3796.027344 2848.609375 3679.960938 Z M 3398.785156 4182.59375 C 3505.332031 4156.757812 3572.289062 4026.304688 3542.488281 3892.332031 C 3522.535156 3802.292969 3486.914062 3632.765625 3448.796875 3575.148438 C 3420.65625 3532.558594 3344.300781 3476.734375 3283.289062 3515.804688 C 3184.164062 3579.304688 3009.449219 3597.722656 2937.117188 3674.589844 C 2973.378906 3795.324219 2984.632812 3961.140625 2999.597656 4114.167969 C 3123.472656 4121.84375 3275.933594 4080.019531 3378.960938 4124.398438 C 3307.015625 4147.742188 3213.710938 4147.933594 3151.546875 4181.890625 C 3202.328125 4206.382812 3321.277344 4201.457031 3398.785156 4182.59375 Z M 2408.234375 3534.863281 C 2333.414062 3358.941406 2265.496094 3176.625 2153.769531 3034.851562 C 2045.566406 3107.433594 1926.359375 3175.664062 1895.917969 3307.460938 C 2050.871094 3395.136719 2231.472656 3481.59375 2408.234375 3534.863281 Z M 2592.671875 2990.023438 C 2585.574219 3166.007812 2565.492188 3396.796875 2518.617188 3534.734375 C 2630.46875 3392.257812 2720.703125 3226.375 2815.035156 3064.90625 C 2774.808594 3000.382812 2690.839844 2944.109375 2592.671875 2990.023438 Z M 2383.613281 2915.78125 C 2341.214844 2911.175781 2305.273438 2964.445312 2250.148438 2941.421875 C 2237.546875 2955.363281 2226.035156 2970.519531 2213.183594 2984.140625 C 2334.882812 3130.835938 2390.203125 3338.925781 2484.210938 3511.328125 C 2534.667969 3345.703125 2528.847656 3164.28125 2539.976562 2983.566406 C 2470.652344 2987.976562 2432.21875 2920.894531 2383.613281 2915.78125 Z M 2249.1875 2738.324219 C 2244.648438 2788.585938 2256.351562 2805.023438 2266.453125 2862.574219 C 2431.578125 2914.246094 2402.800781 2635.941406 2249.1875 2738.324219 Z M 2066.03125 2678.210938 C 1994.914062 2639.332031 1887.988281 2597 1796.089844 2579.476562 C 1682.125 2557.671875 1692.804688 2734.871094 1697.667969 2840.578125 C 1701.441406 2924.285156 1744.992188 3012.789062 1763.855469 3068.359375 C 1772.746094 3094.324219 1774.730469 3121.882812 1796.921875 3127 C 1836.1875 3136.144531 1965.625 3084.410156 2002.460938 3064.332031 C 2080.484375 3021.804688 2140.980469 2954.277344 2207.234375 2908.9375 C 2208.066406 2886.875 2208.898438 2864.8125 2209.792969 2842.75 C 2170.015625 2822.925781 2123.96875 2808.859375 2065.519531 2806.300781 C 2105.167969 2786.347656 2163.492188 2786.605469 2199.625 2762.878906 C 2200.007812 2754.054688 2200.328125 2745.230469 2200.648438 2736.46875 C 2134.714844 2731.351562 2109.515625 2702 2066.03125 2678.210938 Z M 1386.347656 2554.730469 C 1327.257812 2614.710938 1551.984375 2696.4375 1623.546875 2700.851562 C 1623.164062 2662.929688 1645.164062 2627.117188 1640.75 2599.941406 C 1555.757812 2584.976562 1444.097656 2594.824219 1386.347656 2554.730469 Z M 2113.867188 2582.929688 C 2113.609375 2588.75 2106 2586.640625 2104.71875 2591.433594 C 2180.695312 2650.777344 2237.164062 2663.058594 2340.574219 2657.941406 C 2387.195312 2624.113281 2428.574219 2584.527344 2477.113281 2552.808594 C 2365.324219 2562.785156 2224.628906 2632.234375 2113.867188 2582.929688 Z M 2781.714844 2785.390625 C 2778.515625 2718.820312 2760.996094 2581.777344 2719.808594 2557.796875 C 2633.410156 2507.40625 2479.796875 2659.667969 2414.695312 2682.878906 C 2421.792969 2703.28125 2433.496094 2719.394531 2434.390625 2745.484375 C 2472.890625 2736.023438 2519.703125 2742.480469 2553.085938 2758.851562 C 2514.523438 2763.199219 2471.738281 2762.878906 2446.222656 2781.296875 C 2436.886719 2808.347656 2448.527344 2845.179688 2442.257812 2882.65625 C 2533.835938 2908.488281 2638.398438 2922.238281 2754.152344 2925.628906 C 2776.664062 2896.402344 2784.335938 2840.640625 2781.714844 2785.390625 Z M 1286.902344 2612.730469 C 1268.359375 2599.554688 1142.882812 2436.296875 1125.679688 2443.074219 C 898.714844 2532.601562 686.394531 2687.421875 496.714844 2833.796875 C 677.570312 3221.898438 750.601562 3697.355469 763.457031 4155.605469 C 970.660156 4252.488281 1152.667969 4392.152344 1433.800781 4406.730469 C 1401.25 4176.582031 1371.574219 3971.242188 1353.09375 3754.523438 C 1282.492188 3724.722656 1181.128906 3755.867188 1115 3745.316406 C 1114.425781 3665.636719 1215.980469 3710.398438 1224.421875 3656.8125 C 1230.816406 3616.332031 1168.59375 3613.261719 1188.800781 3549.441406 C 1240.539062 3568.242188 1267.652344 3609.746094 1322.78125 3625.285156 C 1373.109375 3515.101562 1322.078125 3320.1875 1329.304688 3228.101562 C 1330.710938 3210.835938 1337.9375 3132.308594 1376.691406 3146.121094 C 1410.96875 3158.269531 1374.710938 3354.847656 1378.484375 3442.007812 C 1381.9375 3522.328125 1368.761719 3600.023438 1401.3125 3650.417969 C 1672.980469 3613.453125 1949.0625 3589.539062 2242.984375 3581.480469 C 2178.328125 3553.726562 2101.523438 3527.445312 2017.296875 3479.996094 C 1971.636719 3454.222656 1827.679688 3400.699219 1814.507812 3357.34375 C 1793.464844 3288.214844 1869.695312 3251.445312 1882.679688 3192.164062 C 1745.566406 3266.984375 1718.835938 3120.476562 1686.347656 3016.691406 C 1656.992188 2922.75 1640.238281 2852.535156 1633.011719 2798.308594 C 1514.890625 2741.96875 1388.585938 2684.992188 1286.902344 2612.730469 Z M 2661.675781 2462.835938 C 2850.847656 2371.070312 2884.933594 2805.597656 2810.8125 2945.578125 C 2822.261719 2987.335938 2861.71875 3003.261719 2877.769531 3040.796875 C 2772.1875 3229.894531 2654.960938 3406.390625 2547.265625 3593.246094 C 2627.398438 3543.367188 2741.808594 3584.359375 2836.136719 3547.011719 C 2870.542969 3533.390625 2895.484375 3454.480469 2921.578125 3391.363281 C 2993.394531 3217.742188 3068.730469 2998.847656 3102.242188 2833.160156 C 3109.851562 2795.429688 3130.445312 2713.128906 3125.839844 2679.554688 C 3117.589844 2619.378906 3035.921875 2574.746094 2994.417969 2537.589844 C 2917.933594 2468.847656 2869.777344 2408.351562 2789.964844 2344.148438 C 2757.605469 2391.917969 2688.152344 2423.953125 2661.675781 2462.835938 Z M 854.332031 785.476562 C 764.160156 884.660156 783.027344 1070.429688 793.960938 1202.609375 C 956.847656 1100.164062 1173.132812 1210.730469 1171.085938 1385.054688 C 1248.851562 1383.007812 1200.121094 1287.914062 1186.050781 1226.652344 C 1140.070312 1026.625 1263.5625 809.265625 1191.679688 626.308594 C 1052.136719 636.921875 937.46875 693.902344 854.332031 785.476562 Z M 1499.222656 209.941406 C 1295.21875 267.75 1033.652344 415.984375 949.8125 599.320312 C 1014.722656 589.859375 1059.8125 557.117188 1123.890625 553.085938 C 1148.0625 551.488281 1179.785156 563.191406 1207.601562 556.285156 C 1263.050781 542.535156 1309.863281 418.222656 1351.6875 371.988281 C 1392.425781 326.839844 1441.410156 307.527344 1474.984375 266.34375 C 1496.539062 255.984375 1528.386719 256.6875 1529.601562 224.332031 C 1520.265625 214.355469 1510.414062 206.746094 1499.222656 209.941406 Z M 2561.402344 264.296875 C 2349.59375 144.84375 1991.140625 54.929688 1765.839844 167.222656 C 1584.089844 257.902344 1338.320312 407.859375 1254.609375 597.851562 C 1332.820312 781.253906 1231.394531 949.246094 1224.933594 1135.464844 C 1221.480469 1234.519531 1271.554688 1320.976562 1275.390625 1428.792969 C 1248.597656 1472.980469 1166.800781 1478.417969 1110.140625 1475.410156 C 1091.082031 1380 1057.699219 1272.761719 959.46875 1262.015625 C 820.4375 1246.796875 718.820312 1361.839844 712.488281 1482.0625 C 705.003906 1623.453125 821.078125 1857.820312 985.625 1841.515625 C 1049.195312 1835.246094 1064.796875 1771.554688 1134.058594 1772.195312 C 1171.535156 1847.078125 1076.117188 1870.609375 1066.332031 1924.136719 C 1063.777344 1937.949219 1074.265625 1992.050781 1080.339844 2017.371094 C 1110.203125 2140.855469 1176.84375 2300.597656 1242.394531 2394.601562 C 1325.59375 2513.800781 1489.121094 2531.769531 1664.988281 2543.472656 C 1696.386719 2475.816406 1812.140625 2481.378906 1887.539062 2499.09375 C 1797.175781 2463.28125 1713.144531 2376.503906 1643.5 2299.703125 C 1563.558594 2211.582031 1482.53125 2117.066406 1478.441406 2001.898438 C 1629.558594 2211.582031 1754.457031 2394.667969 2029.257812 2486.945312 C 2237.230469 2556.648438 2480.117188 2454.96875 2639.871094 2342.742188 C 2706.1875 2296.121094 2745.773438 2222.132812 2792.90625 2154.414062 C 2969.222656 1900.730469 3051.527344 1538.71875 3033.429688 1187.773438 C 3026.011719 1043.058594 3026.332031 898.855469 2977.792969 801.460938 C 2927.011719 699.65625 2755.367188 608.59375 2654.898438 700.679688 C 2636.222656 601.6875 2738.417969 540.488281 2858.457031 576.109375 C 2772.890625 465.671875 2683.039062 332.914062 2561.402344 264.296875 Z M 2955.984375 3529.617188 C 3121.492188 3447.316406 3430.699219 3308.164062 3534.492188 3529.875 C 3572.734375 3611.664062 3617.695312 3749.792969 3637.519531 3834.203125 C 3665.53125 3953.210938 3607.140625 4203.375 3484.800781 4243.34375 C 3376.722656 4278.578125 3250.609375 4276.46875 3120.402344 4250.3125 C 3105.121094 4237.589844 3088.042969 4215.335938 3076.085938 4192.183594 C 2983.164062 4188.539062 2896.125 4197.171875 2822.707031 4235.351562 C 2829.613281 4304.09375 2783.121094 4315.15625 2739.570312 4329.289062 C 2707.210938 4457.441406 2804.226562 4624.730469 2781.011719 4741.5625 C 2764.449219 4824.761719 2662.0625 4837.675781 2586.789062 4853.21875 C 2584.296875 4899.453125 2590.050781 4938.078125 2595.167969 4977.210938 C 2577.964844 5040.648438 2500.773438 5076.714844 2427.675781 5085.539062 C 2187.027344 5114.507812 1821.605469 5127.492188 1590.164062 5044.292969 C 1525.570312 4885.832031 1474.667969 4693.15625 1420.882812 4512.246094 C 1195.132812 4536.355469 1012.550781 4414.851562 840.457031 4335.238281 C 780.851562 4307.613281 698.417969 4292.390625 676.164062 4245.007812 C 654.546875 4199.027344 663.371094 4111.035156 658 4027.902344 C 644.378906 3815.53125 632.738281 3610.703125 576.652344 3393.28125 C 551.457031 3295.761719 507.585938 3209.621094 476.953125 3115.617188 C 448.6875 3028.519531 399.1875 2920.832031 386.332031 2833.925781 C 367.210938 2705.132812 488.464844 2697.972656 566.039062 2642.210938 C 685.882812 2555.878906 779.957031 2508.175781 909.78125 2430.285156 C 948.214844 2407.265625 1064.222656 2348.878906 1077.398438 2321.957031 C 1103.617188 2268.625 1032.375 2193.484375 1013.316406 2151.726562 C 983.195312 2085.605469 967.527344 2029.523438 963.179688 1964.296875 C 854.269531 1947.09375 771.707031 1882.3125 721.890625 1809.222656 C 639.390625 1688.296875 582.152344 1464.539062 653.523438 1294.3125 C 659.152344 1280.945312 687.035156 1254.597656 691.191406 1234.007812 C 699.3125 1193.464844 675.90625 1139.554688 674.4375 1096.453125 C 666.953125 875.195312 711.847656 684.628906 860.792969 617.929688 C 921.226562 377.101562 1137.640625 296.976562 1341.519531 177.328125 C 1417.75 132.566406 1501.71875 103.980469 1588.5 72.070312 C 1899.691406 -42.460938 2377.21875 -20.910156 2635.519531 174.449219 C 2745.070312 257.261719 2920.105469 432.160156 2982.78125 558.84375 C 3148.160156 893.101562 3136.390625 1451.816406 3020.703125 1858.523438 C 3005.164062 1913.074219 2982.585938 1993.390625 2951.125 2058.9375 C 2929.1875 2104.726562 2860.886719 2196.363281 2869.199219 2236.84375 C 2877.707031 2278.601562 3024.796875 2390.316406 3056.324219 2420.691406 C 3113.113281 2475.496094 3221 2548.207031 3229.761719 2617.332031 C 3239.164062 2690.875 3197.339844 2791.527344 3176.171875 2862.511719 C 3105.375 3099.375 3036.242188 3318.398438 2955.984375 3529.617188 "/>
</g>
<path style=" stroke:none;fill-rule:evenodd;fill:rgb(96.862745%,89.411765%,80.392158%);fill-opacity:1;" d="M 1851.855469 1889.667969 C 1860.871094 1877.773438 1910.179688 1859.613281 1979.246094 1892.867188 C 1979.246094 1892.867188 1897.386719 1906.484375 1904.230469 2042.953125 L 1870.082031 2036.109375 C 1870.082031 2036.109375 1834.84375 1912.371094 1851.855469 1889.667969 "/>
<path style=" stroke:none;fill-rule:evenodd;fill:rgb(11.372549%,9.803922%,9.803922%);fill-opacity:1;" d="M 2449.933594 3062.667969 C 2449.933594 3083.386719 2433.175781 3100.207031 2412.457031 3100.207031 C 2391.738281 3100.207031 2374.917969 3083.386719 2374.917969 3062.667969 C 2374.917969 3041.949219 2391.738281 3025.132812 2412.457031 3025.132812 C 2433.175781 3025.132812 2449.933594 3041.949219 2449.933594 3062.667969 "/>
<path style=" stroke:none;fill-rule:evenodd;fill:rgb(11.372549%,9.803922%,9.803922%);fill-opacity:1;" d="M 2487.472656 3236.609375 C 2487.472656 3257.328125 2470.652344 3274.144531 2449.933594 3274.144531 C 2429.210938 3274.144531 2412.457031 3257.328125 2412.457031 3236.609375 C 2412.457031 3215.886719 2429.210938 3199.070312 2449.933594 3199.070312 C 2470.652344 3199.070312 2487.472656 3215.886719 2487.472656 3236.609375 "/>
<path style=" stroke:none;fill-rule:nonzero;fill:rgb(0%,0%,0%);fill-opacity:1;" d="M 1986.34375 11871.972656 C 1974.324219 11873.828125 1962.683594 11918.015625 1939.40625 11941.039062 C 1922.394531 11957.664062 1901.097656 11956.640625 1889.777344 11977.167969 C 1885.492188 11984.84375 1886.898438 11997.953125 1882.039062 12010.550781 C 1872.511719 12035.679688 1839 12037.917969 1839 12065.351562 C 1838.871094 12094.960938 1866.945312 12100.589844 1891.25 12121.628906 C 1910.179688 12138.511719 1912.035156 12150.148438 1934.992188 12158.398438 C 1954.625 12164.984375 1983.722656 12143.304688 2010.007812 12151.109375 C 2031.558594 12157.503906 2052.214844 12162.105469 2057.078125 12184.167969 C 2061.359375 12204.503906 2056.757812 12235.96875 2030.664062 12232.320312 C 2021.839844 12231.363281 1983.660156 12218.574219 1936.71875 12223.496094 C 1880.058594 12229.890625 1815.402344 12248.308594 1809.132812 12311.171875 C 1805.617188 12346.339844 1849.296875 12387.714844 1891.441406 12379.339844 C 1920.539062 12373.582031 1906.789062 12339.371094 1922.648438 12322.746094 C 1943.433594 12301.449219 2061.359375 12397.117188 2170.972656 12397.117188 C 2217.082031 12397.117188 2251.425781 12385.476562 2285.511719 12349.921875 C 2288.710938 12347.238281 2292.609375 12341.417969 2297.535156 12341.035156 C 2302.140625 12341.417969 2310.261719 12345.957031 2312.949219 12347.941406 C 2401.203125 12418.539062 2467.902344 12560.25 2792.332031 12561.910156 C 2837.992188 12562.101562 2889.984375 12583.84375 2932.386719 12622.339844 C 2970.246094 12657.195312 2992.371094 12711.421875 3013.859375 12766.417969 C 3046.347656 12848.910156 3104.542969 12929.164062 3192.734375 13018.5 C 3197.59375 13023.296875 3270.179688 13079.507812 3276 13083.726562 C 3276.894531 13084.304688 3282.265625 13096.964844 3280.410156 13104.0625 C 3278.238281 13157.652344 3270.433594 13313.367188 3387.082031 13320.398438 C 3415.605469 13321.871094 3408.125 13301.917969 3408.125 13288.167969 C 3408.058594 13261.054688 3403.070312 13234.070312 3417.460938 13206.316406 C 3437.09375 13168.140625 3375.765625 13150.554688 3377.554688 13067.933594 C 3378.832031 13006.414062 3326.90625 13016.902344 3300.492188 12969.964844 C 3285.335938 12942.785156 3271.84375 12928.398438 3272.800781 12895.144531 C 3278.75 12708.03125 3232.832031 12585.125 3209.9375 12554.941406 C 3192.09375 12532.175781 3177.257812 12523.09375 3193.628906 12512.542969 C 3290.964844 12448.59375 3313.027344 12388.996094 3313.027344 12388.996094 C 3364.765625 12267.878906 3411.320312 12157.246094 3475.527344 12108.582031 C 3488.445312 12098.542969 3521.574219 12073.921875 3541.910156 12064.203125 C 3601.832031 12036.066406 3633.363281 12019.054688 3650.757812 12002.238281 C 3678.257812 11975.507812 3700 11919.808594 3673.652344 11886.042969 C 3640.84375 11844.414062 3584.054688 11877.472656 3559.050781 11892.246094 C 3380.113281 11997.953125 3353.699219 12184.425781 3291.730469 12291.539062 C 3242.296875 12377.101562 3161.910156 12439.960938 3090.027344 12445.078125 C 3036.117188 12449.105469 2978.046875 12438.234375 2920.234375 12412.976562 C 2779.539062 12351.585938 2702.542969 12272.289062 2684.445312 12258.285156 C 2646.648438 12229.253906 2353.238281 11942.507812 2115.527344 11930.804688 C 2115.527344 11930.804688 2085.984375 11871.972656 2078.5625 11871.015625 C 2061.167969 11868.777344 2043.390625 11906.121094 2030.664062 11910.472656 C 2018.640625 11914.4375 1998.496094 11869.992188 1986.34375 11871.972656 M 939.902344 13583.289062 C 917.519531 13582.777344 898.523438 13564.488281 898.523438 13541.851562 L 898.585938 12803.699219 L 654.164062 12803.699219 L 654.164062 13617.4375 C 654.164062 13657.277344 686.652344 13689.828125 726.429688 13689.828125 L 1153.5625 13689.828125 C 1193.726562 13689.828125 1225.765625 13657.277344 1225.765625 13617.4375 L 1225.765625 12803.699219 L 981.597656 12803.699219 L 981.40625 13541.851562 C 981.40625 13564.488281 962.347656 13582.777344 939.902344 13583.289062 M 1758.101562 12803.699219 L 1388.203125 12803.699219 C 1344.460938 12803.699219 1308.839844 12839.191406 1308.839844 12883.1875 L 1308.839844 13689.828125 L 1553.457031 13689.828125 L 1553.457031 12949.882812 C 1553.582031 12927.246094 1572 12909.277344 1594.769531 12909.277344 C 1617.597656 12909.277344 1635.890625 12926.800781 1636.402344 12949.246094 L 1636.402344 13689.828125 L 1880.058594 13689.828125 L 1880.058594 12949.246094 C 1880.3125 12926.800781 1898.667969 12909.277344 1921.433594 12909.277344 C 1944.074219 12909.277344 1962.683594 12927.246094 1962.875 12949.882812 L 1962.875 13689.828125 L 2207.492188 13689.828125 L 2207.492188 12883.1875 C 2207.492188 12839.191406 2171.804688 12803.699219 2128 12803.699219 Z M 327.179688 12951.417969 C 327.304688 12926.800781 307.160156 12909.277344 285.738281 12909.277344 L 244.230469 12909.277344 L 244.230469 13357.425781 L 285.738281 13357.425781 C 307.351562 13357.425781 327.304688 13340.351562 327.179688 13315.859375 Z M 491.152344 13467.160156 L 244.230469 13467.160156 L 244.230469 13689.828125 L 0 13689.828125 L 0 12803.699219 L 492.683594 12803.699219 C 536.8125 12803.699219 571.21875 12839.382812 571.21875 12883.507812 L 571.21875 13387.351562 C 571.21875 13431.542969 535.46875 13467.160156 491.152344 13467.160156 M 3045.707031 13491.652344 C 2996.59375 13491.652344 2955.410156 13533.921875 2955.410156 13585.082031 C 2955.410156 13636.429688 2996.59375 13678.316406 3047.242188 13678.316406 C 3097.507812 13678.316406 3138.246094 13636.429688 3138.246094 13585.082031 C 3138.246094 13533.792969 3097.507812 13491.652344 3047.242188 13491.652344 Z M 3155.707031 13584.824219 C 3155.707031 13645 3107.292969 13693.921875 3047.242188 13693.921875 C 2986.617188 13693.921875 2937.949219 13645.320312 2937.949219 13584.824219 C 2937.949219 13525.417969 2986.617188 13475.792969 3045.453125 13475.792969 C 3107.292969 13475.792969 3155.707031 13523.945312 3155.707031 13584.824219 "/>
<path style=" stroke:none;fill-rule:nonzero;fill:rgb(0%,0%,0%);fill-opacity:1;" d="M 3035.988281 13577.855469 C 3052.933594 13577.855469 3061.886719 13571.90625 3061.886719 13559.886719 C 3061.886719 13549.207031 3053.253906 13543.707031 3036.691406 13543.707031 L 3031.832031 13543.707031 L 3031.832031 13577.855469 Z M 3098.53125 13647.941406 L 3069.371094 13647.941406 L 3031.832031 13598.253906 L 3031.832031 13647.941406 L 3008.039062 13647.941406 L 3008.039062 13522.347656 L 3033.046875 13522.347656 C 3067.066406 13522.347656 3085.167969 13535.136719 3085.167969 13559.566406 C 3085.167969 13575.9375 3074.488281 13590.390625 3059.585938 13594.738281 L 3057.859375 13595.375 Z M 2617.613281 13357.617188 L 2617.613281 12949.628906 C 2616.976562 12927.054688 2598.75 12909.726562 2575.980469 12909.726562 C 2553.40625 12909.726562 2534.734375 12927.757812 2534.605469 12950.269531 L 2534.605469 13357.617188 Z M 2617.613281 13689.828125 L 2617.613281 13467.351562 L 2534.605469 13467.351562 L 2534.605469 13689.828125 L 2290.4375 13689.828125 L 2290.4375 12883.1875 C 2290.4375 12839.191406 2326.058594 12803.699219 2369.863281 12803.699219 L 2782.289062 12803.699219 C 2826.226562 12803.699219 2861.847656 12839.191406 2861.847656 12883.1875 L 2861.847656 13689.828125 Z M 2617.613281 13689.828125 "/>
</g>
</svg>
