<?xml version="1.0" encoding="UTF-8"?>
<svg xmlns="http://www.w3.org/2000/svg" xmlns:xlink="http://www.w3.org/1999/xlink" width="200px" height="833px" viewBox="0 0 200 828" version="1.1">
<g id="surface1">
<path style=" stroke:none;fill-rule:evenodd;fill:rgb(82.745099%,21.960784%,20%);fill-opacity:1;" d="M 196.589844 133.066406 C 196.589844 187.722656 153.257812 232.027344 99.800781 232.027344 C 46.34375 232.027344 3.007812 187.722656 3.007812 133.066406 C 3.007812 78.40625 46.34375 34.097656 99.800781 34.097656 C 153.257812 34.097656 196.589844 78.40625 196.589844 133.066406 "/>
<path style=" stroke:none;fill-rule:nonzero;fill:rgb(93.725491%,23.921569%,22.745098%);fill-opacity:1;" d="M 6.953125 157.574219 C 6.953125 157.574219 -0.0546875 54.371094 95.078125 51.421875 L 88.441406 40.363281 L 36.820312 57.6875 L 22.070312 74.644531 L 9.164062 99.339844 L 1.789062 128.089844 L 4.003906 147.253906 "/>
<path style=" stroke:none;fill-rule:nonzero;fill:rgb(13.725491%,12.156863%,12.54902%);fill-opacity:1;" d="M 33.503906 65.550781 C 16.523438 82.917969 6.015625 106.902344 6.015625 133.433594 C 6.015625 159.960938 16.523438 183.945312 33.503906 201.308594 C 50.496094 218.675781 73.910156 229.390625 99.796875 229.390625 C 125.683594 229.390625 149.101562 218.675781 166.089844 201.308594 C 183.070312 183.945312 193.585938 159.960938 193.585938 133.433594 C 193.585938 106.902344 183.070312 82.917969 166.089844 65.550781 C 149.101562 48.1875 125.683594 37.472656 99.796875 37.472656 C 73.910156 37.472656 50.496094 48.1875 33.503906 65.550781 Z M 29.207031 205.511719 C 11.160156 187.0625 0 161.558594 0 133.433594 C 0 105.300781 11.160156 79.804688 29.207031 61.351562 C 47.25 42.898438 72.226562 31.460938 99.796875 31.460938 C 127.367188 31.460938 152.347656 42.898438 170.386719 61.351562 C 188.4375 79.804688 199.597656 105.304688 199.59375 133.433594 C 199.597656 161.558594 188.4375 187.0625 170.386719 205.511719 C 152.347656 223.964844 127.367188 235.402344 99.796875 235.402344 C 72.226562 235.402344 47.25 223.964844 29.207031 205.511719 "/>
<path style=" stroke:none;fill-rule:evenodd;fill:rgb(94.117647%,83.92157%,71.764708%);fill-opacity:1;" d="M 140.542969 133.613281 L 125.792969 135.824219 L 105.878906 138.035156 L 92.976562 138.402344 L 80.4375 138.035156 L 70.851562 135.085938 L 62.367188 125.871094 L 55.730469 107.074219 L 54.257812 103.019531 L 45.410156 100.070312 L 40.246094 91.59375 L 36.558594 79.429688 L 40.613281 68.742188 L 50.199219 65.421875 L 57.945312 69.109375 L 61.632812 77.21875 L 66.058594 76.480469 L 67.53125 74.640625 L 66.058594 66.160156 L 65.6875 55.472656 L 67.898438 40.726562 L 67.816406 32.304688 L 74.535156 21.5625 L 86.339844 13.082031 L 106.984375 4.238281 L 129.851562 7.554688 L 149.761719 21.929688 L 158.976562 36.671875 L 164.878906 47.363281 L 166.355469 73.898438 L 161.929688 96.753906 L 153.816406 117.023438 L 146.074219 127.714844 "/>
<path style=" stroke:none;fill-rule:evenodd;fill:rgb(20%,31.37255%,38.039216%);fill-opacity:1;" d="M 128.003906 197.375 L 75.277344 199.589844 L 75.277344 208.433594 L 79.703125 239.394531 L 77.488281 241.976562 L 40.613281 229.445312 L 38.03125 225.019531 L 34.347656 183.371094 L 25.867188 158.308594 L 24.023438 152.410156 L 53.519531 132.140625 L 62.738281 128.453125 L 70.851562 138.402344 L 77.855469 144.667969 L 85.96875 147.25 L 89.65625 148.355469 L 94.082031 167.519531 L 97.402344 171.578125 L 105.878906 168.625 L 99.980469 180.054688 L 132.0625 195.164062 L 128.003906 197.375 "/>
<path style=" stroke:none;fill-rule:evenodd;fill:rgb(42.745098%,41.960785%,42.745098%);fill-opacity:1;" d="M 40.613281 68.742188 L 50.199219 65.421875 L 57.945312 69.109375 L 61.632812 77.21875 L 66.058594 76.480469 L 67.164062 72.058594 L 64.949219 63.582031 L 67.164062 43.308594 L 65.320312 32.25 L 71.957031 24.511719 L 86.339844 13.082031 L 82.28125 7.554688 L 62.003906 17.503906 L 53.519531 24.140625 L 48.726562 34.460938 L 41.351562 44.414062 L 39.136719 56.207031 L 40.613281 68.742188 "/>
<path style=" stroke:none;fill-rule:evenodd;fill:rgb(86.274511%,85.09804%,84.705883%);fill-opacity:1;" d="M 55.730469 34.09375 C 55.730469 34.09375 61.261719 20.457031 83.386719 13.820312 C 105.511719 7.1875 84.492188 9.027344 84.492188 9.027344 L 60.527344 18.246094 L 51.308594 27.457031 L 47.25 34.832031 L 55.730469 34.09375 "/>
<path style=" stroke:none;fill-rule:evenodd;fill:rgb(86.274511%,85.09804%,84.705883%);fill-opacity:1;" d="M 44.667969 66.160156 C 44.667969 66.160156 36.925781 40.355469 66.425781 36.671875 L 65.320312 32.25 L 45.039062 37.042969 L 39.136719 56.207031 L 40.613281 68.742188 L 44.667969 66.160156 "/>
<path style=" stroke:none;fill-rule:evenodd;fill:rgb(96.862745%,89.411765%,80.392158%);fill-opacity:1;" d="M 56.472656 100.4375 L 61.300781 95.761719 C 61.300781 95.761719 63.476562 96.015625 63.84375 98.597656 C 64.214844 101.179688 65.320312 124.398438 81.175781 136.933594 C 82.621094 138.074219 69.375 135.085938 69.375 135.085938 L 57.578125 116.660156 "/>
<path style=" stroke:none;fill-rule:evenodd;fill:rgb(96.862745%,89.411765%,80.392158%);fill-opacity:1;" d="M 124.320312 93.4375 C 124.320312 93.4375 125.179688 82.261719 128.191406 83.121094 C 131.199219 83.984375 131.199219 86.988281 131.199219 86.988281 C 131.199219 86.988281 123.890625 91.714844 124.320312 93.4375 "/>
<path style=" stroke:none;fill-rule:nonzero;fill:rgb(96.862745%,89.411765%,80.392158%);fill-opacity:1;" d="M 154.921875 52.523438 C 154.921875 52.523438 148.84375 53.804688 148.285156 59.160156 C 147.726562 64.511719 154.921875 60.265625 156.027344 59.894531 "/>
<path style=" stroke:none;fill-rule:nonzero;fill:rgb(96.862745%,89.411765%,80.392158%);fill-opacity:1;" d="M 110.304688 52.894531 C 110.304688 52.894531 102.191406 54 102.191406 59.160156 C 102.191406 64.316406 111.410156 63.953125 113.992188 61.738281 "/>
<path style=" stroke:none;fill-rule:evenodd;fill:rgb(96.862745%,89.411765%,80.392158%);fill-opacity:1;" d="M 60.15625 76.851562 C 60.15625 76.851562 46.144531 68.371094 44.667969 76.480469 C 43.195312 84.589844 39.878906 90.488281 46.882812 98.964844 L 42.089844 97.492188 L 37.664062 86.066406 L 36.191406 75.007812 L 44.667969 66.160156 L 54.257812 66.898438 L 59.789062 71.320312 L 60.15625 76.851562 "/>
<path style=" stroke:none;fill-rule:evenodd;fill:rgb(96.862745%,89.411765%,80.392158%);fill-opacity:1;" d="M 66.792969 53.628906 C 66.792969 53.628906 73.0625 21.191406 104.773438 14.929688 C 130.882812 9.769531 144.597656 16.035156 149.761719 21.929688 C 149.761719 21.929688 126.53125 -5.710938 104.402344 2.765625 C 82.28125 11.242188 66.058594 26.722656 66.425781 36.671875 C 67.054688 53.621094 66.792969 53.628906 66.792969 53.628906 "/>
<path style=" stroke:none;fill-rule:evenodd;fill:rgb(96.862745%,89.411765%,80.392158%);fill-opacity:1;" d="M 152.339844 25.617188 C 152.339844 25.617188 141.648438 25.246094 141.277344 34.832031 C 141.277344 34.832031 141.277344 36.304688 142.019531 37.777344 C 142.019531 37.777344 150.496094 28.195312 155.660156 33.355469 "/>
<path style=" stroke:none;fill-rule:evenodd;fill:rgb(96.862745%,89.411765%,80.392158%);fill-opacity:1;" d="M 105.515625 38.777344 C 105.515625 38.777344 103.679688 24.066406 91.128906 32.621094 C 83.019531 38.148438 83.757812 45.890625 85.230469 47.363281 C 86.703125 48.835938 86.304688 51.804688 87.425781 49.769531 C 88.550781 47.730469 88.179688 41.097656 92.234375 39.253906 C 96.292969 37.410156 102.941406 35.351562 105.515625 38.777344 "/>
<path style=" stroke:none;fill-rule:evenodd;fill:rgb(28.627452%,44.705883%,54.509807%);fill-opacity:1;" d="M 70.851562 138.402344 L 36.191406 153.886719 C 36.191406 153.886719 50.570312 211.015625 43.195312 228.707031 L 38.03125 226.867188 L 37.664062 205.121094 L 28.078125 163.835938 L 24.023438 152.410156 L 60.15625 128.085938 L 70.851562 138.402344 "/>
<path style=" stroke:none;fill-rule:evenodd;fill:rgb(28.627452%,44.705883%,54.509807%);fill-opacity:1;" d="M 74.414062 170.003906 L 79.332031 176 L 79.332031 198.117188 L 73.429688 198.117188 C 73.429688 198.117188 72.695312 182.636719 72.695312 180.792969 C 72.695312 178.949219 73.429688 172.3125 73.429688 172.3125 "/>
<path style=" stroke:none;fill-rule:evenodd;fill:rgb(28.627452%,44.705883%,54.509807%);fill-opacity:1;" d="M 74.535156 201.433594 L 57.945312 202.167969 L 62.738281 205.488281 L 74.535156 207.332031 "/>
<path style=" stroke:none;fill-rule:evenodd;fill:rgb(20%,31.37255%,38.039216%);fill-opacity:1;" d="M 131.324219 197.746094 L 144.96875 197.378906 L 148.285156 231.289062 L 134.273438 233.128906 L 131.324219 197.746094 "/>
<path style=" stroke:none;fill-rule:evenodd;fill:rgb(20%,31.37255%,38.039216%);fill-opacity:1;" d="M 135.011719 197.746094 L 155.660156 196.640625 C 155.660156 196.640625 164.140625 175.265625 164.140625 174.160156 C 164.140625 173.054688 171.515625 143.195312 171.515625 143.195312 L 154.921875 125.875 L 151.605469 122.921875 L 142.753906 131.769531 L 142.753906 166.046875 L 135.011719 197.746094 "/>
<path style=" stroke:none;fill-rule:evenodd;fill:rgb(28.627452%,44.705883%,54.509807%);fill-opacity:1;" d="M 144.230469 195.167969 L 131.324219 197.746094 L 133.167969 208.066406 C 137.960938 210.277344 146.074219 204.378906 146.074219 204.378906 "/>
<path style=" stroke:none;fill-rule:evenodd;fill:rgb(28.627452%,44.705883%,54.509807%);fill-opacity:1;" d="M 144.597656 130.664062 L 170.410156 149.832031 L 171.144531 140.984375 L 151.605469 122.921875 L 144.597656 130.664062 "/>
<path style=" stroke:none;fill-rule:evenodd;fill:rgb(100%,100%,100%);fill-opacity:1;" d="M 87.335938 270.363281 L 79.703125 239.394531 L 75.90625 216.546875 L 75.277344 199.589844 L 109.828125 197.75 L 131.324219 197.746094 L 129.371094 236.453125 L 132.6875 266.308594 L 132.316406 271.835938 L 104.296875 274.046875 L 87.335938 270.363281 "/>
<path style=" stroke:none;fill-rule:evenodd;fill:rgb(86.274511%,85.09804%,84.705883%);fill-opacity:1;" d="M 126.53125 197.378906 C 126.53125 197.378906 124.683594 235.710938 130.214844 262.988281 C 130.214844 262.988281 119.15625 269.992188 102.929688 271.832031 L 133.90625 270.726562 L 137.59375 268.515625 L 133.167969 208.066406 L 132.0625 195.164062 "/>
<path style=" stroke:none;fill-rule:evenodd;fill:rgb(100%,100%,100%);fill-opacity:1;" d="M 148.914062 228.34375 L 163.296875 224.289062 L 190.578125 222.816406 L 194.636719 210.28125 L 187.261719 188.535156 L 178.78125 187.429688 L 166.980469 191.113281 L 155.660156 196.640625 L 149.652344 195.539062 L 144.96875 197.378906 "/>
<path style=" stroke:none;fill-rule:evenodd;fill:rgb(86.274511%,85.09804%,84.705883%);fill-opacity:1;" d="M 148.65625 220.96875 C 148.65625 220.96875 158.242188 216.542969 159.71875 216.914062 L 155.660156 196.640625 L 160.453125 194.796875 C 160.453125 194.796875 163.773438 213.964844 163.773438 216.179688 C 163.773438 216.179688 184.421875 217.285156 186.265625 217.285156 C 186.265625 217.285156 190.691406 208.804688 189.585938 199.957031 L 193.640625 211.753906 L 194.007812 218.390625 L 188.109375 227.234375 L 181.472656 228.707031 L 170.410156 228.339844 L 166.722656 223.546875 L 153.816406 225.390625 L 149.761719 226.867188 "/>
<path style=" stroke:none;fill-rule:nonzero;fill:rgb(100%,100%,100%);fill-opacity:1;" d="M 134.164062 194.800781 L 126.050781 174.160156 L 117.570312 162 C 117.570312 162 119.414062 156.835938 121.996094 156.835938 C 124.578125 156.835938 130.476562 156.835938 130.476562 156.835938 L 138.589844 159.785156 L 137.851562 173.421875 L 134.164062 194.800781 "/>
<path style=" stroke:none;fill-rule:evenodd;fill:rgb(86.274511%,85.09804%,84.705883%);fill-opacity:1;" d="M 135.746094 187.792969 C 135.746094 187.792969 125.425781 167.890625 125.425781 164.941406 C 125.425781 164.941406 127.269531 160.519531 129.851562 161.625 C 132.429688 162.730469 137.960938 165.679688 137.960938 165.679688 L 137.960938 158.679688 L 125.425781 156.097656 L 116.941406 157.203125 L 131.324219 191.113281 L 134.273438 191.480469 "/>
<path style=" stroke:none;fill-rule:nonzero;fill:rgb(100%,100%,100%);fill-opacity:1;" d="M 90.652344 139.148438 L 80.4375 138.035156 L 70.851562 135.085938 L 70.851562 138.402344 L 75.535156 143.566406 L 90.285156 150.203125 "/>
<path style=" stroke:none;fill-rule:evenodd;fill:rgb(86.274511%,85.09804%,84.705883%);fill-opacity:1;" d="M 74.171875 140.25 C 74.171875 140.25 85.601562 145.042969 89.289062 143.9375 L 89.65625 148.355469 L 79.335938 146.148438 L 73.0625 141.726562 L 74.171875 140.25 "/>
<path style=" stroke:none;fill-rule:evenodd;fill:rgb(82.745099%,21.960784%,20%);fill-opacity:1;" d="M 148.875 158.089844 C 142.617188 157.90625 136.964844 157.164062 132.015625 155.769531 C 132.351562 153.742188 131.722656 151.753906 132.226562 150.292969 C 133.609375 149.296875 135.921875 149.3125 138.003906 149.078125 C 136.199219 148.195312 133.667969 147.84375 131.589844 148.355469 C 131.539062 146.945312 130.90625 146.074219 130.523438 144.972656 C 134.042969 143.71875 142.347656 135.492188 147.015625 138.214844 C 149.242188 139.511719 150.191406 146.914062 150.363281 150.511719 C 150.503906 153.496094 150.089844 156.511719 148.875 158.089844 "/>
<path style="fill:none;stroke-width:2;stroke-linecap:butt;stroke-linejoin:miter;stroke:rgb(82.745099%,21.960784%,20%);stroke-opacity:1;stroke-miterlimit:4;" d="M 134.583 106.631793 C 128.925937 106.797826 123.816219 107.469022 119.342125 108.730163 C 119.645812 110.563587 119.077281 112.361685 119.532812 113.68288 C 120.782875 114.583696 122.873375 114.569565 124.755531 114.781522 C 123.124094 115.579891 120.835844 115.897826 118.957219 115.435054 C 118.911312 116.710326 118.33925 117.498098 117.993187 118.494293 C 121.174844 119.628261 128.682281 127.067935 132.902125 124.605707 C 134.914937 123.43288 135.773031 116.738587 135.928406 113.485054 C 136.055531 110.782609 135.681219 108.058967 134.583 106.631793 Z M 134.583 106.631793 " transform="matrix(1.106195,0,0,-1.105769,0,276)"/>
<path style=" stroke:none;fill-rule:evenodd;fill:rgb(82.745099%,21.960784%,20%);fill-opacity:1;" d="M 118.953125 147.867188 C 118.9375 148.34375 118.917969 148.820312 118.898438 149.296875 C 116.945312 150.578125 113.792969 150.5625 111.648438 151.640625 C 114.808594 151.78125 117.296875 152.539062 119.449219 153.613281 C 119.398438 154.804688 119.355469 155.996094 119.308594 157.1875 C 115.730469 159.636719 112.457031 163.289062 108.242188 165.585938 C 106.25 166.671875 99.253906 169.464844 97.128906 168.972656 C 95.929688 168.695312 95.824219 167.207031 95.34375 165.804688 C 94.324219 162.800781 91.96875 158.019531 91.765625 153.496094 C 91.503906 147.78125 90.925781 138.207031 97.085938 139.386719 C 102.054688 140.332031 107.832031 142.621094 111.675781 144.722656 C 114.027344 146.007812 115.390625 147.59375 118.953125 147.867188 "/>
<path style="fill:none;stroke-width:2;stroke-linecap:butt;stroke-linejoin:miter;stroke:rgb(82.745099%,21.960784%,20%);stroke-opacity:1;stroke-miterlimit:4;" d="M 107.533625 115.87663 C 107.5195 115.445652 107.501844 115.014674 107.484187 114.583696 C 105.718562 113.425 102.868844 113.43913 100.930187 112.46413 C 103.786969 112.336957 106.036375 111.65163 107.982094 110.680163 C 107.936187 109.602717 107.897344 108.525272 107.854969 107.447826 C 104.620344 105.23288 101.661156 101.929891 97.850937 99.852717 C 96.05 98.870652 89.725531 96.344837 87.804531 96.789946 C 86.720437 97.040761 86.625094 98.386685 86.19075 99.654891 C 85.269094 102.371467 83.13975 106.69538 82.956125 110.786141 C 82.719531 115.954348 82.196906 124.612772 87.765687 123.545924 C 92.257437 122.691033 97.480156 120.620924 100.954906 118.72038 C 103.080719 117.558152 104.313125 116.123913 107.533625 115.87663 Z M 107.533625 115.87663 " transform="matrix(1.106195,0,0,-1.105769,0,276)"/>
<path style=" stroke:none;fill-rule:evenodd;fill:rgb(82.745099%,21.960784%,20%);fill-opacity:1;" d="M 122.511719 154.683594 C 121.964844 151.574219 121.332031 150.683594 121.578125 147.96875 C 129.882812 142.4375 131.4375 157.476562 122.511719 154.683594 "/>
<path style="fill:none;stroke-width:2;stroke-linecap:butt;stroke-linejoin:miter;stroke:rgb(82.745099%,21.960784%,20%);stroke-opacity:1;stroke-miterlimit:4;" d="M 110.750594 109.712228 C 110.256219 112.524185 109.684156 113.32962 109.906625 115.784783 C 117.414062 120.786957 118.8195 107.186413 110.750594 109.712228 Z M 110.750594 109.712228 " transform="matrix(1.106195,0,0,-1.105769,0,276)"/>
<path style=" stroke:none;fill-rule:evenodd;fill:rgb(93.725491%,23.921569%,22.745098%);fill-opacity:1;" d="M 134.53125 157.207031 C 134.53125 157.207031 131.953125 153.519531 133.792969 152.414062 C 135.636719 151.308594 137.484375 152.417969 138.589844 150.570312 C 139.695312 148.730469 138.589844 147.625 138.957031 145.410156 C 139.324219 143.199219 141.171875 142.832031 143.015625 142.460938 C 144.855469 142.09375 150.019531 141.355469 150.757812 143.199219 L 148.542969 136.566406 L 144.121094 135.089844 L 130.105469 143.199219 L 129.371094 147.253906 L 129.371094 155.363281 "/>
<path style=" stroke:none;fill-rule:evenodd;fill:rgb(93.725491%,23.921569%,22.745098%);fill-opacity:1;" d="M 95.816406 169.371094 C 95.371094 163.617188 94.90625 157.871094 94.382812 152.125 C 93.601562 143.546875 96.441406 145.042969 103.886719 145.042969 C 105.023438 145.042969 110.882812 146.398438 111.300781 147.253906 C 113.3125 151.359375 107.941406 150.445312 113.621094 153.542969 C 118.410156 156.15625 126.878906 151.957031 124.945312 146.148438 C 123.859375 144.855469 119.296875 145.746094 117.660156 144.898438 C 114.78125 143.40625 111.898438 141.910156 109.019531 140.417969 C 105.355469 138.519531 96.882812 135.746094 92.976562 138.402344 C 83.074219 145.136719 93.601562 161.953125 97.128906 168.972656 "/>
<path style=" stroke:none;fill-rule:evenodd;fill:rgb(13.725491%,12.156863%,12.54902%);fill-opacity:1;" d="M 105.515625 38.777344 C 95.46875 36.4375 90.476562 42.980469 87.425781 49.769531 C 84.707031 49.109375 85.792969 45.414062 86.476562 43.527344 C 88.277344 38.582031 95.527344 32 101.449219 32.894531 C 104 33.277344 107.445312 35.605469 105.515625 38.777344 "/>
<path style=" stroke:none;fill-rule:evenodd;fill:rgb(13.725491%,12.156863%,12.54902%);fill-opacity:1;" d="M 154.488281 50.214844 C 154.640625 50.222656 154.804688 50.230469 154.964844 50.238281 C 157.230469 54.953125 159.199219 59.945312 162.0625 64.109375 C 160.144531 68.578125 147.53125 72.535156 147.726562 64.511719 C 150.453125 63.320312 155.160156 64.265625 157.582031 62.746094 C 156.179688 58.910156 154.164062 55.644531 154.488281 50.214844 "/>
<path style=" stroke:none;fill-rule:evenodd;fill:rgb(13.725491%,12.156863%,12.54902%);fill-opacity:1;" d="M 110.664062 50.339844 C 112.816406 54.289062 113.519531 58.4375 116.582031 61.421875 C 117.960938 62.765625 120.644531 64.402344 119.316406 68.140625 C 119.003906 69.019531 116.734375 70.988281 115.421875 71.371094 C 110.632812 72.785156 99.472656 71.664062 103.253906 65.695312 C 107.214844 65.878906 112.539062 68.265625 115.496094 65.390625 C 113.226562 61.761719 109.171875 54.574219 110.664062 50.339844 "/>
<path style=" stroke:none;fill-rule:evenodd;fill:rgb(13.725491%,12.156863%,12.54902%);fill-opacity:1;" d="M 152.6875 90.472656 C 145.476562 95.101562 137.4375 100.136719 125.621094 98.96875 C 123.097656 96.777344 122.136719 91.894531 124.589844 88.667969 C 125.867188 90.863281 125.066406 94.898438 128.621094 95.503906 C 135.324219 96.652344 143.128906 91.40625 147.949219 89.574219 C 150.941406 84.53125 147.691406 82.679688 144.996094 79.4375 C 139.484375 72.792969 132.085938 64.554688 132.355469 54.609375 C 134.582031 52.992188 134.777344 57.074219 135.097656 57.816406 C 137.976562 64.554688 145.222656 73.171875 150.511719 78.933594 C 151.8125 80.355469 153.949219 81.714844 154.1875 82.65625 C 154.871094 85.386719 152.402344 88.660156 152.6875 90.472656 "/>
<path style=" stroke:none;fill-rule:evenodd;fill:rgb(13.725491%,12.156863%,12.54902%);fill-opacity:1;" d="M 57.636719 85.601562 C 55.375 84.308594 54.835938 78.628906 52.183594 78.46875 C 48.390625 78.238281 49.082031 85.835938 49.097656 90.277344 C 46.488281 87.910156 46.027344 80.617188 47.945312 76.871094 C 45.761719 75.800781 44.785156 78.058594 43.574219 78.851562 C 45.132812 67.539062 60.128906 73.601562 57.636719 85.601562 "/>
<path style=" stroke:none;fill-rule:evenodd;fill:rgb(13.725491%,12.156863%,12.54902%);fill-opacity:1;" d="M 157.28125 95.183594 C 153.921875 101.566406 149.171875 108.601562 139.324219 108.808594 C 139.125 106.746094 138.972656 103.605469 139.339844 102.363281 C 146.863281 101.640625 151.515625 97.8125 157.28125 95.183594 "/>
<path style=" stroke:none;fill-rule:evenodd;fill:rgb(13.725491%,12.156863%,12.54902%);fill-opacity:1;" d="M 110.097656 99.324219 C 116.378906 102.625 127.921875 102.980469 136.460938 102.730469 C 136.914062 104.597656 136.90625 106.910156 136.921875 109.191406 C 125.949219 109.738281 112.972656 107.023438 110.097656 99.324219 "/>
<path style=" stroke:none;fill-rule:evenodd;fill:rgb(13.725491%,12.156863%,12.54902%);fill-opacity:1;" d="M 108.902344 105.480469 C 113.246094 116.382812 128.171875 115.128906 140.761719 114.828125 C 140.210938 116.242188 139.007812 117.914062 137.515625 118.519531 C 133.480469 120.160156 122.355469 121.402344 116.75 118.429688 C 113.203125 116.542969 110.921875 112.277344 108.972656 109.777344 C 108.035156 108.574219 103.351562 105.488281 108.902344 105.480469 "/>
<path style=" stroke:none;fill-rule:evenodd;fill:rgb(50.588238%,69.01961%,76.862746%);fill-opacity:1;" d="M 152.164062 165.617188 C 147.066406 174.339844 142.1875 183.304688 136.140625 191.003906 C 138.675781 183.550781 139.761719 171.078125 140.144531 161.570312 C 145.449219 159.089844 149.988281 162.128906 152.164062 165.617188 "/>
<path style=" stroke:none;fill-rule:evenodd;fill:rgb(13.725491%,12.156863%,12.54902%);fill-opacity:1;" d="M 179.59375 196.980469 C 173.886719 198.121094 169.875 203.664062 164.308594 203.3125 C 167.367188 199 172.730469 197.183594 179.59375 196.980469 "/>
<path style=" stroke:none;fill-rule:evenodd;fill:rgb(13.725491%,12.156863%,12.54902%);fill-opacity:1;" d="M 182.109375 205.90625 C 177.457031 206.398438 171.996094 207.152344 167.277344 206.765625 C 169.511719 203.355469 178.113281 204.53125 182.109375 205.90625 "/>
<path style=" stroke:none;fill-rule:evenodd;fill:rgb(13.725491%,12.156863%,12.54902%);fill-opacity:1;" d="M 183.722656 213.605469 C 178.496094 213.71875 171.996094 213.613281 167.027344 213.199219 C 169.96875 210.039062 180.332031 212.027344 183.722656 213.605469 "/>
<path style=" stroke:none;fill-rule:evenodd;fill:rgb(86.274511%,85.09804%,84.705883%);fill-opacity:1;" d="M 142.324219 234.667969 C 143.074219 241.234375 145.679688 247.882812 145.355469 255.070312 C 142.464844 256.042969 140.804688 256.898438 136.929688 256.890625 C 136.65625 250.78125 135.839844 241.445312 136.082031 235.621094 C 137.988281 235.746094 140.796875 234.261719 142.324219 234.667969 "/>
<path style=" stroke:none;fill-rule:evenodd;fill:rgb(94.117647%,83.92157%,71.764708%);fill-opacity:1;" d="M 133.898438 137.945312 C 131.273438 139.660156 129.039062 141.796875 126.515625 143.625 C 120.929688 143.902344 117.875 143.238281 113.769531 140.03125 C 113.835938 139.773438 114.25 139.886719 114.261719 139.574219 C 120.25 142.238281 127.855469 138.484375 133.898438 137.945312 "/>
<path style=" stroke:none;fill-rule:evenodd;fill:rgb(50.588238%,69.01961%,76.862746%);fill-opacity:1;" d="M 102.480469 178.722656 C 104.128906 171.601562 110.570312 167.914062 116.421875 163.992188 C 122.460938 171.652344 126.128906 181.503906 130.175781 191.011719 C 120.621094 188.132812 110.859375 183.460938 102.480469 178.722656 "/>
<path style=" stroke:none;fill-rule:evenodd;fill:rgb(13.725491%,12.156863%,12.54902%);fill-opacity:1;" d="M 136.082031 235.621094 C 135.839844 241.445312 136.65625 250.78125 136.929688 256.890625 C 140.804688 256.898438 142.464844 256.042969 145.355469 255.070312 C 145.679688 247.882812 143.074219 241.234375 142.324219 234.667969 C 140.796875 234.261719 137.988281 235.746094 136.082031 235.621094 Z M 75.78125 202.503906 C 78.335938 225.972656 82.035156 245.703125 88.816406 266.484375 C 103.875 271.050781 122.027344 271.449219 135.332031 267.328125 C 132.890625 255.597656 133.957031 241.316406 132.527344 228.800781 C 131.453125 219.394531 132.003906 209.925781 130.527344 200.332031 C 114.402344 196.976562 91.605469 199.546875 75.78125 202.503906 Z M 134.339844 200.476562 C 134.203125 210.554688 134.789062 220.496094 135.5625 230.589844 C 139.433594 230.007812 142.058594 229.621094 145.65625 228.832031 C 144.488281 219.117188 144.632812 208.183594 142.253906 199.589844 C 139.503906 199.617188 137.082031 199.558594 134.339844 200.476562 Z M 153.980469 198.851562 C 152.144531 198.429688 150.003906 198.839844 148.246094 198.871094 C 149.074219 207.085938 151.074219 216.152344 151.78125 224.773438 C 154.542969 224.863281 156.019531 223.558594 158.289062 223.125 C 158.410156 215.550781 157.628906 205.125 153.980469 198.851562 Z M 183.71875 226.011719 C 189.476562 224.617188 193.097656 217.566406 191.484375 210.328125 C 190.40625 205.460938 188.480469 196.300781 186.421875 193.1875 C 184.902344 190.886719 180.773438 187.871094 177.476562 189.980469 C 172.117188 193.414062 162.671875 194.40625 158.761719 198.5625 C 160.722656 205.085938 161.332031 214.046875 162.140625 222.316406 C 168.835938 222.730469 177.078125 220.46875 182.648438 222.867188 C 178.757812 224.128906 173.714844 224.140625 170.355469 225.972656 C 173.097656 227.296875 179.527344 227.03125 183.71875 226.011719 Z M 130.175781 191.011719 C 126.128906 181.503906 122.460938 171.652344 116.421875 163.992188 C 110.570312 167.914062 104.128906 171.601562 102.480469 178.722656 C 110.859375 183.460938 120.621094 188.132812 130.175781 191.011719 Z M 140.144531 161.570312 C 139.761719 171.078125 138.675781 183.550781 136.140625 191.003906 C 142.1875 183.304688 147.066406 174.339844 152.164062 165.617188 C 149.988281 162.128906 145.449219 159.089844 140.144531 161.570312 Z M 128.84375 157.558594 C 126.550781 157.308594 124.609375 160.1875 121.628906 158.945312 C 120.949219 159.699219 120.328125 160.515625 119.632812 161.253906 C 126.210938 169.179688 129.199219 180.421875 134.28125 189.738281 C 137.007812 180.789062 136.695312 170.988281 137.296875 161.222656 C 133.546875 161.460938 131.472656 157.835938 128.84375 157.558594 Z M 121.578125 147.96875 C 121.332031 150.683594 121.964844 151.574219 122.511719 154.683594 C 131.4375 157.476562 129.882812 142.4375 121.578125 147.96875 Z M 111.675781 144.722656 C 107.832031 142.621094 102.054688 140.332031 97.085938 139.386719 C 90.925781 138.207031 91.503906 147.78125 91.765625 153.496094 C 91.96875 158.019531 94.324219 162.800781 95.34375 165.804688 C 95.824219 167.207031 95.929688 168.695312 97.128906 168.972656 C 99.253906 169.464844 106.25 166.671875 108.242188 165.585938 C 112.457031 163.289062 115.730469 159.636719 119.308594 157.1875 C 119.355469 155.996094 119.398438 154.804688 119.449219 153.613281 C 117.296875 152.539062 114.808594 151.78125 111.648438 151.640625 C 113.792969 150.5625 116.945312 150.578125 118.898438 149.296875 C 118.917969 148.820312 118.9375 148.34375 118.953125 147.867188 C 115.390625 147.59375 114.027344 146.007812 111.675781 144.722656 Z M 74.9375 138.046875 C 71.742188 141.289062 83.890625 145.707031 87.757812 145.945312 C 87.738281 143.894531 88.925781 141.960938 88.6875 140.492188 C 84.09375 139.683594 78.058594 140.214844 74.9375 138.046875 Z M 114.261719 139.574219 C 114.25 139.886719 113.835938 139.773438 113.769531 140.03125 C 117.875 143.238281 120.929688 143.902344 126.515625 143.625 C 129.039062 141.796875 131.273438 139.660156 133.898438 137.945312 C 127.855469 138.484375 120.25 142.238281 114.261719 139.574219 Z M 150.363281 150.511719 C 150.191406 146.914062 149.242188 139.511719 147.015625 138.214844 C 142.347656 135.492188 134.042969 143.71875 130.523438 144.972656 C 130.90625 146.074219 131.539062 146.945312 131.589844 148.355469 C 133.667969 147.84375 136.199219 148.195312 138.003906 149.078125 C 135.921875 149.3125 133.609375 149.296875 132.226562 150.292969 C 131.722656 151.753906 132.351562 153.742188 132.015625 155.769531 C 136.964844 157.164062 142.617188 157.90625 148.875 158.089844 C 150.089844 156.511719 150.503906 153.496094 150.363281 150.511719 Z M 69.5625 141.183594 C 68.558594 140.472656 61.777344 131.648438 60.847656 132.015625 C 48.578125 136.851562 37.101562 145.21875 26.847656 153.128906 C 36.625 174.101562 40.574219 199.792969 41.269531 224.554688 C 52.46875 229.789062 62.304688 237.335938 77.503906 238.125 C 75.742188 225.6875 74.140625 214.589844 73.140625 202.882812 C 69.324219 201.269531 63.84375 202.953125 60.269531 202.382812 C 60.238281 198.078125 65.730469 200.496094 66.183594 197.601562 C 66.53125 195.414062 63.167969 195.246094 64.257812 191.800781 C 67.054688 192.816406 68.523438 195.058594 71.5 195.898438 C 74.222656 189.945312 71.464844 179.410156 71.855469 174.433594 C 71.929688 173.503906 72.320312 169.257812 74.414062 170.003906 C 76.269531 170.660156 74.308594 181.285156 74.511719 185.992188 C 74.699219 190.332031 73.988281 194.53125 75.746094 197.253906 C 90.429688 195.257812 105.355469 193.964844 121.242188 193.53125 C 117.746094 192.03125 113.597656 190.609375 109.042969 188.046875 C 106.574219 186.652344 98.792969 183.761719 98.082031 181.417969 C 96.945312 177.683594 101.066406 175.695312 101.765625 172.492188 C 94.355469 176.535156 92.910156 168.621094 91.152344 163.011719 C 89.566406 157.933594 88.660156 154.140625 88.269531 151.210938 C 81.886719 148.167969 75.058594 145.085938 69.5625 141.183594 Z M 143.875 133.082031 C 154.101562 128.125 155.941406 151.605469 151.9375 159.167969 C 152.554688 161.425781 154.6875 162.285156 155.554688 164.3125 C 149.847656 174.53125 143.511719 184.070312 137.691406 194.167969 C 142.023438 191.472656 148.207031 193.6875 153.304688 191.667969 C 155.164062 190.933594 156.511719 186.667969 157.921875 183.257812 C 161.804688 173.875 165.878906 162.046875 167.6875 153.09375 C 168.101562 151.054688 169.214844 146.609375 168.964844 144.792969 C 168.519531 141.542969 164.105469 139.128906 161.859375 137.121094 C 157.726562 133.40625 155.125 130.136719 150.808594 126.667969 C 149.058594 129.25 145.304688 130.980469 143.875 133.082031 Z M 46.179688 42.445312 C 41.304688 47.804688 42.324219 57.84375 42.917969 64.984375 C 51.722656 59.449219 63.414062 65.421875 63.300781 74.84375 C 67.503906 74.734375 64.871094 69.59375 64.109375 66.285156 C 61.625 55.476562 68.300781 43.730469 64.414062 33.84375 C 56.871094 34.417969 50.675781 37.496094 46.179688 42.445312 Z M 81.039062 11.34375 C 70.011719 14.46875 55.875 22.476562 51.339844 32.386719 C 54.851562 31.875 57.285156 30.105469 60.75 29.886719 C 62.058594 29.800781 63.773438 30.433594 65.277344 30.058594 C 68.273438 29.316406 70.804688 22.597656 73.0625 20.101562 C 75.265625 17.660156 77.914062 16.617188 79.730469 14.390625 C 80.894531 13.832031 82.617188 13.871094 82.679688 12.121094 C 82.175781 11.582031 81.644531 11.171875 81.039062 11.34375 Z M 138.453125 14.28125 C 127.003906 7.828125 107.628906 2.96875 95.449219 9.035156 C 85.625 13.9375 72.339844 22.039062 67.816406 32.304688 C 72.042969 42.214844 66.5625 51.292969 66.210938 61.355469 C 66.027344 66.707031 68.734375 71.378906 68.941406 77.207031 C 67.492188 79.59375 63.070312 79.886719 60.007812 79.726562 C 58.976562 74.570312 57.171875 68.777344 51.863281 68.195312 C 44.347656 67.371094 38.855469 73.589844 38.511719 80.085938 C 38.109375 87.726562 44.382812 100.390625 53.277344 99.507812 C 56.714844 99.171875 57.558594 95.730469 61.300781 95.761719 C 63.328125 99.808594 58.167969 101.082031 57.640625 103.972656 C 57.5 104.71875 58.066406 107.644531 58.398438 109.011719 C 60.011719 115.683594 63.613281 124.316406 67.15625 129.394531 C 71.652344 135.835938 80.492188 136.808594 90 137.441406 C 91.695312 133.785156 97.953125 134.085938 102.027344 135.042969 C 97.144531 133.105469 92.601562 128.417969 88.835938 124.269531 C 84.515625 119.507812 80.136719 114.398438 79.914062 108.175781 C 88.085938 119.507812 94.835938 129.398438 109.691406 134.386719 C 120.929688 138.152344 134.058594 132.65625 142.695312 126.59375 C 146.28125 124.074219 148.421875 120.074219 150.96875 116.417969 C 160.5 102.707031 164.949219 83.148438 163.96875 64.183594 C 163.566406 56.363281 163.585938 48.570312 160.960938 43.308594 C 158.21875 37.808594 148.9375 32.886719 143.507812 37.863281 C 142.5 32.511719 148.023438 29.207031 154.511719 31.128906 C 149.886719 25.164062 145.027344 17.988281 138.453125 14.28125 Z M 159.78125 190.726562 C 168.730469 186.28125 185.441406 178.761719 191.054688 190.742188 C 193.121094 195.160156 195.550781 202.625 196.621094 207.1875 C 198.136719 213.617188 194.980469 227.136719 188.367188 229.296875 C 182.527344 231.199219 175.707031 231.085938 168.671875 229.671875 C 167.84375 228.984375 166.921875 227.78125 166.273438 226.53125 C 161.253906 226.332031 156.546875 226.800781 152.578125 228.863281 C 152.953125 232.578125 150.4375 233.175781 148.085938 233.9375 C 146.335938 240.863281 151.578125 249.902344 150.324219 256.21875 C 149.429688 260.710938 143.894531 261.410156 139.828125 262.25 C 139.691406 264.75 140.003906 266.835938 140.28125 268.949219 C 139.347656 272.378906 135.175781 274.328125 131.226562 274.804688 C 118.21875 276.371094 98.464844 277.070312 85.953125 272.574219 C 82.464844 264.011719 79.710938 253.601562 76.804688 243.824219 C 64.601562 245.128906 54.734375 238.5625 45.429688 234.261719 C 42.207031 232.769531 37.753906 231.945312 36.550781 229.386719 C 35.382812 226.902344 35.859375 222.144531 35.566406 217.652344 C 34.832031 206.175781 34.203125 195.109375 31.171875 183.359375 C 29.808594 178.089844 27.4375 173.4375 25.78125 168.355469 C 24.253906 163.652344 21.578125 157.832031 20.882812 153.136719 C 19.847656 146.175781 26.402344 145.789062 30.597656 142.777344 C 37.074219 138.109375 42.160156 135.53125 49.175781 131.324219 C 51.253906 130.078125 57.527344 126.925781 58.238281 125.46875 C 59.65625 122.589844 55.804688 118.527344 54.773438 116.273438 C 53.144531 112.699219 52.296875 109.667969 52.0625 106.144531 C 46.175781 105.214844 41.714844 101.714844 39.019531 97.765625 C 34.5625 91.230469 31.46875 79.136719 35.324219 69.941406 C 35.628906 69.21875 37.136719 67.792969 37.363281 66.679688 C 37.800781 64.492188 36.535156 61.578125 36.457031 59.25 C 36.050781 47.292969 38.476562 36.996094 46.53125 33.390625 C 49.796875 20.378906 61.492188 16.046875 72.515625 9.582031 C 76.636719 7.164062 81.175781 5.617188 85.863281 3.894531 C 102.6875 -2.292969 128.5 -1.128906 142.460938 9.425781 C 148.382812 13.902344 157.84375 23.351562 161.230469 30.199219 C 170.171875 48.261719 169.535156 78.449219 163.28125 100.429688 C 162.441406 103.375 161.222656 107.714844 159.519531 111.257812 C 158.335938 113.730469 154.640625 118.683594 155.09375 120.871094 C 155.550781 123.128906 163.503906 129.164062 165.207031 130.804688 C 168.277344 133.765625 174.109375 137.695312 174.582031 141.429688 C 175.089844 145.40625 172.828125 150.84375 171.683594 154.679688 C 167.859375 167.480469 164.121094 179.3125 159.78125 190.726562 "/>
<path style=" stroke:none;fill-rule:evenodd;fill:rgb(96.862745%,89.411765%,80.392158%);fill-opacity:1;" d="M 100.101562 102.109375 C 100.585938 101.46875 103.253906 100.488281 106.984375 102.285156 C 106.984375 102.285156 102.5625 103.019531 102.929688 110.394531 L 101.085938 110.023438 C 101.085938 110.023438 99.179688 103.335938 100.101562 102.109375 "/>
<path style=" stroke:none;fill-rule:evenodd;fill:rgb(11.372549%,9.803922%,9.803922%);fill-opacity:1;" d="M 132.429688 165.496094 C 132.429688 166.613281 131.523438 167.523438 130.402344 167.523438 C 129.28125 167.523438 128.375 166.613281 128.375 165.496094 C 128.375 164.375 129.28125 163.46875 130.402344 163.46875 C 131.523438 163.46875 132.429688 164.375 132.429688 165.496094 "/>
<path style=" stroke:none;fill-rule:evenodd;fill:rgb(11.372549%,9.803922%,9.803922%);fill-opacity:1;" d="M 134.457031 174.894531 C 134.457031 176.015625 133.546875 176.921875 132.429688 176.921875 C 131.308594 176.921875 130.402344 176.015625 130.402344 174.894531 C 130.402344 173.773438 131.308594 172.867188 132.429688 172.867188 C 133.546875 172.867188 134.457031 173.773438 134.457031 174.894531 "/>
<path style=" stroke:none;fill-rule:nonzero;fill:rgb(0%,0%,0%);fill-opacity:1;" d="M 107.371094 641.519531 C 106.71875 641.621094 106.089844 644.007812 104.832031 645.25 C 103.914062 646.148438 102.761719 646.09375 102.148438 647.203125 C 101.917969 647.617188 101.996094 648.328125 101.730469 649.007812 C 101.21875 650.363281 99.40625 650.484375 99.40625 651.96875 C 99.398438 653.566406 100.917969 653.871094 102.230469 655.007812 C 103.253906 655.921875 103.351562 656.550781 104.59375 656.996094 C 105.65625 657.351562 107.226562 656.179688 108.648438 656.601562 C 109.8125 656.949219 110.929688 657.195312 111.191406 658.390625 C 111.425781 659.488281 111.175781 661.1875 109.765625 660.992188 C 109.289062 660.9375 107.226562 660.246094 104.6875 660.515625 C 101.625 660.859375 98.128906 661.855469 97.792969 665.25 C 97.601562 667.152344 99.960938 669.386719 102.238281 668.933594 C 103.8125 668.625 103.070312 666.777344 103.925781 665.878906 C 105.050781 664.726562 111.425781 669.894531 117.351562 669.894531 C 119.84375 669.894531 121.699219 669.265625 123.542969 667.34375 C 123.714844 667.199219 123.925781 666.886719 124.191406 666.863281 C 124.441406 666.886719 124.878906 667.132812 125.023438 667.238281 C 129.792969 671.054688 133.398438 678.710938 150.9375 678.800781 C 153.40625 678.8125 156.214844 679.984375 158.507812 682.066406 C 160.554688 683.949219 161.75 686.878906 162.910156 689.851562 C 164.667969 694.308594 167.8125 698.644531 172.582031 703.472656 C 172.84375 703.730469 176.765625 706.769531 177.082031 706.996094 C 177.128906 707.027344 177.417969 707.714844 177.320312 708.097656 C 177.203125 710.992188 176.78125 719.40625 183.085938 719.785156 C 184.628906 719.867188 184.222656 718.789062 184.222656 718.046875 C 184.21875 716.578125 183.949219 715.121094 184.726562 713.621094 C 185.789062 711.558594 182.472656 710.609375 182.570312 706.144531 C 182.640625 702.820312 179.832031 703.386719 178.40625 700.851562 C 177.585938 699.382812 176.855469 698.605469 176.90625 696.808594 C 177.230469 686.695312 174.746094 680.054688 173.511719 678.425781 C 172.546875 677.195312 171.742188 676.703125 172.628906 676.132812 C 177.890625 672.675781 179.082031 669.457031 179.082031 669.457031 C 181.878906 662.910156 184.394531 656.933594 187.867188 654.304688 C 188.566406 653.761719 190.355469 652.429688 191.453125 651.90625 C 194.695312 650.386719 196.398438 649.464844 197.339844 648.558594 C 198.824219 647.113281 200 644.105469 198.574219 642.277344 C 196.800781 640.03125 193.734375 641.816406 192.382812 642.613281 C 182.707031 648.328125 181.28125 658.402344 177.929688 664.191406 C 175.257812 668.8125 170.914062 672.210938 167.027344 672.488281 C 164.113281 672.707031 160.976562 672.117188 157.851562 670.753906 C 150.246094 667.433594 146.082031 663.152344 145.105469 662.394531 C 143.0625 660.824219 127.203125 645.332031 114.351562 644.699219 C 114.351562 644.699219 112.753906 641.519531 112.355469 641.46875 C 111.414062 641.347656 110.453125 643.363281 109.765625 643.597656 C 109.117188 643.8125 108.027344 641.410156 107.371094 641.519531 M 50.804688 733.992188 C 49.59375 733.964844 48.570312 732.976562 48.570312 731.753906 L 48.574219 691.867188 L 35.359375 691.867188 L 35.359375 735.835938 C 35.359375 737.992188 37.117188 739.75 39.265625 739.75 L 62.355469 739.75 C 64.527344 739.75 66.257812 737.992188 66.257812 735.835938 L 66.257812 691.867188 L 53.058594 691.867188 L 53.050781 731.753906 C 53.050781 732.976562 52.019531 733.964844 50.804688 733.992188 M 95.03125 691.867188 L 75.039062 691.867188 C 72.671875 691.867188 70.75 693.785156 70.75 696.160156 L 70.75 739.75 L 83.96875 739.75 L 83.96875 699.765625 C 83.976562 698.542969 84.972656 697.570312 86.203125 697.570312 C 87.4375 697.570312 88.425781 698.519531 88.453125 699.730469 L 88.453125 739.75 L 101.625 739.75 L 101.625 699.730469 C 101.636719 698.519531 102.628906 697.570312 103.859375 697.570312 C 105.085938 697.570312 106.089844 698.542969 106.101562 699.765625 L 106.101562 739.75 L 119.324219 739.75 L 119.324219 696.160156 C 119.324219 693.785156 117.394531 691.867188 115.027344 691.867188 Z M 17.683594 699.847656 C 17.691406 698.519531 16.601562 697.570312 15.445312 697.570312 L 13.203125 697.570312 L 13.203125 721.789062 L 15.445312 721.789062 C 16.613281 721.789062 17.691406 720.863281 17.683594 719.542969 Z M 26.546875 727.71875 L 13.203125 727.71875 L 13.203125 739.75 L 0 739.75 L 0 691.867188 L 26.632812 691.867188 C 29.015625 691.867188 30.875 693.792969 30.875 696.179688 L 30.875 723.40625 C 30.875 725.792969 28.945312 727.71875 26.546875 727.71875 M 164.632812 729.039062 C 161.976562 729.039062 159.75 731.324219 159.75 734.089844 C 159.75 736.863281 161.976562 739.128906 164.714844 739.128906 C 167.433594 739.128906 169.636719 736.863281 169.636719 734.089844 C 169.636719 731.316406 167.433594 729.039062 164.714844 729.039062 Z M 170.578125 734.074219 C 170.578125 737.328125 167.960938 739.96875 164.714844 739.96875 C 161.4375 739.96875 158.808594 737.34375 158.808594 734.074219 C 158.808594 730.863281 161.4375 728.183594 164.617188 728.183594 C 167.960938 728.183594 170.578125 730.785156 170.578125 734.074219 "/>
<path style=" stroke:none;fill-rule:nonzero;fill:rgb(0%,0%,0%);fill-opacity:1;" d="M 164.109375 733.699219 C 165.023438 733.699219 165.507812 733.378906 165.507812 732.726562 C 165.507812 732.152344 165.039062 731.851562 164.144531 731.851562 L 163.882812 731.851562 L 163.882812 733.699219 Z M 167.488281 737.484375 L 165.910156 737.484375 L 163.882812 734.800781 L 163.882812 737.484375 L 162.597656 737.484375 L 162.597656 730.699219 L 163.949219 730.699219 C 165.789062 730.699219 166.765625 731.390625 166.765625 732.710938 C 166.765625 733.59375 166.1875 734.375 165.382812 734.609375 L 165.289062 734.644531 Z M 141.492188 721.796875 L 141.492188 699.75 C 141.457031 698.53125 140.472656 697.59375 139.242188 697.59375 C 138.023438 697.59375 137.011719 698.570312 137.003906 699.785156 L 137.003906 721.796875 Z M 141.492188 739.75 L 141.492188 727.726562 L 137.003906 727.726562 L 137.003906 739.75 L 123.808594 739.75 L 123.808594 696.160156 C 123.808594 693.785156 125.734375 691.867188 128.101562 691.867188 L 150.394531 691.867188 C 152.769531 691.867188 154.695312 693.785156 154.695312 696.160156 L 154.695312 739.75 Z M 141.492188 739.75 "/>
</g>
</svg>
