<?xml version="1.0" encoding="UTF-8"?>
<svg xmlns="http://www.w3.org/2000/svg" xmlns:xlink="http://www.w3.org/1999/xlink" width="70px" height="292px" viewBox="0 0 70 289" version="1.1">
<defs>
<clipPath id="clip1">
  <path d="M 7 0 L 69 0 L 69 96.332031 L 7 96.332031 Z M 7 0 "/>
</clipPath>
</defs>
<g id="surface1">
<path style=" stroke:none;fill-rule:evenodd;fill:rgb(82.745099%,21.960784%,20%);fill-opacity:1;" d="M 68.808594 46.445312 C 68.808594 65.519531 53.640625 80.984375 34.929688 80.984375 C 16.21875 80.984375 1.050781 65.519531 1.050781 46.445312 C 1.050781 27.367188 16.21875 11.902344 34.929688 11.902344 C 53.640625 11.902344 68.808594 27.367188 68.808594 46.445312 "/>
<path style=" stroke:none;fill-rule:nonzero;fill:rgb(93.725491%,23.921569%,22.745098%);fill-opacity:1;" d="M 2.433594 55 C 2.433594 55 -0.0195312 18.976562 33.277344 17.949219 L 30.953125 14.089844 L 12.886719 20.132812 L 7.722656 26.054688 L 3.207031 34.671875 L 0.625 44.707031 L 1.402344 51.398438 "/>
<path style=" stroke:none;fill-rule:nonzero;fill:rgb(13.725491%,12.156863%,12.54902%);fill-opacity:1;" d="M 11.726562 22.878906 C 5.785156 28.941406 2.105469 37.3125 2.105469 46.570312 C 2.105469 55.832031 5.785156 64.203125 11.726562 70.261719 C 17.671875 76.324219 25.867188 80.066406 34.929688 80.066406 C 43.988281 80.066406 52.183594 76.324219 58.132812 70.261719 C 64.074219 64.203125 67.753906 55.832031 67.753906 46.570312 C 67.753906 37.3125 64.074219 28.941406 58.132812 22.878906 C 52.183594 16.820312 43.988281 13.078125 34.929688 13.078125 C 25.867188 13.078125 17.671875 16.820312 11.726562 22.878906 Z M 10.222656 71.730469 C 3.90625 65.289062 0 56.390625 0 46.570312 C 0 36.753906 3.90625 27.855469 10.222656 21.414062 C 16.539062 14.972656 25.28125 10.980469 34.929688 10.980469 C 44.578125 10.980469 53.320312 14.972656 59.636719 21.414062 C 65.953125 27.855469 69.859375 36.753906 69.859375 46.570312 C 69.859375 56.390625 65.953125 65.289062 59.636719 71.730469 C 53.320312 78.171875 44.578125 82.164062 34.929688 82.164062 C 25.28125 82.164062 16.539062 78.171875 10.222656 71.730469 "/>
<path style=" stroke:none;fill-rule:evenodd;fill:rgb(94.117647%,83.92157%,71.764708%);fill-opacity:1;" d="M 49.191406 46.636719 L 44.027344 47.40625 L 37.058594 48.179688 L 32.542969 48.308594 L 28.152344 48.179688 L 24.796875 47.148438 L 21.828125 43.933594 L 19.507812 37.371094 L 18.992188 35.957031 L 15.894531 34.929688 L 14.085938 31.96875 L 12.796875 27.722656 L 14.214844 23.992188 L 17.570312 22.835938 L 20.28125 24.121094 L 21.570312 26.953125 L 23.121094 26.695312 L 23.636719 26.050781 L 23.121094 23.09375 L 22.992188 19.363281 L 23.765625 14.214844 L 23.734375 11.277344 L 26.085938 7.527344 L 30.21875 4.566406 L 37.445312 1.480469 L 45.449219 2.636719 L 52.417969 7.652344 L 55.640625 12.800781 L 57.707031 16.53125 L 58.222656 25.792969 L 56.675781 33.769531 L 53.835938 40.84375 L 51.125 44.578125 "/>
<path style=" stroke:none;fill-rule:evenodd;fill:rgb(20%,31.37255%,38.039216%);fill-opacity:1;" d="M 44.800781 68.890625 L 26.347656 69.664062 L 26.347656 72.75 L 27.894531 83.558594 L 27.121094 84.457031 L 14.214844 80.082031 L 13.3125 78.539062 L 12.023438 64.003906 L 9.054688 55.253906 L 8.40625 53.195312 L 18.730469 46.121094 L 21.957031 44.835938 L 24.796875 48.308594 L 27.25 50.496094 L 30.089844 51.394531 L 31.378906 51.78125 L 32.929688 58.46875 L 34.089844 59.886719 L 37.058594 58.855469 L 34.992188 62.84375 L 46.222656 68.117188 L 44.800781 68.890625 "/>
<path style=" stroke:none;fill-rule:evenodd;fill:rgb(42.745098%,41.960785%,42.745098%);fill-opacity:1;" d="M 14.214844 23.992188 L 17.570312 22.835938 L 20.28125 24.121094 L 21.570312 26.953125 L 23.121094 26.695312 L 23.507812 25.152344 L 22.734375 22.191406 L 23.507812 15.117188 L 22.863281 11.257812 L 25.183594 8.554688 L 30.21875 4.566406 L 28.796875 2.636719 L 21.699219 6.109375 L 18.730469 8.425781 L 17.054688 12.027344 L 14.472656 15.503906 L 13.699219 19.617188 L 14.214844 23.992188 "/>
<path style=" stroke:none;fill-rule:evenodd;fill:rgb(86.274511%,85.09804%,84.705883%);fill-opacity:1;" d="M 19.507812 11.898438 C 19.507812 11.898438 21.441406 7.140625 29.183594 4.824219 C 36.929688 2.507812 29.574219 3.152344 29.574219 3.152344 L 21.183594 6.367188 L 17.957031 9.582031 L 16.539062 12.15625 L 19.507812 11.898438 "/>
<path style=" stroke:none;fill-rule:evenodd;fill:rgb(86.274511%,85.09804%,84.705883%);fill-opacity:1;" d="M 15.632812 23.09375 C 15.632812 23.09375 12.925781 14.085938 23.25 12.800781 L 22.863281 11.257812 L 15.765625 12.929688 L 13.699219 19.617188 L 14.214844 23.992188 L 15.632812 23.09375 "/>
<path style=" stroke:none;fill-rule:evenodd;fill:rgb(96.862745%,89.411765%,80.392158%);fill-opacity:1;" d="M 19.765625 35.054688 L 21.457031 33.425781 C 21.457031 33.425781 22.21875 33.511719 22.34375 34.414062 C 22.476562 35.316406 22.863281 43.417969 28.410156 47.792969 C 28.917969 48.191406 24.28125 47.148438 24.28125 47.148438 L 20.152344 40.71875 "/>
<path style=" stroke:none;fill-rule:evenodd;fill:rgb(96.862745%,89.411765%,80.392158%);fill-opacity:1;" d="M 43.511719 32.613281 C 43.511719 32.613281 43.8125 28.710938 44.867188 29.011719 C 45.917969 29.3125 45.917969 30.363281 45.917969 30.363281 C 45.917969 30.363281 43.363281 32.011719 43.511719 32.613281 "/>
<path style=" stroke:none;fill-rule:nonzero;fill:rgb(96.862745%,89.411765%,80.392158%);fill-opacity:1;" d="M 54.222656 18.332031 C 54.222656 18.332031 52.097656 18.78125 51.898438 20.648438 C 51.703125 22.515625 54.222656 21.035156 54.609375 20.90625 "/>
<path style=" stroke:none;fill-rule:nonzero;fill:rgb(96.862745%,89.411765%,80.392158%);fill-opacity:1;" d="M 38.605469 18.460938 C 38.605469 18.460938 35.765625 18.847656 35.765625 20.648438 C 35.765625 22.449219 38.992188 22.320312 39.898438 21.550781 "/>
<path style=" stroke:none;fill-rule:evenodd;fill:rgb(96.862745%,89.411765%,80.392158%);fill-opacity:1;" d="M 21.054688 26.824219 C 21.054688 26.824219 16.152344 23.863281 15.632812 26.695312 C 15.117188 29.523438 13.957031 31.585938 16.410156 34.542969 L 14.730469 34.027344 L 13.183594 30.039062 L 12.667969 26.179688 L 15.632812 23.09375 L 18.992188 23.351562 L 20.925781 24.894531 L 21.054688 26.824219 "/>
<path style=" stroke:none;fill-rule:evenodd;fill:rgb(96.862745%,89.411765%,80.392158%);fill-opacity:1;" d="M 23.378906 18.71875 C 23.378906 18.71875 25.574219 7.398438 36.671875 5.210938 C 45.808594 3.410156 50.609375 5.597656 52.417969 7.652344 C 52.417969 7.652344 44.285156 -1.992188 36.542969 0.964844 C 28.796875 3.921875 23.121094 9.328125 23.25 12.800781 C 23.46875 18.714844 23.378906 18.71875 23.378906 18.71875 "/>
<path style=" stroke:none;fill-rule:evenodd;fill:rgb(96.862745%,89.411765%,80.392158%);fill-opacity:1;" d="M 53.320312 8.941406 C 53.320312 8.941406 49.578125 8.8125 49.449219 12.15625 C 49.449219 12.15625 49.449219 12.671875 49.707031 13.1875 C 49.707031 13.1875 52.675781 9.839844 54.480469 11.640625 "/>
<path style=" stroke:none;fill-rule:evenodd;fill:rgb(96.862745%,89.411765%,80.392158%);fill-opacity:1;" d="M 36.929688 13.535156 C 36.929688 13.535156 36.289062 8.402344 31.894531 11.386719 C 29.058594 13.316406 29.316406 16.015625 29.832031 16.53125 C 30.347656 17.046875 30.207031 18.082031 30.597656 17.371094 C 30.992188 16.660156 30.863281 14.34375 32.28125 13.703125 C 33.703125 13.058594 36.03125 12.339844 36.929688 13.535156 "/>
<path style=" stroke:none;fill-rule:evenodd;fill:rgb(28.627452%,44.705883%,54.509807%);fill-opacity:1;" d="M 24.796875 48.308594 L 12.667969 53.710938 C 12.667969 53.710938 17.699219 73.652344 15.117188 79.828125 L 13.3125 79.183594 L 13.183594 71.59375 L 9.828125 57.183594 L 8.40625 53.195312 L 21.054688 44.707031 L 24.796875 48.308594 "/>
<path style=" stroke:none;fill-rule:evenodd;fill:rgb(28.627452%,44.705883%,54.509807%);fill-opacity:1;" d="M 26.046875 59.335938 L 27.765625 61.429688 L 27.765625 69.148438 L 25.699219 69.148438 C 25.699219 69.148438 25.441406 63.746094 25.441406 63.101562 C 25.441406 62.457031 25.699219 60.144531 25.699219 60.144531 "/>
<path style=" stroke:none;fill-rule:evenodd;fill:rgb(28.627452%,44.705883%,54.509807%);fill-opacity:1;" d="M 26.085938 70.308594 L 20.28125 70.5625 L 21.957031 71.722656 L 26.085938 72.367188 "/>
<path style=" stroke:none;fill-rule:evenodd;fill:rgb(20%,31.37255%,38.039216%);fill-opacity:1;" d="M 45.964844 69.019531 L 50.738281 68.890625 L 51.898438 80.726562 L 46.996094 81.371094 L 45.964844 69.019531 "/>
<path style=" stroke:none;fill-rule:evenodd;fill:rgb(20%,31.37255%,38.039216%);fill-opacity:1;" d="M 47.253906 69.019531 L 54.480469 68.632812 C 54.480469 68.632812 57.449219 61.171875 57.449219 60.789062 C 57.449219 60.402344 60.03125 49.980469 60.03125 49.980469 L 54.222656 43.933594 L 53.0625 42.90625 L 49.964844 45.992188 L 49.964844 57.957031 L 47.253906 69.019531 "/>
<path style=" stroke:none;fill-rule:evenodd;fill:rgb(28.627452%,44.705883%,54.509807%);fill-opacity:1;" d="M 50.480469 68.121094 L 45.964844 69.019531 L 46.609375 72.621094 C 48.285156 73.394531 51.125 71.335938 51.125 71.335938 "/>
<path style=" stroke:none;fill-rule:evenodd;fill:rgb(28.627452%,44.705883%,54.509807%);fill-opacity:1;" d="M 50.609375 45.605469 L 59.644531 52.296875 L 59.902344 49.207031 L 53.0625 42.90625 L 50.609375 45.605469 "/>
<path style=" stroke:none;fill-rule:evenodd;fill:rgb(100%,100%,100%);fill-opacity:1;" d="M 30.566406 94.367188 L 27.894531 83.558594 L 26.566406 75.582031 L 26.347656 69.664062 L 38.441406 69.019531 L 45.964844 69.019531 L 45.28125 82.53125 L 46.441406 92.949219 L 46.3125 94.878906 L 36.503906 95.652344 L 30.566406 94.367188 "/>
<path style=" stroke:none;fill-rule:evenodd;fill:rgb(86.274511%,85.09804%,84.705883%);fill-opacity:1;" d="M 44.285156 68.890625 C 44.285156 68.890625 43.640625 82.269531 45.574219 91.792969 C 45.574219 91.792969 41.703125 94.234375 36.027344 94.878906 L 46.867188 94.492188 L 48.15625 93.722656 L 46.609375 72.621094 L 46.222656 68.117188 "/>
<path style=" stroke:none;fill-rule:evenodd;fill:rgb(100%,100%,100%);fill-opacity:1;" d="M 52.121094 79.699219 L 57.152344 78.285156 L 66.703125 77.769531 L 68.121094 73.394531 L 65.542969 65.804688 L 62.574219 65.417969 L 58.441406 66.707031 L 54.480469 68.632812 L 52.378906 68.25 L 50.738281 68.890625 "/>
<path style=" stroke:none;fill-rule:evenodd;fill:rgb(86.274511%,85.09804%,84.705883%);fill-opacity:1;" d="M 52.03125 77.125 C 52.03125 77.125 55.382812 75.582031 55.902344 75.710938 L 54.480469 68.632812 L 56.160156 67.992188 C 56.160156 67.992188 57.320312 74.679688 57.320312 75.453125 C 57.320312 75.453125 64.546875 75.839844 65.191406 75.839844 C 65.191406 75.839844 66.742188 72.878906 66.355469 69.792969 L 67.773438 73.910156 L 67.902344 76.226562 L 65.839844 79.3125 L 63.515625 79.828125 L 59.644531 79.699219 L 58.351562 78.027344 L 53.835938 78.667969 L 52.417969 79.183594 "/>
<path style=" stroke:none;fill-rule:nonzero;fill:rgb(100%,100%,100%);fill-opacity:1;" d="M 46.957031 67.992188 L 44.117188 60.789062 L 41.148438 56.542969 C 41.148438 56.542969 41.792969 54.742188 42.699219 54.742188 C 43.601562 54.742188 45.667969 54.742188 45.667969 54.742188 L 48.507812 55.769531 L 48.25 60.53125 L 46.957031 67.992188 "/>
<path style=" stroke:none;fill-rule:evenodd;fill:rgb(86.274511%,85.09804%,84.705883%);fill-opacity:1;" d="M 47.511719 65.546875 C 47.511719 65.546875 43.898438 58.597656 43.898438 57.570312 C 43.898438 57.570312 44.542969 56.027344 45.449219 56.414062 C 46.351562 56.796875 48.285156 57.828125 48.285156 57.828125 L 48.285156 55.382812 L 43.898438 54.484375 L 40.929688 54.867188 L 45.964844 66.703125 L 46.996094 66.832031 "/>
<path style=" stroke:none;fill-rule:nonzero;fill:rgb(100%,100%,100%);fill-opacity:1;" d="M 31.726562 48.566406 L 28.152344 48.179688 L 24.796875 47.148438 L 24.796875 48.308594 L 26.4375 50.109375 L 31.601562 52.425781 "/>
<path style=" stroke:none;fill-rule:evenodd;fill:rgb(86.274511%,85.09804%,84.705883%);fill-opacity:1;" d="M 25.960938 48.953125 C 25.960938 48.953125 29.960938 50.625 31.25 50.238281 L 31.378906 51.78125 L 27.765625 51.011719 L 25.574219 49.46875 L 25.960938 48.953125 "/>
<path style=" stroke:none;fill-rule:evenodd;fill:rgb(82.745099%,21.960784%,20%);fill-opacity:1;" d="M 52.105469 55.179688 C 49.914062 55.113281 47.9375 54.855469 46.203125 54.367188 C 46.324219 53.660156 46.101562 52.96875 46.28125 52.457031 C 46.761719 52.109375 47.570312 52.117188 48.300781 52.035156 C 47.671875 51.726562 46.785156 51.601562 46.054688 51.78125 C 46.039062 51.289062 45.816406 50.984375 45.683594 50.601562 C 46.914062 50.164062 49.820312 47.292969 51.457031 48.242188 C 52.234375 48.695312 52.566406 51.277344 52.628906 52.535156 C 52.675781 53.574219 52.53125 54.628906 52.105469 55.179688 "/>
<path style="fill:none;stroke-width:2;stroke-linecap:butt;stroke-linejoin:miter;stroke:rgb(82.745099%,21.960784%,20%);stroke-opacity:1;stroke-miterlimit:4;" d="M 134.580982 106.629239 C 128.920893 106.801298 123.815714 107.469291 119.336071 108.734429 C 119.648839 110.566349 119.07375 112.357785 119.537857 113.683651 C 120.778839 114.584429 122.867321 114.564187 124.754018 114.77673 C 123.129643 115.576298 120.839375 115.900173 118.952679 115.434602 C 118.912321 116.709862 118.337232 117.499308 117.994196 118.491176 C 121.172321 119.62474 128.67875 127.063754 132.906161 124.604325 C 134.913929 123.430277 135.771518 116.740225 135.932946 113.481228 C 136.054018 110.789014 135.680714 108.056315 134.580982 106.629239 Z M 134.580982 106.629239 " transform="matrix(0.387168,0,0,-0.385951,0,96.333333)"/>
<path style=" stroke:none;fill-rule:evenodd;fill:rgb(82.745099%,21.960784%,20%);fill-opacity:1;" d="M 41.632812 51.609375 C 41.628906 51.777344 41.621094 51.941406 41.613281 52.109375 C 40.929688 52.558594 39.828125 52.550781 39.078125 52.929688 C 40.183594 52.976562 41.054688 53.242188 41.808594 53.617188 C 41.789062 54.03125 41.773438 54.449219 41.757812 54.863281 C 40.503906 55.71875 39.359375 56.992188 37.882812 57.796875 C 37.1875 58.171875 34.738281 59.148438 33.996094 58.976562 C 33.574219 58.878906 33.539062 58.359375 33.371094 57.871094 C 33.011719 56.824219 32.1875 55.152344 32.117188 53.574219 C 32.027344 51.582031 31.824219 48.238281 33.980469 48.648438 C 35.71875 48.980469 37.742188 49.777344 39.085938 50.511719 C 39.910156 50.960938 40.386719 51.515625 41.632812 51.609375 "/>
<path style="fill:none;stroke-width:2;stroke-linecap:butt;stroke-linejoin:miter;stroke:rgb(82.745099%,21.960784%,20%);stroke-opacity:1;stroke-miterlimit:4;" d="M 107.531607 115.879931 C 107.521518 115.444723 107.501339 115.019637 107.481161 114.584429 C 105.715536 113.420502 102.870357 113.440744 100.933214 112.458997 C 103.788482 112.337543 106.038393 111.649308 107.985625 110.677682 C 107.935179 109.604844 107.894821 108.521886 107.854464 107.449048 C 104.615804 105.232526 101.659643 101.933045 97.845893 99.848097 C 96.05 98.876471 89.724018 96.346194 87.807054 96.791522 C 86.717411 97.04455 86.626607 98.390657 86.192768 99.655796 C 85.264554 102.368253 83.135714 106.700087 82.954107 110.789014 C 82.722054 115.950779 82.197411 124.614446 87.766696 123.55173 C 92.256429 122.691436 97.482679 120.62673 100.953393 118.723962 C 103.082232 117.560035 104.313125 116.122837 107.531607 115.879931 Z M 107.531607 115.879931 " transform="matrix(0.387168,0,0,-0.385951,0,96.333333)"/>
<path style=" stroke:none;fill-rule:evenodd;fill:rgb(82.745099%,21.960784%,20%);fill-opacity:1;" d="M 42.878906 53.988281 C 42.6875 52.902344 42.464844 52.59375 42.550781 51.644531 C 45.457031 49.714844 46.003906 54.964844 42.878906 53.988281 "/>
<path style="fill:none;stroke-width:2;stroke-linecap:butt;stroke-linejoin:miter;stroke:rgb(82.745099%,21.960784%,20%);stroke-opacity:1;stroke-miterlimit:4;" d="M 110.750089 109.716176 C 110.255714 112.529844 109.680625 113.329412 109.902589 115.788841 C 117.409018 120.788668 118.821518 107.1859 110.750089 109.716176 Z M 110.750089 109.716176 " transform="matrix(0.387168,0,0,-0.385951,0,96.333333)"/>
<path style=" stroke:none;fill-rule:evenodd;fill:rgb(93.725491%,23.921569%,22.745098%);fill-opacity:1;" d="M 47.085938 54.871094 C 47.085938 54.871094 46.183594 53.582031 46.828125 53.199219 C 47.472656 52.8125 48.117188 53.199219 48.507812 52.554688 C 48.894531 51.910156 48.507812 51.527344 48.632812 50.753906 C 48.765625 49.980469 49.410156 49.851562 50.054688 49.722656 C 50.699219 49.597656 52.507812 49.335938 52.765625 49.980469 L 51.992188 47.667969 L 50.441406 47.152344 L 45.535156 49.980469 L 45.28125 51.398438 L 45.28125 54.226562 "/>
<path style=" stroke:none;fill-rule:evenodd;fill:rgb(93.725491%,23.921569%,22.745098%);fill-opacity:1;" d="M 33.535156 59.117188 C 33.378906 57.109375 33.214844 55.101562 33.035156 53.097656 C 32.761719 50.101562 33.753906 50.625 36.359375 50.625 C 36.757812 50.625 38.808594 51.097656 38.957031 51.398438 C 39.660156 52.828125 37.777344 52.511719 39.765625 53.589844 C 41.445312 54.503906 44.40625 53.039062 43.730469 51.011719 C 43.351562 50.558594 41.753906 50.871094 41.179688 50.574219 C 40.171875 50.054688 39.164062 49.53125 38.15625 49.011719 C 36.875 48.347656 33.910156 47.378906 32.542969 48.308594 C 29.078125 50.65625 32.761719 56.527344 33.996094 58.976562 "/>
<path style=" stroke:none;fill-rule:evenodd;fill:rgb(13.725491%,12.156863%,12.54902%);fill-opacity:1;" d="M 36.929688 13.535156 C 33.414062 12.71875 31.667969 15 30.597656 17.371094 C 29.648438 17.140625 30.027344 15.851562 30.265625 15.191406 C 30.898438 13.464844 33.433594 11.167969 35.507812 11.480469 C 36.398438 11.613281 37.605469 12.425781 36.929688 13.535156 "/>
<path style=" stroke:none;fill-rule:evenodd;fill:rgb(13.725491%,12.156863%,12.54902%);fill-opacity:1;" d="M 54.070312 17.527344 C 54.125 17.53125 54.183594 17.53125 54.238281 17.535156 C 55.03125 19.179688 55.71875 20.921875 56.722656 22.375 C 56.050781 23.9375 51.636719 25.316406 51.703125 22.515625 C 52.660156 22.101562 54.304688 22.429688 55.152344 21.898438 C 54.664062 20.5625 53.957031 19.421875 54.070312 17.527344 "/>
<path style=" stroke:none;fill-rule:evenodd;fill:rgb(13.725491%,12.156863%,12.54902%);fill-opacity:1;" d="M 38.734375 17.570312 C 39.484375 18.949219 39.730469 20.394531 40.804688 21.4375 C 41.285156 21.90625 42.226562 22.480469 41.761719 23.78125 C 41.652344 24.089844 40.855469 24.777344 40.398438 24.910156 C 38.722656 25.402344 34.816406 25.011719 36.136719 22.929688 C 37.523438 22.996094 39.386719 23.828125 40.425781 22.824219 C 39.628906 21.554688 38.210938 19.046875 38.734375 17.570312 "/>
<path style=" stroke:none;fill-rule:evenodd;fill:rgb(13.725491%,12.156863%,12.54902%);fill-opacity:1;" d="M 53.441406 31.578125 C 50.917969 33.195312 48.101562 34.953125 43.96875 34.542969 C 43.085938 33.777344 42.75 32.074219 43.605469 30.949219 C 44.054688 31.714844 43.773438 33.121094 45.019531 33.335938 C 47.363281 33.734375 50.09375 31.902344 51.78125 31.265625 C 52.828125 29.503906 51.691406 28.859375 50.75 27.726562 C 48.820312 25.40625 46.230469 22.53125 46.324219 19.0625 C 47.105469 18.496094 47.171875 19.921875 47.285156 20.179688 C 48.292969 22.53125 50.828125 25.539062 52.679688 27.550781 C 53.132812 28.046875 53.882812 28.523438 53.964844 28.851562 C 54.203125 29.800781 53.339844 30.945312 53.441406 31.578125 "/>
<path style=" stroke:none;fill-rule:evenodd;fill:rgb(13.725491%,12.156863%,12.54902%);fill-opacity:1;" d="M 20.171875 29.878906 C 19.382812 29.425781 19.191406 27.445312 18.265625 27.386719 C 16.9375 27.308594 17.179688 29.960938 17.183594 31.511719 C 16.269531 30.683594 16.109375 28.136719 16.78125 26.832031 C 16.015625 26.457031 15.675781 27.246094 15.25 27.523438 C 15.796875 23.574219 21.046875 25.691406 20.171875 29.878906 "/>
<path style=" stroke:none;fill-rule:evenodd;fill:rgb(13.725491%,12.156863%,12.54902%);fill-opacity:1;" d="M 55.046875 33.222656 C 53.875 35.449219 52.210938 37.90625 48.765625 37.976562 C 48.695312 37.257812 48.640625 36.164062 48.769531 35.726562 C 51.402344 35.476562 53.03125 34.140625 55.046875 33.222656 "/>
<path style=" stroke:none;fill-rule:evenodd;fill:rgb(13.725491%,12.156863%,12.54902%);fill-opacity:1;" d="M 38.535156 34.667969 C 40.734375 35.820312 44.773438 35.945312 47.761719 35.855469 C 47.921875 36.507812 47.917969 37.316406 47.921875 38.113281 C 44.082031 38.300781 39.539062 37.355469 38.535156 34.667969 "/>
<path style=" stroke:none;fill-rule:evenodd;fill:rgb(13.725491%,12.156863%,12.54902%);fill-opacity:1;" d="M 38.117188 36.816406 C 39.636719 40.621094 44.859375 40.183594 49.265625 40.078125 C 49.074219 40.570312 48.652344 41.15625 48.128906 41.367188 C 46.71875 41.941406 42.824219 42.375 40.863281 41.335938 C 39.621094 40.679688 38.820312 39.1875 38.140625 38.316406 C 37.8125 37.894531 36.171875 36.820312 38.117188 36.816406 "/>
<path style=" stroke:none;fill-rule:evenodd;fill:rgb(50.588238%,69.01961%,76.862746%);fill-opacity:1;" d="M 53.257812 57.804688 C 51.472656 60.851562 49.765625 63.980469 47.648438 66.667969 C 48.535156 64.066406 48.917969 59.710938 49.050781 56.394531 C 50.90625 55.527344 52.496094 56.589844 53.257812 57.804688 "/>
<path style=" stroke:none;fill-rule:evenodd;fill:rgb(13.725491%,12.156863%,12.54902%);fill-opacity:1;" d="M 62.859375 68.753906 C 60.859375 69.152344 59.457031 71.085938 57.507812 70.964844 C 58.578125 69.457031 60.457031 68.824219 62.859375 68.753906 "/>
<path style=" stroke:none;fill-rule:evenodd;fill:rgb(13.725491%,12.156863%,12.54902%);fill-opacity:1;" d="M 63.738281 71.867188 C 62.109375 72.039062 60.199219 72.304688 58.546875 72.167969 C 59.328125 70.976562 62.339844 71.390625 63.738281 71.867188 "/>
<path style=" stroke:none;fill-rule:evenodd;fill:rgb(13.725491%,12.156863%,12.54902%);fill-opacity:1;" d="M 64.300781 74.554688 C 62.472656 74.59375 60.199219 74.558594 58.460938 74.414062 C 59.488281 73.3125 63.117188 74.003906 64.300781 74.554688 "/>
<path style=" stroke:none;fill-rule:evenodd;fill:rgb(86.274511%,85.09804%,84.705883%);fill-opacity:1;" d="M 49.8125 81.90625 C 50.078125 84.199219 50.988281 86.519531 50.875 89.027344 C 49.863281 89.367188 49.28125 89.667969 47.925781 89.664062 C 47.828125 87.53125 47.542969 84.273438 47.628906 82.238281 C 48.296875 82.285156 49.277344 81.765625 49.8125 81.90625 "/>
<path style=" stroke:none;fill-rule:evenodd;fill:rgb(94.117647%,83.92157%,71.764708%);fill-opacity:1;" d="M 46.863281 48.148438 C 45.945312 48.746094 45.164062 49.492188 44.28125 50.128906 C 42.324219 50.226562 41.257812 49.996094 39.820312 48.875 C 39.84375 48.785156 39.988281 48.824219 39.992188 48.714844 C 42.085938 49.644531 44.75 48.335938 46.863281 48.148438 "/>
<path style=" stroke:none;fill-rule:evenodd;fill:rgb(50.588238%,69.01961%,76.862746%);fill-opacity:1;" d="M 35.867188 62.378906 C 36.445312 59.894531 38.699219 58.609375 40.746094 57.238281 C 42.859375 59.914062 44.144531 63.351562 45.5625 66.667969 C 42.21875 65.664062 38.800781 64.035156 35.867188 62.378906 "/>
<g clip-path="url(#clip1)" clip-rule="nonzero">
<path style=" stroke:none;fill-rule:evenodd;fill:rgb(13.725491%,12.156863%,12.54902%);fill-opacity:1;" d="M 47.628906 82.238281 C 47.542969 84.273438 47.828125 87.53125 47.925781 89.664062 C 49.28125 89.667969 49.863281 89.367188 50.875 89.027344 C 50.988281 86.519531 50.078125 84.199219 49.8125 81.90625 C 49.277344 81.765625 48.296875 82.285156 47.628906 82.238281 Z M 26.523438 70.679688 C 27.417969 78.871094 28.710938 85.757812 31.085938 93.011719 C 36.355469 94.605469 42.710938 94.746094 47.367188 93.304688 C 46.511719 89.210938 46.886719 84.226562 46.386719 79.859375 C 46.007812 76.578125 46.203125 73.273438 45.683594 69.921875 C 40.039062 68.75 32.0625 69.648438 26.523438 70.679688 Z M 47.019531 69.972656 C 46.972656 73.492188 47.175781 76.960938 47.445312 80.484375 C 48.800781 80.28125 49.722656 80.144531 50.980469 79.871094 C 50.570312 76.480469 50.621094 72.664062 49.789062 69.664062 C 48.828125 69.671875 47.980469 69.652344 47.019531 69.972656 Z M 53.894531 69.40625 C 53.25 69.257812 52.5 69.402344 51.886719 69.410156 C 52.175781 72.28125 52.875 75.445312 53.125 78.453125 C 54.089844 78.484375 54.605469 78.03125 55.402344 77.878906 C 55.445312 75.234375 55.171875 71.59375 53.894531 69.40625 Z M 64.300781 78.886719 C 66.316406 78.398438 67.582031 75.9375 67.019531 73.410156 C 66.640625 71.714844 65.96875 68.515625 65.246094 67.429688 C 64.714844 66.625 63.269531 65.574219 62.117188 66.308594 C 60.242188 67.507812 56.933594 67.855469 55.566406 69.304688 C 56.253906 71.582031 56.464844 74.710938 56.75 77.59375 C 59.09375 77.738281 61.976562 76.953125 63.925781 77.789062 C 62.566406 78.230469 60.800781 78.230469 59.625 78.871094 C 60.585938 79.335938 62.835938 79.242188 64.300781 78.886719 Z M 45.5625 66.667969 C 44.144531 63.351562 42.859375 59.914062 40.746094 57.238281 C 38.699219 58.609375 36.445312 59.894531 35.867188 62.378906 C 38.800781 64.035156 42.21875 65.664062 45.5625 66.667969 Z M 49.050781 56.394531 C 48.917969 59.710938 48.535156 64.066406 47.648438 66.667969 C 49.765625 63.980469 51.472656 60.851562 53.257812 57.804688 C 52.496094 56.589844 50.90625 55.527344 49.050781 56.394531 Z M 45.09375 54.992188 C 44.292969 54.90625 43.613281 55.910156 42.570312 55.476562 C 42.332031 55.738281 42.113281 56.027344 41.871094 56.28125 C 44.171875 59.050781 45.21875 62.972656 47 66.226562 C 47.953125 63.101562 47.84375 59.679688 48.054688 56.273438 C 46.742188 56.355469 46.015625 55.089844 45.09375 54.992188 Z M 42.550781 51.644531 C 42.464844 52.59375 42.6875 52.902344 42.878906 53.988281 C 46.003906 54.964844 45.457031 49.714844 42.550781 51.644531 Z M 39.085938 50.511719 C 37.742188 49.777344 35.71875 48.980469 33.980469 48.648438 C 31.824219 48.238281 32.027344 51.582031 32.117188 53.574219 C 32.1875 55.152344 33.011719 56.824219 33.371094 57.871094 C 33.539062 58.359375 33.574219 58.878906 33.996094 58.976562 C 34.738281 59.148438 37.1875 58.171875 37.882812 57.796875 C 39.359375 56.992188 40.503906 55.71875 41.757812 54.863281 C 41.773438 54.449219 41.789062 54.03125 41.808594 53.617188 C 41.054688 53.242188 40.183594 52.976562 39.078125 52.929688 C 39.828125 52.550781 40.929688 52.558594 41.613281 52.109375 C 41.621094 51.941406 41.628906 51.777344 41.632812 51.609375 C 40.386719 51.515625 39.910156 50.960938 39.085938 50.511719 Z M 26.226562 48.183594 C 25.109375 49.316406 29.363281 50.855469 30.714844 50.941406 C 30.707031 50.222656 31.125 49.550781 31.042969 49.035156 C 29.433594 48.753906 27.320312 48.941406 26.226562 48.183594 Z M 39.992188 48.714844 C 39.988281 48.824219 39.84375 48.785156 39.820312 48.875 C 41.257812 49.996094 42.324219 50.226562 44.28125 50.128906 C 45.164062 49.492188 45.945312 48.746094 46.863281 48.148438 C 44.75 48.335938 42.085938 49.644531 39.992188 48.714844 Z M 52.628906 52.535156 C 52.566406 51.277344 52.234375 48.695312 51.457031 48.242188 C 49.820312 47.292969 46.914062 50.164062 45.683594 50.601562 C 45.816406 50.984375 46.039062 51.289062 46.054688 51.78125 C 46.785156 51.601562 47.671875 51.726562 48.300781 52.035156 C 47.570312 52.117188 46.761719 52.109375 46.28125 52.457031 C 46.101562 52.96875 46.324219 53.660156 46.203125 54.367188 C 47.9375 54.855469 49.914062 55.113281 52.105469 55.179688 C 52.53125 54.628906 52.675781 53.574219 52.628906 52.535156 Z M 24.347656 49.277344 C 23.996094 49.027344 21.621094 45.949219 21.296875 46.078125 C 17.003906 47.765625 12.984375 50.6875 9.398438 53.445312 C 12.820312 60.765625 14.199219 69.734375 14.445312 78.378906 C 18.363281 80.203125 21.808594 82.839844 27.125 83.113281 C 26.511719 78.773438 25.949219 74.898438 25.597656 70.8125 C 24.261719 70.25 22.34375 70.835938 21.09375 70.636719 C 21.082031 69.136719 23.003906 69.980469 23.164062 68.96875 C 23.285156 68.207031 22.109375 68.148438 22.492188 66.945312 C 23.46875 67.300781 23.984375 68.082031 25.027344 68.375 C 25.976562 66.296875 25.011719 62.621094 25.148438 60.882812 C 25.175781 60.558594 25.3125 59.078125 26.046875 59.335938 C 26.695312 59.566406 26.007812 63.273438 26.078125 64.917969 C 26.144531 66.433594 25.894531 67.898438 26.511719 68.847656 C 31.652344 68.152344 36.875 67.699219 42.433594 67.546875 C 41.210938 67.023438 39.757812 66.53125 38.164062 65.632812 C 37.300781 65.148438 34.578125 64.140625 34.328125 63.320312 C 33.929688 62.015625 35.371094 61.324219 35.617188 60.207031 C 33.023438 61.617188 32.519531 58.855469 31.902344 56.894531 C 31.347656 55.125 31.03125 53.800781 30.894531 52.777344 C 28.660156 51.714844 26.269531 50.640625 24.347656 49.277344 Z M 50.355469 46.449219 C 53.933594 44.71875 54.578125 52.914062 53.175781 55.554688 C 53.394531 56.34375 54.140625 56.644531 54.445312 57.351562 C 52.445312 60.917969 50.230469 64.246094 48.191406 67.769531 C 49.707031 66.828125 51.871094 67.601562 53.65625 66.898438 C 54.308594 66.640625 54.78125 65.152344 55.273438 63.964844 C 56.632812 60.6875 58.058594 56.558594 58.691406 53.433594 C 58.835938 52.722656 59.226562 51.171875 59.136719 50.539062 C 58.980469 49.402344 57.4375 48.5625 56.652344 47.859375 C 55.203125 46.5625 54.292969 45.421875 52.78125 44.210938 C 52.171875 45.113281 50.855469 45.71875 50.355469 46.449219 Z M 16.164062 14.816406 C 14.457031 16.683594 14.8125 20.1875 15.019531 22.683594 C 18.101562 20.75 22.195312 22.835938 22.15625 26.121094 C 23.625 26.085938 22.703125 24.289062 22.4375 23.136719 C 21.570312 19.363281 23.90625 15.261719 22.546875 11.8125 C 19.90625 12.011719 17.734375 13.085938 16.164062 14.816406 Z M 28.363281 3.960938 C 24.503906 5.050781 19.554688 7.84375 17.96875 11.304688 C 19.199219 11.125 20.050781 10.507812 21.261719 10.429688 C 21.71875 10.402344 22.320312 10.621094 22.847656 10.492188 C 23.894531 10.234375 24.78125 7.886719 25.574219 7.015625 C 26.34375 6.164062 27.269531 5.800781 27.90625 5.023438 C 28.3125 4.828125 28.914062 4.839844 28.9375 4.230469 C 28.761719 4.042969 28.574219 3.898438 28.363281 3.960938 Z M 48.457031 4.984375 C 44.453125 2.730469 37.671875 1.035156 33.40625 3.152344 C 29.96875 4.863281 25.320312 7.691406 23.734375 11.277344 C 25.214844 14.734375 23.296875 17.902344 23.175781 21.414062 C 23.109375 23.285156 24.054688 24.914062 24.128906 26.949219 C 23.621094 27.78125 22.074219 27.882812 21.003906 27.828125 C 20.640625 26.027344 20.011719 24.003906 18.152344 23.800781 C 15.523438 23.515625 13.597656 25.683594 13.480469 27.953125 C 13.339844 30.621094 15.535156 35.039062 18.648438 34.730469 C 19.851562 34.613281 20.144531 33.414062 21.457031 33.425781 C 22.164062 34.835938 20.359375 35.28125 20.175781 36.289062 C 20.125 36.550781 20.324219 37.570312 20.4375 38.046875 C 21.003906 40.378906 22.265625 43.390625 23.503906 45.164062 C 25.078125 47.410156 28.171875 47.75 31.5 47.972656 C 32.09375 46.695312 34.285156 46.800781 35.710938 47.132812 C 34 46.457031 32.410156 44.820312 31.09375 43.375 C 29.582031 41.710938 28.046875 39.929688 27.96875 37.757812 C 30.828125 41.710938 33.191406 45.164062 38.390625 46.90625 C 42.324219 48.21875 46.921875 46.300781 49.945312 44.183594 C 51.199219 43.304688 51.945312 41.910156 52.839844 40.632812 C 56.175781 35.847656 57.730469 29.019531 57.390625 22.402344 C 57.25 19.671875 57.253906 16.953125 56.335938 15.117188 C 55.375 13.195312 52.128906 11.476562 50.226562 13.214844 C 49.875 11.347656 51.808594 10.195312 54.078125 10.867188 C 52.460938 8.78125 50.761719 6.277344 48.457031 4.984375 Z M 55.925781 66.570312 C 59.054688 65.019531 64.90625 62.394531 66.867188 66.574219 C 67.59375 68.117188 68.441406 70.722656 68.816406 72.316406 C 69.347656 74.558594 68.242188 79.277344 65.929688 80.03125 C 63.882812 80.695312 61.496094 80.65625 59.035156 80.164062 C 58.746094 79.921875 58.421875 79.503906 58.195312 79.066406 C 56.4375 79 54.792969 79.160156 53.402344 79.882812 C 53.535156 81.175781 52.652344 81.386719 51.828125 81.652344 C 51.21875 84.070312 53.054688 87.226562 52.613281 89.429688 C 52.300781 90.996094 50.363281 91.242188 48.9375 91.535156 C 48.890625 92.40625 49 93.136719 49.097656 93.871094 C 48.773438 95.070312 47.3125 95.75 45.929688 95.917969 C 41.375 96.460938 34.460938 96.707031 30.085938 95.136719 C 28.863281 92.148438 27.898438 88.515625 26.882812 85.101562 C 22.609375 85.558594 19.15625 83.265625 15.902344 81.765625 C 14.773438 81.242188 13.214844 80.957031 12.792969 80.0625 C 12.382812 79.195312 12.550781 77.535156 12.449219 75.96875 C 12.191406 71.964844 11.972656 68.101562 10.910156 64 C 10.433594 62.160156 9.601562 60.535156 9.023438 58.761719 C 8.488281 57.121094 7.550781 55.089844 7.308594 53.449219 C 6.945312 51.019531 9.242188 50.886719 10.707031 49.832031 C 12.976562 48.207031 14.757812 47.304688 17.210938 45.835938 C 17.9375 45.402344 20.132812 44.300781 20.382812 43.792969 C 20.878906 42.789062 19.53125 41.371094 19.171875 40.582031 C 18.601562 39.335938 18.304688 38.277344 18.222656 37.046875 C 16.160156 36.722656 14.601562 35.5 13.65625 34.121094 C 12.097656 31.84375 11.015625 27.621094 12.363281 24.410156 C 12.46875 24.160156 12.996094 23.664062 13.078125 23.273438 C 13.230469 22.507812 12.789062 21.492188 12.757812 20.679688 C 12.617188 16.507812 13.46875 12.914062 16.285156 11.65625 C 17.429688 7.113281 21.523438 5.601562 25.378906 3.34375 C 26.824219 2.5 28.410156 1.960938 30.050781 1.359375 C 35.941406 -0.800781 44.972656 -0.394531 49.859375 3.289062 C 51.933594 4.851562 55.246094 8.152344 56.429688 10.539062 C 59.558594 16.84375 59.335938 27.382812 57.148438 35.054688 C 56.855469 36.082031 56.425781 37.597656 55.832031 38.832031 C 55.417969 39.695312 54.125 41.425781 54.28125 42.1875 C 54.441406 42.976562 57.226562 45.082031 57.824219 45.65625 C 58.898438 46.6875 60.9375 48.058594 61.105469 49.363281 C 61.28125 50.75 60.488281 52.648438 60.089844 53.988281 C 58.75 58.457031 57.441406 62.585938 55.925781 66.570312 "/>
</g>
<path style=" stroke:none;fill-rule:evenodd;fill:rgb(96.862745%,89.411765%,80.392158%);fill-opacity:1;" d="M 35.035156 35.640625 C 35.207031 35.414062 36.136719 35.074219 37.445312 35.699219 C 37.445312 35.699219 35.898438 35.957031 36.027344 38.53125 L 35.378906 38.402344 C 35.378906 38.402344 34.714844 36.066406 35.035156 35.640625 "/>
<path style=" stroke:none;fill-rule:evenodd;fill:rgb(11.372549%,9.803922%,9.803922%);fill-opacity:1;" d="M 46.351562 57.761719 C 46.351562 58.15625 46.03125 58.472656 45.640625 58.472656 C 45.25 58.472656 44.929688 58.15625 44.929688 57.761719 C 44.929688 57.371094 45.25 57.054688 45.640625 57.054688 C 46.03125 57.054688 46.351562 57.371094 46.351562 57.761719 "/>
<path style=" stroke:none;fill-rule:evenodd;fill:rgb(11.372549%,9.803922%,9.803922%);fill-opacity:1;" d="M 47.058594 61.042969 C 47.058594 61.433594 46.742188 61.753906 46.351562 61.753906 C 45.957031 61.753906 45.640625 61.433594 45.640625 61.042969 C 45.640625 60.652344 45.957031 60.335938 46.351562 60.335938 C 46.742188 60.335938 47.058594 60.652344 47.058594 61.042969 "/>
<path style=" stroke:none;fill-rule:nonzero;fill:rgb(0%,0%,0%);fill-opacity:1;" d="M 37.578125 223.910156 C 37.351562 223.945312 37.132812 224.78125 36.691406 225.214844 C 36.371094 225.527344 35.964844 225.507812 35.753906 225.894531 C 35.671875 226.039062 35.699219 226.289062 35.605469 226.527344 C 35.425781 227 34.792969 227.042969 34.792969 227.558594 C 34.789062 228.117188 35.320312 228.222656 35.78125 228.621094 C 36.136719 228.9375 36.171875 229.160156 36.609375 229.3125 C 36.980469 229.4375 37.53125 229.027344 38.027344 229.175781 C 38.433594 229.296875 38.824219 229.382812 38.917969 229.800781 C 39 230.183594 38.910156 230.777344 38.417969 230.707031 C 38.25 230.691406 37.527344 230.449219 36.640625 230.542969 C 35.570312 230.664062 34.34375 231.007812 34.226562 232.195312 C 34.160156 232.859375 34.988281 233.640625 35.785156 233.480469 C 36.335938 233.371094 36.074219 232.726562 36.375 232.414062 C 36.769531 232.011719 39 233.816406 41.074219 233.816406 C 41.945312 233.816406 42.59375 233.597656 43.238281 232.925781 C 43.300781 232.875 43.375 232.765625 43.46875 232.757812 C 43.554688 232.765625 43.707031 232.851562 43.757812 232.890625 C 45.429688 234.21875 46.691406 236.894531 52.828125 236.925781 C 53.691406 236.929688 54.675781 237.339844 55.476562 238.0625 C 56.195312 238.722656 56.613281 239.746094 57.019531 240.78125 C 57.632812 242.335938 58.734375 243.851562 60.402344 245.535156 C 60.496094 245.625 61.867188 246.6875 61.976562 246.765625 C 61.996094 246.777344 62.097656 247.015625 62.0625 247.148438 C 62.019531 248.160156 61.875 251.097656 64.078125 251.230469 C 64.621094 251.257812 64.476562 250.882812 64.476562 250.621094 C 64.476562 250.109375 64.382812 249.601562 64.65625 249.078125 C 65.027344 248.359375 63.867188 248.027344 63.898438 246.46875 C 63.925781 245.308594 62.941406 245.503906 62.441406 244.621094 C 62.15625 244.109375 61.898438 243.835938 61.917969 243.210938 C 62.03125 239.679688 61.160156 237.363281 60.730469 236.792969 C 60.390625 236.363281 60.109375 236.191406 60.421875 235.992188 C 62.261719 234.789062 62.679688 233.664062 62.679688 233.664062 C 63.65625 231.378906 64.539062 229.292969 65.753906 228.375 C 65.996094 228.183594 66.625 227.71875 67.007812 227.539062 C 68.144531 227.007812 68.738281 226.6875 69.070312 226.367188 C 69.589844 225.863281 70 224.8125 69.5 224.175781 C 68.878906 223.390625 67.804688 224.015625 67.332031 224.292969 C 63.949219 226.289062 63.449219 229.804688 62.277344 231.824219 C 61.339844 233.4375 59.820312 234.625 58.460938 234.722656 C 57.441406 234.796875 56.339844 234.589844 55.246094 234.117188 C 52.585938 232.957031 51.128906 231.460938 50.785156 231.199219 C 50.070312 230.648438 44.519531 225.242188 40.023438 225.019531 C 40.023438 225.019531 39.464844 223.910156 39.324219 223.894531 C 38.996094 223.851562 38.660156 224.554688 38.417969 224.636719 C 38.191406 224.710938 37.808594 223.875 37.578125 223.910156 M 17.78125 256.1875 C 17.359375 256.179688 17 255.832031 17 255.40625 L 17 241.484375 L 12.375 241.484375 L 12.375 256.832031 C 12.375 257.582031 12.992188 258.199219 13.742188 258.199219 L 21.824219 258.199219 C 22.585938 258.199219 23.191406 257.582031 23.191406 256.832031 L 23.191406 241.484375 L 18.570312 241.484375 L 18.566406 255.40625 C 18.566406 255.832031 18.207031 256.179688 17.78125 256.1875 M 33.261719 241.484375 L 26.261719 241.484375 C 25.4375 241.484375 24.761719 242.152344 24.761719 242.984375 L 24.761719 258.199219 L 29.390625 258.199219 L 29.390625 244.242188 C 29.390625 243.816406 29.742188 243.476562 30.171875 243.476562 C 30.601562 243.476562 30.949219 243.804688 30.957031 244.230469 L 30.957031 258.199219 L 35.570312 258.199219 L 35.570312 244.230469 C 35.574219 243.804688 35.921875 243.476562 36.351562 243.476562 C 36.78125 243.476562 37.132812 243.816406 37.136719 244.242188 L 37.136719 258.199219 L 41.761719 258.199219 L 41.761719 242.984375 C 41.761719 242.152344 41.089844 241.484375 40.257812 241.484375 Z M 6.191406 244.269531 C 6.191406 243.804688 5.8125 243.476562 5.40625 243.476562 L 4.621094 243.476562 L 4.621094 251.929688 L 5.40625 251.929688 C 5.816406 251.929688 6.191406 251.605469 6.191406 251.144531 Z M 9.292969 253.996094 L 4.621094 253.996094 L 4.621094 258.199219 L 0 258.199219 L 0 241.484375 L 9.320312 241.484375 C 10.15625 241.484375 10.808594 242.15625 10.808594 242.988281 L 10.808594 252.492188 C 10.808594 253.324219 10.128906 253.996094 9.292969 253.996094 M 57.621094 254.460938 C 56.691406 254.460938 55.914062 255.257812 55.914062 256.222656 C 55.914062 257.191406 56.691406 257.980469 57.652344 257.980469 C 58.601562 257.980469 59.371094 257.191406 59.371094 256.222656 C 59.371094 255.253906 58.601562 254.460938 57.652344 254.460938 Z M 59.703125 256.21875 C 59.703125 257.351562 58.785156 258.273438 57.652344 258.273438 C 56.503906 258.273438 55.582031 257.359375 55.582031 256.21875 C 55.582031 255.097656 56.503906 254.160156 57.617188 254.160156 C 58.785156 254.160156 59.703125 255.070312 59.703125 256.21875 "/>
<path style=" stroke:none;fill-rule:nonzero;fill:rgb(0%,0%,0%);fill-opacity:1;" d="M 57.4375 256.085938 C 57.757812 256.085938 57.925781 255.972656 57.925781 255.746094 C 57.925781 255.546875 57.765625 255.441406 57.449219 255.441406 L 57.359375 255.441406 L 57.359375 256.085938 Z M 58.621094 257.40625 L 58.070312 257.40625 L 57.359375 256.46875 L 57.359375 257.40625 L 56.910156 257.40625 L 56.910156 255.039062 L 57.382812 255.039062 C 58.027344 255.039062 58.367188 255.28125 58.367188 255.742188 C 58.367188 256.050781 58.164062 256.320312 57.882812 256.402344 L 57.851562 256.417969 Z M 49.523438 251.933594 L 49.523438 244.238281 C 49.511719 243.8125 49.164062 243.484375 48.734375 243.484375 C 48.308594 243.484375 47.953125 243.824219 47.953125 244.25 L 47.953125 251.933594 Z M 49.523438 258.199219 L 49.523438 254 L 47.953125 254 L 47.953125 258.199219 L 43.332031 258.199219 L 43.332031 242.984375 C 43.332031 242.152344 44.007812 241.484375 44.835938 241.484375 L 52.636719 241.484375 C 53.46875 241.484375 54.144531 242.152344 54.144531 242.984375 L 54.144531 258.199219 Z M 49.523438 258.199219 "/>
</g>
</svg>
