<svg xmlns="http://www.w3.org/2000/svg" viewBox="0 0 226 936"><svg xmlns="http://www.w3.org/2000/svg" xmlns:xlink="http://www.w3.org/1999/xlink" width="226" height="312" viewBox="0 0 113 156" version="1.1" y="0"><g id="surface1"><path style=" stroke:none;fill-rule:evenodd;fill:rgb(82.745099%,21.960784%,20%);fill-opacity:1;" d="M 111.074219 75.210938 C 111.074219 106.101562 86.589844 131.148438 56.386719 131.148438 C 26.183594 131.148438 1.699219 106.101562 1.699219 75.210938 C 1.699219 44.316406 26.183594 19.273438 56.386719 19.273438 C 86.589844 19.273438 111.074219 44.316406 111.074219 75.210938 " /><path style=" stroke:none;fill-rule:nonzero;fill:rgb(93.725491%,23.921569%,22.745098%);fill-opacity:1;" d="M 3.929688 89.0625 C 3.929688 89.0625 -0.03125 30.730469 53.71875 29.0625 L 49.96875 22.8125 L 20.804688 32.605469 L 12.46875 42.1875 L 5.179688 56.148438 L 1.011719 72.398438 L 2.261719 83.230469 " /><path style=" stroke:none;fill-rule:nonzero;fill:rgb(13.725491%,12.156863%,12.54902%);fill-opacity:1;" d="M 18.929688 37.050781 C 9.335938 46.867188 3.398438 60.421875 3.398438 75.417969 C 3.398438 90.410156 9.335938 103.96875 18.929688 113.785156 C 28.53125 123.597656 41.757812 129.65625 56.386719 129.65625 C 71.011719 129.65625 84.242188 123.597656 93.839844 113.785156 C 103.4375 103.96875 109.375 90.410156 109.375 75.417969 C 109.375 60.421875 103.4375 46.867188 93.839844 37.050781 C 84.242188 27.238281 71.011719 21.179688 56.386719 21.179688 C 41.757812 21.179688 28.53125 27.238281 18.929688 37.050781 Z M 16.5 116.15625 C 6.304688 105.730469 0 91.316406 0 75.417969 C 0 59.519531 6.304688 45.105469 16.5 34.675781 C 26.695312 24.246094 40.808594 17.78125 56.386719 17.78125 C 71.960938 17.78125 86.078125 24.246094 96.269531 34.675781 C 106.46875 45.105469 112.773438 59.519531 112.769531 75.417969 C 112.773438 91.316406 106.46875 105.730469 96.269531 116.15625 C 86.078125 126.589844 71.960938 133.054688 56.386719 133.054688 C 40.808594 133.054688 26.695312 126.589844 16.5 116.15625 " /><path style=" stroke:none;fill-rule:evenodd;fill:rgb(94.117647%,83.92157%,71.764708%);fill-opacity:1;" d="M 79.40625 75.519531 L 71.074219 76.769531 L 59.824219 78.019531 L 52.53125 78.226562 L 45.449219 78.019531 L 40.03125 76.351562 L 35.238281 71.144531 L 31.488281 60.519531 L 30.65625 58.226562 L 25.65625 56.5625 L 22.738281 51.769531 L 20.65625 44.894531 L 22.949219 38.851562 L 28.363281 36.976562 L 32.738281 39.0625 L 34.824219 43.644531 L 37.324219 43.226562 L 38.15625 42.1875 L 37.324219 37.394531 L 37.113281 31.351562 L 38.363281 23.019531 L 38.316406 18.261719 L 42.113281 12.1875 L 48.78125 7.394531 L 60.449219 2.394531 L 73.363281 4.269531 L 84.613281 12.394531 L 89.824219 20.726562 L 93.15625 26.769531 L 93.988281 41.769531 L 91.488281 54.6875 L 86.90625 66.144531 L 82.53125 72.1875 " /><path style=" stroke:none;fill-rule:evenodd;fill:rgb(20%,31.37255%,38.039216%);fill-opacity:1;" d="M 72.324219 111.5625 L 42.53125 112.8125 L 42.53125 117.8125 L 45.03125 135.3125 L 43.78125 136.769531 L 22.949219 129.6875 L 21.488281 127.1875 L 19.40625 103.644531 L 14.613281 89.476562 L 13.574219 86.144531 L 30.238281 74.6875 L 35.449219 72.601562 L 40.03125 78.226562 L 43.988281 81.769531 L 48.574219 83.226562 L 50.65625 83.851562 L 53.15625 94.6875 L 55.03125 96.976562 L 59.824219 95.3125 L 56.488281 101.769531 L 74.613281 110.3125 L 72.324219 111.5625 " /><path style=" stroke:none;fill-rule:evenodd;fill:rgb(42.745098%,41.960785%,42.745098%);fill-opacity:1;" d="M 22.949219 38.851562 L 28.363281 36.976562 L 32.738281 39.0625 L 34.824219 43.644531 L 37.324219 43.226562 L 37.949219 40.726562 L 36.699219 35.9375 L 37.949219 24.476562 L 36.90625 18.226562 L 40.65625 13.851562 L 48.78125 7.394531 L 46.488281 4.269531 L 35.03125 9.894531 L 30.238281 13.644531 L 27.53125 19.476562 L 23.363281 25.101562 L 22.113281 31.769531 L 22.949219 38.851562 " /><path style=" stroke:none;fill-rule:evenodd;fill:rgb(86.274511%,85.09804%,84.705883%);fill-opacity:1;" d="M 31.488281 19.269531 C 31.488281 19.269531 34.613281 11.5625 47.113281 7.8125 C 59.613281 4.0625 47.738281 5.101562 47.738281 5.101562 L 34.199219 10.3125 L 28.988281 15.519531 L 26.699219 19.6875 L 31.488281 19.269531 " /><path style=" stroke:none;fill-rule:evenodd;fill:rgb(86.274511%,85.09804%,84.705883%);fill-opacity:1;" d="M 25.238281 37.394531 C 25.238281 37.394531 20.863281 22.8125 37.53125 20.726562 L 36.90625 18.226562 L 25.449219 20.9375 L 22.113281 31.769531 L 22.949219 38.851562 L 25.238281 37.394531 " /><path style=" stroke:none;fill-rule:evenodd;fill:rgb(96.862745%,89.411765%,80.392158%);fill-opacity:1;" d="M 31.90625 56.769531 L 34.632812 54.125 C 34.632812 54.125 35.863281 54.269531 36.074219 55.726562 C 36.28125 57.1875 36.90625 70.3125 45.863281 77.394531 C 46.679688 78.042969 39.199219 76.351562 39.199219 76.351562 L 32.53125 65.9375 " /><path style=" stroke:none;fill-rule:evenodd;fill:rgb(96.862745%,89.411765%,80.392158%);fill-opacity:1;" d="M 70.242188 52.8125 C 70.242188 52.8125 70.726562 46.496094 72.425781 46.984375 C 74.128906 47.46875 74.128906 49.167969 74.128906 49.167969 C 74.128906 49.167969 69.996094 51.839844 70.242188 52.8125 " /><path style=" stroke:none;fill-rule:nonzero;fill:rgb(96.862745%,89.411765%,80.392158%);fill-opacity:1;" d="M 87.53125 29.6875 C 87.53125 29.6875 84.097656 30.410156 83.78125 33.4375 C 83.464844 36.460938 87.53125 34.0625 88.15625 33.855469 " /><path style=" stroke:none;fill-rule:nonzero;fill:rgb(96.862745%,89.411765%,80.392158%);fill-opacity:1;" d="M 62.324219 29.894531 C 62.324219 29.894531 57.738281 30.519531 57.738281 33.4375 C 57.738281 36.355469 62.949219 36.144531 64.40625 34.894531 " /><path style=" stroke:none;fill-rule:evenodd;fill:rgb(96.862745%,89.411765%,80.392158%);fill-opacity:1;" d="M 33.988281 43.4375 C 33.988281 43.4375 26.070312 38.644531 25.238281 43.230469 C 24.40625 47.8125 22.53125 51.144531 26.488281 55.9375 L 23.78125 55.105469 L 21.28125 48.644531 L 20.449219 42.394531 L 25.238281 37.394531 L 30.65625 37.8125 L 33.78125 40.3125 L 33.988281 43.4375 " /><path style=" stroke:none;fill-rule:evenodd;fill:rgb(96.862745%,89.411765%,80.392158%);fill-opacity:1;" d="M 37.738281 30.3125 C 37.738281 30.3125 41.28125 11.980469 59.199219 8.4375 C 73.949219 5.519531 81.699219 9.0625 84.613281 12.394531 C 84.613281 12.394531 71.488281 -3.230469 58.988281 1.5625 C 46.488281 6.355469 37.324219 15.105469 37.53125 20.726562 C 37.886719 30.308594 37.738281 30.3125 37.738281 30.3125 " /><path style=" stroke:none;fill-rule:evenodd;fill:rgb(96.862745%,89.411765%,80.392158%);fill-opacity:1;" d="M 86.074219 14.476562 C 86.074219 14.476562 80.03125 14.269531 79.824219 19.6875 C 79.824219 19.6875 79.824219 20.519531 80.238281 21.351562 C 80.238281 21.351562 85.03125 15.9375 87.949219 18.851562 " /><path style=" stroke:none;fill-rule:evenodd;fill:rgb(96.862745%,89.411765%,80.392158%);fill-opacity:1;" d="M 59.617188 21.917969 C 59.617188 21.917969 58.578125 13.601562 51.488281 18.4375 C 46.90625 21.5625 47.324219 25.9375 48.15625 26.769531 C 48.988281 27.605469 48.761719 29.28125 49.398438 28.128906 C 50.03125 26.976562 49.820312 23.226562 52.113281 22.1875 C 54.40625 21.144531 58.164062 19.980469 59.617188 21.917969 " /><path style=" stroke:none;fill-rule:evenodd;fill:rgb(28.627452%,44.705883%,54.509807%);fill-opacity:1;" d="M 40.03125 78.226562 L 20.449219 86.976562 C 20.449219 86.976562 28.574219 119.269531 24.40625 129.269531 L 21.488281 128.230469 L 21.28125 115.9375 L 15.863281 92.605469 L 13.574219 86.144531 L 33.988281 72.394531 L 40.03125 78.226562 " /><path style=" stroke:none;fill-rule:evenodd;fill:rgb(28.627452%,44.705883%,54.509807%);fill-opacity:1;" d="M 42.042969 96.089844 L 44.824219 99.480469 L 44.824219 111.980469 L 41.488281 111.980469 C 41.488281 111.980469 41.074219 103.230469 41.074219 102.1875 C 41.074219 101.144531 41.488281 97.394531 41.488281 97.394531 " /><path style=" stroke:none;fill-rule:evenodd;fill:rgb(28.627452%,44.705883%,54.509807%);fill-opacity:1;" d="M 42.113281 113.855469 L 32.738281 114.269531 L 35.449219 116.144531 L 42.113281 117.1875 " /><path style=" stroke:none;fill-rule:evenodd;fill:rgb(20%,31.37255%,38.039216%);fill-opacity:1;" d="M 74.199219 111.769531 L 81.90625 111.5625 L 83.78125 130.730469 L 75.863281 131.769531 L 74.199219 111.769531 " /><path style=" stroke:none;fill-rule:evenodd;fill:rgb(20%,31.37255%,38.039216%);fill-opacity:1;" d="M 76.28125 111.769531 L 87.949219 111.144531 C 87.949219 111.144531 92.738281 99.0625 92.738281 98.4375 C 92.738281 97.8125 96.90625 80.9375 96.90625 80.9375 L 87.53125 71.144531 L 85.65625 69.480469 L 80.65625 74.480469 L 80.65625 93.855469 L 76.28125 111.769531 " /><path style=" stroke:none;fill-rule:evenodd;fill:rgb(28.627452%,44.705883%,54.509807%);fill-opacity:1;" d="M 81.488281 110.3125 L 74.199219 111.769531 L 75.238281 117.605469 C 77.949219 118.855469 82.53125 115.519531 82.53125 115.519531 " /><path style=" stroke:none;fill-rule:evenodd;fill:rgb(28.627452%,44.705883%,54.509807%);fill-opacity:1;" d="M 81.699219 73.855469 L 96.28125 84.6875 L 96.699219 79.6875 L 85.65625 69.480469 L 81.699219 73.855469 " /><path style=" stroke:none;fill-rule:evenodd;fill:rgb(100%,100%,100%);fill-opacity:1;" d="M 49.34375 152.8125 L 45.03125 135.3125 L 42.886719 122.398438 L 42.53125 112.8125 L 62.054688 111.773438 L 74.199219 111.769531 L 73.09375 133.648438 L 74.96875 150.523438 L 74.761719 153.648438 L 58.929688 154.898438 L 49.34375 152.8125 " /><path style=" stroke:none;fill-rule:evenodd;fill:rgb(86.274511%,85.09804%,84.705883%);fill-opacity:1;" d="M 71.488281 111.5625 C 71.488281 111.5625 70.449219 133.230469 73.574219 148.644531 C 73.574219 148.644531 67.324219 152.605469 58.15625 153.644531 L 75.65625 153.019531 L 77.738281 151.769531 L 75.238281 117.605469 L 74.613281 110.3125 " /><path style=" stroke:none;fill-rule:evenodd;fill:rgb(100%,100%,100%);fill-opacity:1;" d="M 84.136719 129.0625 L 92.261719 126.773438 L 107.675781 125.9375 L 109.96875 118.855469 L 105.800781 106.5625 L 101.011719 105.9375 L 94.34375 108.023438 L 87.949219 111.144531 L 84.550781 110.523438 L 81.90625 111.5625 " /><path style=" stroke:none;fill-rule:evenodd;fill:rgb(86.274511%,85.09804%,84.705883%);fill-opacity:1;" d="M 83.988281 124.894531 C 83.988281 124.894531 89.40625 122.394531 90.238281 122.605469 L 87.949219 111.144531 L 90.65625 110.105469 C 90.65625 110.105469 92.53125 120.9375 92.53125 122.1875 C 92.53125 122.1875 104.199219 122.8125 105.238281 122.8125 C 105.238281 122.8125 107.738281 118.019531 107.113281 113.019531 L 109.40625 119.6875 L 109.613281 123.4375 L 106.28125 128.4375 L 102.53125 129.269531 L 96.28125 129.0625 L 94.199219 126.355469 L 86.90625 127.394531 L 84.613281 128.230469 " /><path style=" stroke:none;fill-rule:nonzero;fill:rgb(100%,100%,100%);fill-opacity:1;" d="M 75.800781 110.105469 L 71.21875 98.4375 L 66.425781 91.5625 C 66.425781 91.5625 67.46875 88.648438 68.925781 88.648438 C 70.386719 88.648438 73.71875 88.648438 73.71875 88.648438 L 78.300781 90.3125 L 77.886719 98.023438 L 75.800781 110.105469 " /><path style=" stroke:none;fill-rule:evenodd;fill:rgb(86.274511%,85.09804%,84.705883%);fill-opacity:1;" d="M 76.699219 106.144531 C 76.699219 106.144531 70.863281 94.894531 70.863281 93.230469 C 70.863281 93.230469 71.90625 90.730469 73.363281 91.355469 C 74.824219 91.980469 77.949219 93.644531 77.949219 93.644531 L 77.949219 89.6875 L 70.863281 88.226562 L 66.074219 88.851562 L 74.199219 108.019531 L 75.863281 108.230469 " /><path style=" stroke:none;fill-rule:nonzero;fill:rgb(100%,100%,100%);fill-opacity:1;" d="M 51.21875 78.648438 L 45.449219 78.019531 L 40.03125 76.351562 L 40.03125 78.226562 L 42.679688 81.148438 L 51.011719 84.898438 " /><path style=" stroke:none;fill-rule:evenodd;fill:rgb(86.274511%,85.09804%,84.705883%);fill-opacity:1;" d="M 41.90625 79.273438 C 41.90625 79.273438 48.367188 81.980469 50.449219 81.355469 L 50.65625 83.851562 L 44.824219 82.605469 L 41.28125 80.105469 L 41.90625 79.273438 " /><path style=" stroke:none;fill-rule:evenodd;fill:rgb(82.745099%,21.960784%,20%);fill-opacity:1;" d="M 84.113281 89.355469 C 80.578125 89.253906 77.386719 88.832031 74.589844 88.042969 C 74.777344 86.898438 74.421875 85.773438 74.707031 84.945312 C 75.488281 84.386719 76.792969 84.394531 77.972656 84.261719 C 76.953125 83.761719 75.523438 83.5625 74.347656 83.851562 C 74.320312 83.058594 73.960938 82.5625 73.746094 81.941406 C 75.734375 81.234375 80.425781 76.582031 83.066406 78.121094 C 84.324219 78.855469 84.855469 83.039062 84.953125 85.074219 C 85.035156 86.761719 84.800781 88.460938 84.113281 89.355469 " /><path style="fill:none;stroke-width:2;stroke-linecap:butt;stroke-linejoin:miter;stroke:rgb(82.745099%,21.960784%,20%);stroke-opacity:1;stroke-miterlimit:4;" d="M 134.58125 106.63125 C 128.925 106.79375 123.81875 107.46875 119.34375 108.73125 C 119.64375 110.5625 119.075 112.3625 119.53125 113.6875 C 120.78125 114.58125 122.86875 114.56875 124.75625 114.78125 C 123.125 115.58125 120.8375 115.9 118.95625 115.4375 C 118.9125 116.70625 118.3375 117.5 117.99375 118.49375 C 121.175 119.625 128.68125 127.06875 132.90625 124.60625 C 134.91875 123.43125 135.76875 116.7375 135.925 113.48125 C 136.05625 110.78125 135.68125 108.0625 134.58125 106.63125 Z M 134.58125 106.63125 " transform="matrix(0.625,0,0,-0.625,0,156)" /><path style=" stroke:none;fill-rule:evenodd;fill:rgb(82.745099%,21.960784%,20%);fill-opacity:1;" d="M 67.210938 83.578125 C 67.199219 83.84375 67.1875 84.113281 67.179688 84.382812 C 66.074219 85.109375 64.292969 85.101562 63.082031 85.710938 C 64.867188 85.789062 66.273438 86.21875 67.488281 86.824219 C 67.460938 87.5 67.4375 88.171875 67.410156 88.84375 C 65.386719 90.230469 63.539062 92.292969 61.15625 93.589844 C 60.03125 94.207031 56.078125 95.785156 54.878906 95.507812 C 54.203125 95.347656 54.140625 94.507812 53.871094 93.714844 C 53.292969 92.015625 51.960938 89.3125 51.847656 86.757812 C 51.699219 83.527344 51.375 78.117188 54.851562 78.78125 C 57.660156 79.316406 60.925781 80.609375 63.097656 81.796875 C 64.425781 82.523438 65.195312 83.421875 67.210938 83.578125 " /><path style="fill:none;stroke-width:2;stroke-linecap:butt;stroke-linejoin:miter;stroke:rgb(82.745099%,21.960784%,20%);stroke-opacity:1;stroke-miterlimit:4;" d="M 107.5375 115.875 C 107.51875 115.45 107.5 115.01875 107.4875 114.5875 C 105.71875 113.425 102.86875 113.4375 100.93125 112.4625 C 103.7875 112.3375 106.0375 111.65 107.98125 110.68125 C 107.9375 109.6 107.9 108.525 107.85625 107.45 C 104.61875 105.23125 101.6625 101.93125 97.85 99.85625 C 96.05 98.86875 89.725 96.34375 87.80625 96.7875 C 86.725 97.04375 86.625 98.3875 86.19375 99.65625 C 85.26875 102.375 83.1375 106.7 82.95625 110.7875 C 82.71875 115.95625 82.2 124.6125 87.7625 123.55 C 92.25625 122.69375 97.48125 120.625 100.95625 118.725 C 103.08125 117.5625 104.3125 116.125 107.5375 115.875 Z M 107.5375 115.875 " transform="matrix(0.625,0,0,-0.625,0,156)" /><path style=" stroke:none;fill-rule:evenodd;fill:rgb(82.745099%,21.960784%,20%);fill-opacity:1;" d="M 69.21875 87.429688 C 68.910156 85.671875 68.554688 85.167969 68.691406 83.636719 C 73.382812 80.507812 74.261719 89.007812 69.21875 87.429688 " /><path style="fill:none;stroke-width:2;stroke-linecap:butt;stroke-linejoin:miter;stroke:rgb(82.745099%,21.960784%,20%);stroke-opacity:1;stroke-miterlimit:4;" d="M 110.75 109.7125 C 110.25625 112.525 109.6875 113.33125 109.90625 115.78125 C 117.4125 120.7875 118.81875 107.1875 110.75 109.7125 Z M 110.75 109.7125 " transform="matrix(0.625,0,0,-0.625,0,156)" /><path style=" stroke:none;fill-rule:evenodd;fill:rgb(93.725491%,23.921569%,22.745098%);fill-opacity:1;" d="M 76.011719 88.855469 C 76.011719 88.855469 74.550781 86.773438 75.59375 86.148438 C 76.636719 85.523438 77.675781 86.148438 78.300781 85.105469 C 78.925781 84.0625 78.300781 83.4375 78.511719 82.1875 C 78.71875 80.9375 79.761719 80.730469 80.800781 80.523438 C 81.84375 80.3125 84.761719 79.898438 85.175781 80.9375 L 83.925781 77.1875 L 81.425781 76.355469 L 73.511719 80.9375 L 73.09375 83.230469 L 73.09375 87.8125 " /><path style=" stroke:none;fill-rule:evenodd;fill:rgb(93.725491%,23.921569%,22.745098%);fill-opacity:1;" d="M 54.136719 95.730469 C 53.886719 92.480469 53.621094 89.234375 53.324219 85.984375 C 52.886719 81.132812 54.492188 81.980469 58.695312 81.980469 C 59.335938 81.980469 62.648438 82.746094 62.886719 83.230469 C 64.023438 85.550781 60.984375 85.035156 64.195312 86.785156 C 66.902344 88.261719 71.6875 85.890625 70.59375 82.605469 C 69.980469 81.875 67.402344 82.378906 66.476562 81.898438 C 64.851562 81.054688 63.222656 80.210938 61.59375 79.367188 C 59.523438 78.292969 54.738281 76.726562 52.53125 78.226562 C 46.9375 82.03125 52.882812 91.539062 54.878906 95.507812 " /><path style=" stroke:none;fill-rule:evenodd;fill:rgb(13.725491%,12.156863%,12.54902%);fill-opacity:1;" d="M 59.617188 21.917969 C 53.941406 20.59375 51.117188 24.292969 49.398438 28.128906 C 47.859375 27.757812 48.472656 25.667969 48.859375 24.601562 C 49.875 21.808594 53.972656 18.085938 57.320312 18.589844 C 58.757812 18.808594 60.707031 20.125 59.617188 21.917969 " /><path style=" stroke:none;fill-rule:evenodd;fill:rgb(13.725491%,12.156863%,12.54902%);fill-opacity:1;" d="M 87.285156 28.382812 C 87.375 28.386719 87.464844 28.390625 87.554688 28.394531 C 88.835938 31.058594 89.949219 33.882812 91.566406 36.238281 C 90.480469 38.761719 83.355469 40.996094 83.464844 36.460938 C 85.007812 35.789062 87.667969 36.324219 89.03125 35.464844 C 88.242188 33.296875 87.101562 31.449219 87.285156 28.382812 " /><path style=" stroke:none;fill-rule:evenodd;fill:rgb(13.725491%,12.156863%,12.54902%);fill-opacity:1;" d="M 62.523438 28.453125 C 63.742188 30.683594 64.140625 33.03125 65.871094 34.71875 C 66.648438 35.476562 68.164062 36.402344 67.414062 38.515625 C 67.238281 39.011719 65.953125 40.121094 65.214844 40.339844 C 62.507812 41.140625 56.203125 40.503906 58.339844 37.132812 C 60.578125 37.238281 63.582031 38.585938 65.257812 36.960938 C 63.972656 34.90625 61.683594 30.847656 62.523438 28.453125 " /><path style=" stroke:none;fill-rule:evenodd;fill:rgb(13.725491%,12.156863%,12.54902%);fill-opacity:1;" d="M 86.269531 51.136719 C 82.195312 53.753906 77.652344 56.597656 70.976562 55.9375 C 69.550781 54.699219 69.007812 51.941406 70.394531 50.117188 C 71.113281 51.359375 70.660156 53.636719 72.671875 53.980469 C 76.457031 54.628906 80.867188 51.664062 83.589844 50.628906 C 85.28125 47.78125 83.445312 46.734375 81.921875 44.898438 C 78.808594 41.144531 74.628906 36.488281 74.78125 30.867188 C 76.039062 29.953125 76.148438 32.261719 76.328125 32.679688 C 77.957031 36.488281 82.050781 41.355469 85.039062 44.617188 C 85.773438 45.417969 86.980469 46.1875 87.113281 46.71875 C 87.503906 48.261719 86.105469 50.109375 86.269531 51.136719 " /><path style=" stroke:none;fill-rule:evenodd;fill:rgb(13.725491%,12.156863%,12.54902%);fill-opacity:1;" d="M 32.5625 48.382812 C 31.285156 47.652344 30.984375 44.441406 29.484375 44.351562 C 27.339844 44.222656 27.730469 48.515625 27.742188 51.027344 C 26.265625 49.6875 26.007812 45.566406 27.089844 43.449219 C 25.855469 42.84375 25.304688 44.117188 24.617188 44.566406 C 25.5 38.175781 33.972656 41.601562 32.5625 48.382812 " /><path style=" stroke:none;fill-rule:evenodd;fill:rgb(13.725491%,12.156863%,12.54902%);fill-opacity:1;" d="M 88.863281 53.800781 C 86.964844 57.410156 84.285156 61.382812 78.71875 61.5 C 78.605469 60.332031 78.519531 58.558594 78.726562 57.859375 C 82.980469 57.449219 85.605469 55.285156 88.863281 53.800781 " /><path style=" stroke:none;fill-rule:evenodd;fill:rgb(13.725491%,12.156863%,12.54902%);fill-opacity:1;" d="M 62.203125 56.140625 C 65.753906 58.003906 72.277344 58.207031 77.097656 58.066406 C 77.359375 59.121094 77.351562 60.425781 77.363281 61.714844 C 71.160156 62.027344 63.828125 60.492188 62.203125 56.140625 " /><path style=" stroke:none;fill-rule:evenodd;fill:rgb(13.725491%,12.156863%,12.54902%);fill-opacity:1;" d="M 61.53125 59.621094 C 63.984375 65.78125 72.417969 65.070312 79.53125 64.902344 C 79.21875 65.703125 78.539062 66.648438 77.695312 66.988281 C 75.417969 67.917969 69.128906 68.621094 65.964844 66.9375 C 63.957031 65.871094 62.667969 63.460938 61.570312 62.046875 C 61.039062 61.367188 58.394531 59.625 61.53125 59.621094 " /><path style=" stroke:none;fill-rule:evenodd;fill:rgb(50.588238%,69.01961%,76.862746%);fill-opacity:1;" d="M 85.972656 93.609375 C 83.09375 98.542969 80.335938 103.609375 76.921875 107.957031 C 78.351562 103.746094 78.964844 96.695312 79.183594 91.324219 C 82.179688 89.921875 84.746094 91.636719 85.972656 93.609375 " /><path style=" stroke:none;fill-rule:evenodd;fill:rgb(13.725491%,12.156863%,12.54902%);fill-opacity:1;" d="M 101.46875 111.335938 C 98.246094 111.984375 95.980469 115.117188 92.835938 114.914062 C 94.5625 112.476562 97.59375 111.449219 101.46875 111.335938 " /><path style=" stroke:none;fill-rule:evenodd;fill:rgb(13.725491%,12.156863%,12.54902%);fill-opacity:1;" d="M 102.890625 116.382812 C 100.265625 116.660156 97.175781 117.085938 94.511719 116.867188 C 95.773438 114.9375 100.636719 115.605469 102.890625 116.382812 " /><path style=" stroke:none;fill-rule:evenodd;fill:rgb(13.725491%,12.156863%,12.54902%);fill-opacity:1;" d="M 103.804688 120.734375 C 100.847656 120.796875 97.179688 120.738281 94.371094 120.503906 C 96.03125 118.71875 101.886719 119.839844 103.804688 120.734375 " /><path style=" stroke:none;fill-rule:evenodd;fill:rgb(86.274511%,85.09804%,84.705883%);fill-opacity:1;" d="M 80.414062 132.640625 C 80.839844 136.347656 82.308594 140.109375 82.125 144.171875 C 80.492188 144.71875 79.554688 145.203125 77.367188 145.199219 C 77.210938 141.746094 76.75 136.46875 76.886719 133.175781 C 77.964844 133.25 79.550781 132.410156 80.414062 132.640625 " /><path style=" stroke:none;fill-rule:evenodd;fill:rgb(94.117647%,83.92157%,71.764708%);fill-opacity:1;" d="M 75.652344 77.96875 C 74.171875 78.9375 72.90625 80.144531 71.484375 81.179688 C 68.324219 81.335938 66.601562 80.960938 64.28125 79.148438 C 64.316406 79 64.550781 79.066406 64.558594 78.886719 C 67.941406 80.394531 72.238281 78.273438 75.652344 77.96875 " /><path style=" stroke:none;fill-rule:evenodd;fill:rgb(50.588238%,69.01961%,76.862746%);fill-opacity:1;" d="M 57.902344 101.019531 C 58.832031 96.992188 62.472656 94.90625 65.777344 92.691406 C 69.1875 97.019531 71.265625 102.589844 73.550781 107.964844 C 68.152344 106.335938 62.632812 103.695312 57.902344 101.019531 " /><path style=" stroke:none;fill-rule:evenodd;fill:rgb(13.725491%,12.156863%,12.54902%);fill-opacity:1;" d="M 76.886719 133.175781 C 76.75 136.46875 77.210938 141.746094 77.367188 145.199219 C 79.554688 145.203125 80.492188 144.71875 82.125 144.171875 C 82.308594 140.109375 80.839844 136.347656 80.414062 132.640625 C 79.550781 132.410156 77.964844 133.25 76.886719 133.175781 Z M 42.816406 114.460938 C 44.257812 127.722656 46.347656 138.875 50.183594 150.621094 C 58.6875 153.203125 68.945312 153.429688 76.464844 151.097656 C 75.082031 144.46875 75.6875 136.398438 74.878906 129.324219 C 74.269531 124.003906 74.582031 118.65625 73.746094 113.230469 C 64.636719 111.335938 51.757812 112.785156 42.816406 114.460938 Z M 75.902344 113.3125 C 75.824219 119.011719 76.15625 124.628906 76.59375 130.332031 C 78.78125 130.003906 80.265625 129.785156 82.296875 129.339844 C 81.636719 123.847656 81.71875 117.671875 80.375 112.8125 C 78.820312 112.828125 77.453125 112.792969 75.902344 113.3125 Z M 87 112.394531 C 85.960938 112.15625 84.75 112.386719 83.761719 112.40625 C 84.226562 117.046875 85.359375 122.171875 85.753906 127.046875 C 87.316406 127.097656 88.148438 126.359375 89.433594 126.113281 C 89.503906 121.832031 89.058594 115.9375 87 112.394531 Z M 103.800781 127.746094 C 107.054688 126.957031 109.101562 122.972656 108.191406 118.878906 C 107.578125 116.128906 106.492188 110.953125 105.328125 109.191406 C 104.46875 107.890625 102.136719 106.1875 100.273438 107.378906 C 97.246094 109.320312 91.910156 109.882812 89.703125 112.230469 C 90.808594 115.917969 91.152344 120.984375 91.609375 125.65625 C 95.394531 125.890625 100.046875 124.613281 103.195312 125.96875 C 101 126.679688 98.148438 126.6875 96.25 127.722656 C 97.800781 128.472656 101.433594 128.320312 103.800781 127.746094 Z M 73.550781 107.964844 C 71.265625 102.589844 69.1875 97.019531 65.777344 92.691406 C 62.472656 94.90625 58.832031 96.992188 57.902344 101.019531 C 62.632812 103.695312 68.152344 106.335938 73.550781 107.964844 Z M 79.183594 91.324219 C 78.964844 96.695312 78.351562 103.746094 76.921875 107.957031 C 80.335938 103.609375 83.09375 98.542969 85.972656 93.609375 C 84.746094 91.636719 82.179688 89.921875 79.183594 91.324219 Z M 72.796875 89.054688 C 71.503906 88.914062 70.402344 90.542969 68.71875 89.839844 C 68.335938 90.265625 67.984375 90.726562 67.589844 91.140625 C 71.308594 95.621094 73 101.980469 75.871094 107.242188 C 77.410156 102.1875 77.234375 96.644531 77.570312 91.125 C 75.453125 91.261719 74.28125 89.210938 72.796875 89.054688 Z M 68.691406 83.636719 C 68.554688 85.167969 68.910156 85.671875 69.21875 87.429688 C 74.261719 89.007812 73.382812 80.507812 68.691406 83.636719 Z M 63.097656 81.796875 C 60.925781 80.609375 57.660156 79.316406 54.851562 78.78125 C 51.375 78.117188 51.699219 83.527344 51.847656 86.757812 C 51.960938 89.3125 53.292969 92.015625 53.871094 93.714844 C 54.140625 94.507812 54.203125 95.347656 54.878906 95.507812 C 56.078125 95.785156 60.03125 94.207031 61.15625 93.589844 C 63.539062 92.292969 65.386719 90.230469 67.410156 88.84375 C 67.4375 88.171875 67.460938 87.5 67.488281 86.824219 C 66.273438 86.21875 64.867188 85.789062 63.082031 85.710938 C 64.292969 85.101562 66.074219 85.109375 67.179688 84.382812 C 67.1875 84.113281 67.199219 83.84375 67.210938 83.578125 C 65.195312 83.421875 64.425781 82.523438 63.097656 81.796875 Z M 42.339844 78.027344 C 40.535156 79.859375 47.398438 82.355469 49.582031 82.488281 C 49.570312 81.332031 50.242188 80.238281 50.109375 79.40625 C 47.511719 78.953125 44.101562 79.253906 42.339844 78.027344 Z M 64.558594 78.886719 C 64.550781 79.066406 64.316406 79 64.28125 79.148438 C 66.601562 80.960938 68.324219 81.335938 71.484375 81.179688 C 72.90625 80.144531 74.171875 78.9375 75.652344 77.96875 C 72.238281 78.273438 67.941406 80.394531 64.558594 78.886719 Z M 84.953125 85.074219 C 84.855469 83.039062 84.324219 78.855469 83.066406 78.121094 C 80.425781 76.582031 75.734375 81.234375 73.746094 81.941406 C 73.960938 82.5625 74.320312 83.058594 74.347656 83.851562 C 75.523438 83.5625 76.953125 83.761719 77.972656 84.261719 C 76.792969 84.394531 75.488281 84.386719 74.707031 84.945312 C 74.421875 85.773438 74.777344 86.898438 74.589844 88.042969 C 77.386719 88.832031 80.578125 89.253906 84.113281 89.355469 C 84.800781 88.460938 85.035156 86.761719 84.953125 85.074219 Z M 39.304688 79.800781 C 38.738281 79.394531 34.90625 74.410156 34.378906 74.617188 C 27.445312 77.351562 20.964844 82.078125 15.167969 86.550781 C 20.695312 98.402344 22.921875 112.925781 23.316406 126.921875 C 29.644531 129.878906 35.203125 134.148438 43.789062 134.59375 C 42.796875 127.5625 41.886719 121.289062 41.324219 114.671875 C 39.167969 113.761719 36.070312 114.714844 34.054688 114.390625 C 34.035156 111.957031 37.136719 113.324219 37.394531 111.6875 C 37.589844 110.449219 35.6875 110.355469 36.308594 108.40625 C 37.886719 108.980469 38.714844 110.25 40.398438 110.726562 C 41.9375 107.359375 40.375 101.40625 40.597656 98.59375 C 40.640625 98.066406 40.863281 95.667969 42.042969 96.089844 C 43.089844 96.460938 41.984375 102.464844 42.101562 105.125 C 42.203125 107.578125 41.804688 109.953125 42.796875 111.492188 C 51.09375 110.363281 59.523438 109.632812 68.503906 109.386719 C 66.527344 108.539062 64.179688 107.738281 61.609375 106.285156 C 60.214844 105.5 55.820312 103.863281 55.417969 102.539062 C 54.773438 100.429688 57.101562 99.304688 57.5 97.496094 C 53.3125 99.78125 52.492188 95.308594 51.503906 92.136719 C 50.605469 89.265625 50.09375 87.121094 49.875 85.46875 C 46.265625 83.746094 42.410156 82.003906 39.304688 79.800781 Z M 81.289062 75.21875 C 87.066406 72.417969 88.109375 85.6875 85.84375 89.964844 C 86.195312 91.238281 87.398438 91.726562 87.890625 92.875 C 84.664062 98.648438 81.085938 104.039062 77.796875 109.746094 C 80.242188 108.222656 83.738281 109.472656 86.617188 108.332031 C 87.667969 107.917969 88.429688 105.507812 89.226562 103.582031 C 91.417969 98.277344 93.71875 91.59375 94.746094 86.53125 C 94.976562 85.378906 95.605469 82.867188 95.464844 81.839844 C 95.210938 80 92.71875 78.640625 91.453125 77.503906 C 89.113281 75.40625 87.644531 73.558594 85.207031 71.59375 C 84.21875 73.054688 82.097656 74.035156 81.289062 75.21875 Z M 26.089844 23.988281 C 23.339844 27.019531 23.914062 32.695312 24.25 36.730469 C 29.222656 33.601562 35.828125 36.980469 35.765625 42.300781 C 38.140625 42.238281 36.652344 39.335938 36.222656 37.464844 C 34.820312 31.355469 38.589844 24.71875 36.394531 19.128906 C 32.132812 19.453125 28.632812 21.191406 26.089844 23.988281 Z M 45.789062 6.410156 C 39.554688 8.175781 31.570312 12.707031 29.007812 18.304688 C 30.992188 18.015625 32.367188 17.015625 34.324219 16.890625 C 35.0625 16.84375 36.03125 17.203125 36.882812 16.992188 C 38.574219 16.570312 40.003906 12.773438 41.28125 11.363281 C 42.527344 9.984375 44.023438 9.394531 45.046875 8.136719 C 45.703125 7.816406 46.675781 7.839844 46.714844 6.851562 C 46.429688 6.546875 46.128906 6.3125 45.789062 6.410156 Z M 78.226562 8.074219 C 71.757812 4.421875 60.8125 1.679688 53.929688 5.109375 C 48.378906 7.875 40.875 12.457031 38.316406 18.261719 C 40.707031 23.859375 37.609375 28.992188 37.410156 34.679688 C 37.304688 37.703125 38.835938 40.34375 38.953125 43.640625 C 38.132812 44.988281 35.632812 45.15625 33.90625 45.0625 C 33.324219 42.148438 32.304688 38.875 29.304688 38.546875 C 25.058594 38.082031 21.953125 41.59375 21.761719 45.265625 C 21.53125 49.585938 25.078125 56.742188 30.101562 56.246094 C 32.042969 56.050781 32.519531 54.105469 34.632812 54.125 C 35.78125 56.414062 32.867188 57.132812 32.566406 58.765625 C 32.488281 59.191406 32.808594 60.839844 32.992188 61.617188 C 33.90625 65.386719 35.941406 70.265625 37.941406 73.136719 C 40.484375 76.777344 45.476562 77.328125 50.851562 77.683594 C 51.808594 75.617188 55.34375 75.785156 57.648438 76.328125 C 54.886719 75.234375 52.320312 72.585938 50.195312 70.238281 C 47.75 67.546875 45.277344 64.660156 45.152344 61.144531 C 49.769531 67.546875 53.582031 73.140625 61.976562 75.957031 C 68.328125 78.085938 75.742188 74.980469 80.625 71.554688 C 82.648438 70.128906 83.859375 67.867188 85.296875 65.800781 C 90.683594 58.054688 93.195312 46.996094 92.644531 36.277344 C 92.414062 31.859375 92.425781 27.453125 90.941406 24.480469 C 89.390625 21.371094 84.148438 18.589844 81.082031 21.402344 C 80.511719 18.375 83.632812 16.507812 87.296875 17.59375 C 84.683594 14.222656 81.941406 10.167969 78.226562 8.074219 Z M 90.277344 107.800781 C 95.332031 105.289062 104.777344 101.039062 107.945312 107.8125 C 109.113281 110.308594 110.484375 114.527344 111.089844 117.105469 C 111.945312 120.738281 110.164062 128.382812 106.425781 129.601562 C 103.125 130.679688 99.273438 130.613281 95.300781 129.8125 C 94.832031 129.425781 94.308594 128.746094 93.945312 128.039062 C 91.105469 127.929688 88.449219 128.191406 86.207031 129.359375 C 86.417969 131.457031 85 131.792969 83.667969 132.226562 C 82.679688 136.140625 85.640625 141.25 84.933594 144.816406 C 84.425781 147.359375 81.300781 147.753906 79 148.230469 C 78.925781 149.640625 79.101562 150.820312 79.257812 152.015625 C 78.734375 153.953125 76.375 155.054688 74.140625 155.324219 C 66.792969 156.207031 55.632812 156.605469 48.5625 154.0625 C 46.59375 149.226562 45.039062 143.339844 43.394531 137.816406 C 36.5 138.550781 30.925781 134.839844 25.667969 132.410156 C 23.847656 131.566406 21.328125 131.101562 20.648438 129.652344 C 19.992188 128.25 20.261719 125.5625 20.097656 123.019531 C 19.679688 116.535156 19.324219 110.28125 17.609375 103.640625 C 16.84375 100.660156 15.5 98.03125 14.566406 95.160156 C 13.703125 92.496094 12.191406 89.207031 11.796875 86.554688 C 11.214844 82.621094 14.917969 82.402344 17.285156 80.699219 C 20.945312 78.0625 23.820312 76.605469 27.785156 74.226562 C 28.960938 73.523438 32.5 71.738281 32.902344 70.917969 C 33.703125 69.289062 31.53125 66.996094 30.949219 65.71875 C 30.027344 63.699219 29.546875 61.984375 29.417969 59.996094 C 26.089844 59.46875 23.570312 57.488281 22.046875 55.257812 C 19.527344 51.5625 17.78125 44.730469 19.960938 39.53125 C 20.128906 39.121094 20.984375 38.316406 21.109375 37.6875 C 21.355469 36.449219 20.640625 34.804688 20.597656 33.488281 C 20.367188 26.730469 21.742188 20.910156 26.289062 18.871094 C 28.136719 11.515625 34.742188 9.070312 40.96875 5.414062 C 43.296875 4.050781 45.863281 3.175781 48.511719 2.203125 C 58.019531 -1.296875 72.601562 -0.636719 80.492188 5.328125 C 83.835938 7.859375 89.183594 13.199219 91.09375 17.066406 C 96.144531 27.277344 95.789062 44.34375 92.253906 56.761719 C 91.78125 58.429688 91.089844 60.882812 90.128906 62.886719 C 89.457031 64.285156 87.375 67.082031 87.625 68.316406 C 87.886719 69.59375 92.378906 73.003906 93.34375 73.933594 C 95.078125 75.605469 98.371094 77.828125 98.640625 79.9375 C 98.925781 82.1875 97.648438 85.257812 97 87.425781 C 94.839844 94.664062 92.730469 101.351562 90.277344 107.800781 " /><path style=" stroke:none;fill-rule:evenodd;fill:rgb(96.862745%,89.411765%,80.392158%);fill-opacity:1;" d="M 56.558594 57.714844 C 56.832031 57.351562 58.339844 56.796875 60.449219 57.8125 C 60.449219 57.8125 57.949219 58.230469 58.15625 62.398438 L 57.113281 62.1875 C 57.113281 62.1875 56.039062 58.410156 56.558594 57.714844 " /><path style=" stroke:none;fill-rule:evenodd;fill:rgb(11.372549%,9.803922%,9.803922%);fill-opacity:1;" d="M 74.824219 93.542969 C 74.824219 94.171875 74.308594 94.6875 73.675781 94.6875 C 73.042969 94.6875 72.53125 94.171875 72.53125 93.542969 C 72.53125 92.910156 73.042969 92.394531 73.675781 92.394531 C 74.308594 92.394531 74.824219 92.910156 74.824219 93.542969 " /><path style=" stroke:none;fill-rule:evenodd;fill:rgb(11.372549%,9.803922%,9.803922%);fill-opacity:1;" d="M 75.96875 98.855469 C 75.96875 99.484375 75.457031 100 74.824219 100 C 74.191406 100 73.675781 99.484375 73.675781 98.855469 C 73.675781 98.222656 74.191406 97.707031 74.824219 97.707031 C 75.457031 97.707031 75.96875 98.222656 75.96875 98.855469 " /></g></svg><svg xmlns="http://www.w3.org/2000/svg" xmlns:xlink="http://www.w3.org/1999/xlink" width="226" height="312" viewBox="0 0 1 1" version="1.1" y="312"><g id="surface1"></g></svg><svg xmlns="http://www.w3.org/2000/svg" xmlns:xlink="http://www.w3.org/1999/xlink" width="226" height="312" viewBox="0 0 400 400" version="1.1" y="624"><g id="surface1"><path style=" stroke:none;fill-rule:nonzero;fill:rgb(0%,0%,0%);fill-opacity:1;" d="M 214.742188 102.570312 C 213.4375 102.769531 212.183594 107.570312 209.664062 110.070312 C 207.824219 111.875 205.523438 111.761719 204.300781 113.992188 C 203.839844 114.828125 203.988281 116.25 203.460938 117.617188 C 202.433594 120.347656 198.8125 120.59375 198.8125 123.570312 C 198.800781 126.785156 201.832031 127.398438 204.457031 129.679688 C 206.507812 131.515625 206.707031 132.78125 209.191406 133.671875 C 211.308594 134.390625 214.460938 132.035156 217.296875 132.878906 C 219.628906 133.578125 221.859375 134.078125 222.386719 136.472656 C 222.851562 138.675781 222.355469 142.097656 219.53125 141.703125 C 218.578125 141.597656 214.445312 140.207031 209.371094 140.746094 C 203.25 141.441406 196.261719 143.4375 195.578125 150.265625 C 195.203125 154.078125 199.921875 158.578125 204.476562 157.664062 C 207.628906 157.042969 206.136719 153.328125 207.855469 151.523438 C 210.105469 149.210938 222.851562 159.59375 234.699219 159.59375 C 239.6875 159.59375 243.398438 158.335938 247.082031 154.476562 C 247.425781 154.179688 247.847656 153.546875 248.378906 153.507812 C 248.882812 153.546875 249.757812 154.042969 250.046875 154.253906 C 259.589844 161.925781 266.800781 177.308594 301.875 177.492188 C 306.808594 177.515625 312.425781 179.871094 317.015625 184.058594 C 321.105469 187.84375 323.5 193.726562 325.824219 199.699219 C 329.335938 208.660156 335.625 217.375 345.164062 227.078125 C 345.683594 227.597656 353.535156 233.699219 354.160156 234.15625 C 354.261719 234.21875 354.839844 235.597656 354.636719 236.371094 C 354.40625 242.183594 353.558594 259.097656 366.167969 259.863281 C 369.25 260.019531 368.441406 257.851562 368.441406 256.359375 C 368.4375 253.414062 367.898438 250.488281 369.453125 247.472656 C 371.574219 243.324219 364.945312 241.414062 365.140625 232.445312 C 365.277344 225.761719 359.664062 226.902344 356.8125 221.804688 C 355.171875 218.855469 353.710938 217.289062 353.816406 213.679688 C 354.457031 193.363281 349.492188 180.015625 347.019531 176.738281 C 345.089844 174.265625 343.492188 173.28125 345.257812 172.132812 C 355.777344 165.183594 358.167969 158.71875 358.167969 158.71875 C 363.761719 145.5625 368.792969 133.550781 375.730469 128.261719 C 377.128906 127.171875 380.710938 124.496094 382.910156 123.445312 C 389.386719 120.390625 392.792969 118.542969 394.675781 116.714844 C 397.648438 113.8125 400 107.765625 397.148438 104.097656 C 393.601562 99.574219 387.46875 103.164062 384.761719 104.769531 C 365.417969 116.25 362.566406 136.503906 355.867188 148.132812 C 350.519531 157.425781 341.828125 164.25 334.058594 164.808594 C 328.230469 165.242188 321.953125 164.0625 315.699219 161.316406 C 300.492188 154.648438 292.167969 146.039062 290.207031 144.519531 C 286.121094 141.367188 254.402344 110.226562 228.703125 108.957031 C 228.703125 108.957031 225.515625 102.570312 224.710938 102.464844 C 222.832031 102.226562 220.90625 106.28125 219.53125 106.75 C 218.230469 107.183594 216.050781 102.359375 214.742188 102.570312 M 101.609375 288.410156 C 99.191406 288.355469 97.136719 286.367188 97.136719 283.914062 L 97.140625 203.753906 L 70.722656 203.753906 L 70.722656 292.113281 C 70.722656 296.445312 74.230469 299.980469 78.535156 299.980469 L 124.714844 299.980469 C 129.050781 299.980469 132.515625 296.445312 132.515625 292.113281 L 132.515625 203.753906 L 106.121094 203.753906 L 106.09375 283.914062 C 106.09375 286.367188 104.039062 288.355469 101.609375 288.410156 M 190.066406 203.753906 L 150.078125 203.753906 C 145.347656 203.753906 141.496094 207.601562 141.496094 212.382812 L 141.496094 299.980469 L 167.9375 299.980469 L 167.9375 219.625 C 167.957031 217.164062 169.949219 215.214844 172.40625 215.214844 C 174.875 215.214844 176.855469 217.121094 176.910156 219.558594 L 176.910156 299.980469 L 203.25 299.980469 L 203.25 219.558594 C 203.28125 217.121094 205.261719 215.214844 207.722656 215.214844 C 210.167969 215.214844 212.183594 217.164062 212.203125 219.625 L 212.203125 299.980469 L 238.648438 299.980469 L 238.648438 212.382812 C 238.648438 207.601562 234.789062 203.753906 230.054688 203.753906 Z M 35.367188 219.796875 C 35.386719 217.121094 33.207031 215.214844 30.894531 215.214844 L 26.40625 215.214844 L 26.40625 263.886719 L 30.894531 263.886719 C 33.222656 263.886719 35.386719 262.03125 35.367188 259.367188 Z M 53.09375 275.796875 L 26.40625 275.796875 L 26.40625 299.980469 L 0 299.980469 L 0 203.753906 L 53.265625 203.753906 C 58.03125 203.753906 61.753906 207.625 61.753906 212.417969 L 61.753906 267.132812 C 61.753906 271.929688 57.890625 275.796875 53.09375 275.796875 M 329.265625 278.460938 C 323.957031 278.460938 319.503906 283.046875 319.503906 288.605469 C 319.503906 294.183594 323.957031 298.730469 329.433594 298.730469 C 334.867188 298.730469 339.265625 294.183594 339.265625 288.605469 C 339.265625 283.035156 334.867188 278.460938 329.433594 278.460938 Z M 341.160156 288.574219 C 341.160156 295.109375 335.921875 300.425781 329.433594 300.425781 C 322.878906 300.425781 317.617188 295.148438 317.617188 288.574219 C 317.617188 282.125 322.878906 276.738281 329.242188 276.738281 C 335.921875 276.738281 341.160156 281.964844 341.160156 288.574219 " /><path style=" stroke:none;fill-rule:nonzero;fill:rgb(0%,0%,0%);fill-opacity:1;" d="M 328.210938 287.824219 C 330.046875 287.824219 331.015625 287.171875 331.015625 285.867188 C 331.015625 284.707031 330.082031 284.113281 328.292969 284.113281 L 327.769531 284.113281 L 327.769531 287.824219 Z M 334.972656 295.429688 L 331.820312 295.429688 L 327.769531 290.035156 L 327.769531 295.429688 L 325.191406 295.429688 L 325.191406 281.789062 L 327.898438 281.789062 C 331.578125 281.789062 333.53125 283.179688 333.53125 285.835938 C 333.53125 287.609375 332.378906 289.183594 330.769531 289.652344 L 330.582031 289.722656 Z M 282.984375 263.902344 L 282.984375 219.59375 C 282.917969 217.144531 280.945312 215.265625 278.484375 215.265625 C 276.046875 215.265625 274.027344 217.21875 274.007812 219.664062 L 274.007812 263.902344 Z M 282.984375 299.980469 L 282.984375 275.824219 L 274.007812 275.824219 L 274.007812 299.980469 L 247.617188 299.980469 L 247.617188 212.382812 C 247.617188 207.601562 251.46875 203.753906 256.199219 203.753906 L 300.792969 203.753906 C 305.535156 203.753906 309.390625 207.601562 309.390625 212.382812 L 309.390625 299.980469 Z M 282.984375 299.980469 " /></g></svg></svg>