<svg xmlns="http://www.w3.org/2000/svg" xmlns:xlink="http://www.w3.org/1999/xlink" version="1.1" width="1000" height="1000" viewBox="0 0 1000 1000" xml:space="preserve">
<desc>Created with Fabric.js 3.5.0</desc>
<defs>
</defs>
<rect x="0" y="0" width="100%" height="100%" fill="#ffffff"/>
<g transform="matrix(1.4387 0 0 1.0509 495.9064 500.0179)" id="155644">
<g style="" vector-effect="non-scaling-stroke">
		<g transform="matrix(1 0 0 1 -0.2266 -317.582)" id="surface1">
<path style="stroke: none; stroke-width: 1; stroke-dasharray: none; stroke-linecap: butt; stroke-dashoffset: 0; stroke-linejoin: miter; stroke-miterlimit: 4; is-custom-font: none; font-file-url: none; fill: rgb(209,53,51); fill-rule: evenodd; opacity: 1;" transform=" translate(-112.7734, -150.418)" d="M 222.148438 150.421875 C 222.148438 212.207031 173.179688 262.292969 112.773438 262.292969 C 52.367188 262.292969 3.398438 212.207031 3.398438 150.421875 C 3.398438 88.632812 52.367188 38.542969 112.773438 38.542969 C 173.179688 38.542969 222.148438 88.632812 222.148438 150.421875" stroke-linecap="round"/>
</g>
		<g transform="matrix(1 0 0 1 -58.2696 -356.1211)" id="surface1">
<path style="stroke: none; stroke-width: 1; stroke-dasharray: none; stroke-linecap: butt; stroke-dashoffset: 0; stroke-linejoin: miter; stroke-miterlimit: 4; is-custom-font: none; font-file-url: none; fill: rgb(237,58,56); fill-rule: nonzero; opacity: 1;" transform=" translate(-54.7305, -111.8789)" d="M 7.855469 178.128906 C 7.855469 178.128906 -0.0625 61.460938 107.4375 58.128906 L 99.9375 45.628906 L 41.605469 65.210938 L 24.9375 84.378906 L 10.355469 112.296875 L 2.023438 144.796875 L 4.523438 166.460938" stroke-linecap="round"/>
</g>
		<g transform="matrix(1 0 0 1 -0.2285 -317.1641)" id="surface1">
<path style="stroke: none; stroke-width: 1; stroke-dasharray: none; stroke-linecap: butt; stroke-dashoffset: 0; stroke-linejoin: miter; stroke-miterlimit: 4; is-custom-font: none; font-file-url: none; fill: rgb(33,30,30); fill-rule: nonzero; opacity: 1;" transform=" translate(-112.7715, -150.8359)" d="M 37.859375 74.101562 C 18.671875 93.734375 6.796875 120.847656 6.796875 150.835938 C 6.796875 180.824219 18.671875 207.9375 37.859375 227.566406 C 57.058594 247.199219 83.519531 259.3125 112.769531 259.3125 C 142.023438 259.3125 168.484375 247.199219 187.683594 227.566406 C 206.871094 207.9375 218.75 180.824219 218.75 150.835938 C 218.75 120.847656 206.871094 93.734375 187.683594 74.101562 C 168.484375 54.472656 142.023438 42.359375 112.769531 42.359375 C 83.519531 42.359375 57.058594 54.472656 37.859375 74.101562 Z M 33.003906 232.316406 C 12.609375 211.460938 0 182.632812 0 150.835938 C 0 119.035156 12.609375 90.214844 33.003906 69.355469 C 53.394531 48.492188 81.617188 35.5625 112.769531 35.566406 C 143.925781 35.5625 172.152344 48.492188 192.539062 69.355469 C 212.933594 90.214844 225.546875 119.039062 225.542969 150.835938 C 225.546875 182.632812 212.933594 211.460938 192.539062 232.316406 C 172.152344 253.179688 143.925781 266.105469 112.769531 266.105469 C 81.617188 266.105469 53.394531 253.179688 33.003906 232.316406" stroke-linecap="round"/>
</g>
		<g transform="matrix(1 0 0 1 1.6465 -387.3769)" id="surface1">
<path style="stroke: none; stroke-width: 1; stroke-dasharray: none; stroke-linecap: butt; stroke-dashoffset: 0; stroke-linejoin: miter; stroke-miterlimit: 4; is-custom-font: none; font-file-url: none; fill: rgb(239,211,181); fill-rule: evenodd; opacity: 1;" transform=" translate(-114.6465, -80.623)" d="M 158.8125 151.039062 L 142.144531 153.539062 L 119.644531 156.039062 L 105.0625 156.457031 L 90.894531 156.039062 L 80.0625 152.707031 L 70.476562 142.289062 L 62.976562 121.039062 L 61.3125 116.457031 L 51.3125 113.125 L 45.476562 103.539062 L 41.3125 89.789062 L 45.894531 77.707031 L 56.726562 73.957031 L 65.476562 78.125 L 69.644531 87.289062 L 74.644531 86.457031 L 76.3125 84.375 L 74.644531 74.789062 L 74.226562 62.707031 L 76.726562 46.039062 L 76.632812 36.519531 L 84.226562 24.375 L 97.5625 14.789062 L 120.894531 4.789062 L 146.730469 8.539062 L 169.230469 24.789062 L 179.644531 41.457031 L 186.3125 53.539062 L 187.980469 83.539062 L 182.980469 109.375 L 173.8125 132.289062 L 165.0625 144.375" stroke-linecap="round"/>
</g>
		<g transform="matrix(1 0 0 1 -24.8125 -258.627)" id="surface1">
<path style="stroke: none; stroke-width: 1; stroke-dasharray: none; stroke-linecap: butt; stroke-dashoffset: 0; stroke-linejoin: miter; stroke-miterlimit: 4; is-custom-font: none; font-file-url: none; fill: rgb(51,79,96); fill-rule: evenodd; opacity: 1;" transform=" translate(-88.1875, -209.373)" d="M 144.644531 223.121094 L 85.0625 225.621094 L 85.0625 235.621094 L 90.0625 270.621094 L 87.5625 273.539062 L 45.894531 259.371094 L 42.976562 254.371094 L 38.8125 207.289062 L 29.230469 178.957031 L 27.144531 172.289062 L 60.476562 149.375 L 70.894531 145.207031 L 80.0625 156.457031 L 87.976562 163.539062 L 97.144531 166.457031 L 101.3125 167.707031 L 106.3125 189.371094 L 110.0625 193.957031 L 119.644531 190.621094 L 112.976562 203.539062 L 149.230469 220.621094 L 144.644531 223.121094" stroke-linecap="round"/>
</g>
		<g transform="matrix(1 0 0 1 -42.1054 -420.0859)" id="surface1">
<path style="stroke: none; stroke-width: 1; stroke-dasharray: none; stroke-linecap: butt; stroke-dashoffset: 0; stroke-linejoin: miter; stroke-miterlimit: 4; is-custom-font: none; font-file-url: none; fill: rgb(107,104,107); fill-rule: evenodd; opacity: 1;" transform=" translate(-70.8945, -47.9141)" d="M 45.894531 77.707031 L 56.726562 73.957031 L 65.476562 78.125 L 69.644531 87.289062 L 74.644531 86.457031 L 75.894531 81.457031 L 73.394531 71.875 L 75.894531 48.957031 L 73.8125 36.457031 L 81.3125 27.707031 L 97.5625 14.789062 L 92.976562 8.539062 L 70.0625 19.789062 L 60.476562 27.289062 L 55.0625 38.957031 L 46.726562 50.207031 L 44.226562 63.539062 L 45.894531 77.707031" stroke-linecap="round"/>
</g>
		<g transform="matrix(1 0 0 1 -33.4671 -443.3416)" id="surface1">
<path style="stroke: none; stroke-width: 1; stroke-dasharray: none; stroke-linecap: butt; stroke-dashoffset: 0; stroke-linejoin: miter; stroke-miterlimit: 4; is-custom-font: none; font-file-url: none; fill: rgb(219,216,214); fill-rule: evenodd; opacity: 1;" transform=" translate(-79.5329, -24.6583)" d="M 62.976562 38.539062 C 62.976562 38.539062 69.226562 23.125 94.226562 15.625 C 119.226562 8.125 95.476562 10.207031 95.476562 10.207031 L 68.394531 20.625 L 57.976562 31.039062 L 53.394531 39.375 L 62.976562 38.539062" stroke-linecap="round"/>
</g>
		<g transform="matrix(1 0 0 1 -53.3554 -410.918)" id="surface1">
<path style="stroke: none; stroke-width: 1; stroke-dasharray: none; stroke-linecap: butt; stroke-dashoffset: 0; stroke-linejoin: miter; stroke-miterlimit: 4; is-custom-font: none; font-file-url: none; fill: rgb(219,216,214); fill-rule: evenodd; opacity: 1;" transform=" translate(-59.6445, -57.082)" d="M 50.476562 74.789062 C 50.476562 74.789062 41.726562 45.621094 75.0625 41.457031 L 73.8125 36.457031 L 50.894531 41.875 L 44.226562 63.539062 L 45.894531 77.707031 L 50.476562 74.789062" stroke-linecap="round"/>
</g>
		<g transform="matrix(1 0 0 1 -35.1679 -336.3298)" id="surface1">
<path style="stroke: none; stroke-width: 1; stroke-dasharray: none; stroke-linecap: butt; stroke-dashoffset: 0; stroke-linejoin: miter; stroke-miterlimit: 4; is-custom-font: none; font-file-url: none; fill: rgb(244,226,204); fill-rule: evenodd; opacity: 1;" transform=" translate(-77.8321, -131.6702)" d="M 63.8125 113.539062 L 69.269531 108.253906 C 69.269531 108.253906 71.730469 108.539062 72.144531 111.457031 C 72.5625 114.375 73.8125 140.625 91.726562 154.792969 C 93.363281 156.082031 78.394531 152.707031 78.394531 152.707031 L 65.0625 131.875" stroke-linecap="round"/>
</g>
		<g transform="matrix(1 0 0 1 31.357 -368.2318)" id="surface1">
<path style="stroke: none; stroke-width: 1; stroke-dasharray: none; stroke-linecap: butt; stroke-dashoffset: 0; stroke-linejoin: miter; stroke-miterlimit: 4; is-custom-font: none; font-file-url: none; fill: rgb(244,226,204); fill-rule: evenodd; opacity: 1;" transform=" translate(-144.3569, -99.7682)" d="M 140.480469 105.625 C 140.480469 105.625 141.453125 92.992188 144.855469 93.964844 C 148.253906 94.9375 148.253906 98.335938 148.253906 98.335938 C 148.253906 98.335938 139.996094 103.679688 140.480469 105.625" stroke-linecap="round"/>
</g>
		<g transform="matrix(1 0 0 1 58.92 -403.3585)" id="surface1">
<path style="stroke: none; stroke-width: 1; stroke-dasharray: none; stroke-linecap: butt; stroke-dashoffset: 0; stroke-linejoin: miter; stroke-miterlimit: 4; is-custom-font: none; font-file-url: none; fill: rgb(244,226,204); fill-rule: nonzero; opacity: 1;" transform=" translate(-171.92, -64.6415)" d="M 175.0625 59.375 C 175.0625 59.375 168.195312 60.824219 167.5625 66.875 C 166.929688 72.925781 175.0625 68.125 176.3125 67.707031" stroke-linecap="round"/>
</g>
		<g transform="matrix(1 0 0 1 9.1446 -402.338)" id="surface1">
<path style="stroke: none; stroke-width: 1; stroke-dasharray: none; stroke-linecap: butt; stroke-dashoffset: 0; stroke-linejoin: miter; stroke-miterlimit: 4; is-custom-font: none; font-file-url: none; fill: rgb(244,226,204); fill-rule: nonzero; opacity: 1;" transform=" translate(-122.1445, -65.6619)" d="M 124.644531 59.792969 C 124.644531 59.792969 115.476562 61.042969 115.476562 66.875 C 115.476562 72.707031 125.894531 72.292969 128.8125 69.792969" stroke-linecap="round"/>
</g>
		<g transform="matrix(1 0 0 1 -58.5645 -374.6679)" id="surface1">
<path style="stroke: none; stroke-width: 1; stroke-dasharray: none; stroke-linecap: butt; stroke-dashoffset: 0; stroke-linejoin: miter; stroke-miterlimit: 4; is-custom-font: none; font-file-url: none; fill: rgb(244,226,204); fill-rule: evenodd; opacity: 1;" transform=" translate(-54.4355, -93.332)" d="M 67.976562 86.875 C 67.976562 86.875 52.144531 77.289062 50.476562 86.457031 C 48.8125 95.625 45.0625 102.292969 52.976562 111.875 L 47.5625 110.207031 L 42.5625 97.292969 L 40.894531 84.792969 L 50.476562 74.789062 L 61.3125 75.625 L 67.5625 80.625 L 67.976562 86.875" stroke-linecap="round"/>
</g>
		<g transform="matrix(1 0 0 1 9.143 -437.0381)" id="surface1">
<path style="stroke: none; stroke-width: 1; stroke-dasharray: none; stroke-linecap: butt; stroke-dashoffset: 0; stroke-linejoin: miter; stroke-miterlimit: 4; is-custom-font: none; font-file-url: none; fill: rgb(244,226,204); fill-rule: evenodd; opacity: 1;" transform=" translate(-122.143, -30.9619)" d="M 75.476562 60.625 C 75.476562 60.625 82.5625 23.957031 118.394531 16.875 C 147.898438 11.042969 163.394531 18.125 169.230469 24.789062 C 169.230469 24.789062 142.980469 -6.457031 117.976562 3.125 C 92.976562 12.707031 74.644531 30.207031 75.0625 41.457031 C 75.773438 60.617188 75.476562 60.625 75.476562 60.625" stroke-linecap="round"/>
</g>
		<g transform="matrix(1 0 0 1 54.7695 -432.169)" id="surface1">
<path style="stroke: none; stroke-width: 1; stroke-dasharray: none; stroke-linecap: butt; stroke-dashoffset: 0; stroke-linejoin: miter; stroke-miterlimit: 4; is-custom-font: none; font-file-url: none; fill: rgb(244,226,204); fill-rule: evenodd; opacity: 1;" transform=" translate(-167.7695, -35.831)" d="M 172.144531 28.957031 C 172.144531 28.957031 160.0625 28.539062 159.644531 39.375 C 159.644531 39.375 159.644531 41.039062 160.480469 42.707031 C 160.480469 42.707031 170.0625 31.871094 175.894531 37.707031" stroke-linecap="round"/>
</g>
		<g transform="matrix(1 0 0 1 -5.7524 -422.5518)" id="surface1">
<path style="stroke: none; stroke-width: 1; stroke-dasharray: none; stroke-linecap: butt; stroke-dashoffset: 0; stroke-linejoin: miter; stroke-miterlimit: 4; is-custom-font: none; font-file-url: none; fill: rgb(244,226,204); fill-rule: evenodd; opacity: 1;" transform=" translate(-107.2476, -45.4482)" d="M 119.234375 43.835938 C 119.234375 43.835938 117.15625 27.207031 102.976562 36.875 C 93.8125 43.125 94.644531 51.875 96.3125 53.539062 C 97.976562 55.207031 97.523438 58.5625 98.792969 56.261719 C 100.0625 53.957031 99.644531 46.457031 104.226562 44.375 C 108.8125 42.289062 116.324219 39.960938 119.234375 43.835938" stroke-linecap="round"/>
</g>
		<g transform="matrix(1 0 0 1 -59.3965 -266.334)" id="surface1">
<path style="stroke: none; stroke-width: 1; stroke-dasharray: none; stroke-linecap: butt; stroke-dashoffset: 0; stroke-linejoin: miter; stroke-miterlimit: 4; is-custom-font: none; font-file-url: none; fill: rgb(71,112,137); fill-rule: evenodd; opacity: 1;" transform=" translate(-53.6035, -201.666)" d="M 80.0625 156.457031 L 40.894531 173.957031 C 40.894531 173.957031 57.144531 238.539062 48.8125 258.539062 L 42.976562 256.457031 L 42.5625 231.875 L 31.730469 185.207031 L 27.144531 172.289062 L 67.976562 144.792969 L 80.0625 156.457031" stroke-linecap="round"/>
</g>
		<g transform="matrix(1 0 0 1 -27.1055 -259.9316)" id="surface1">
<path style="stroke: none; stroke-width: 1; stroke-dasharray: none; stroke-linecap: butt; stroke-dashoffset: 0; stroke-linejoin: miter; stroke-miterlimit: 4; is-custom-font: none; font-file-url: none; fill: rgb(71,112,137); fill-rule: evenodd; opacity: 1;" transform=" translate(-85.8945, -208.0684)" d="M 84.089844 192.179688 L 89.644531 198.957031 L 89.644531 223.957031 L 82.976562 223.957031 C 82.976562 223.957031 82.144531 206.457031 82.144531 204.375 C 82.144531 202.289062 82.976562 194.789062 82.976562 194.789062" stroke-linecap="round"/>
</g>
		<g transform="matrix(1 0 0 1 -38.1484 -236.959)" id="surface1">
<path style="stroke: none; stroke-width: 1; stroke-dasharray: none; stroke-linecap: butt; stroke-dashoffset: 0; stroke-linejoin: miter; stroke-miterlimit: 4; is-custom-font: none; font-file-url: none; fill: rgb(71,112,137); fill-rule: evenodd; opacity: 1;" transform=" translate(-74.8516, -231.041)" d="M 84.226562 227.707031 L 65.476562 228.539062 L 70.894531 232.289062 L 84.226562 234.375" stroke-linecap="round"/>
</g>
		<g transform="matrix(1 0 0 1 44.9785 -224.668)" id="surface1">
<path style="stroke: none; stroke-width: 1; stroke-dasharray: none; stroke-linecap: butt; stroke-dashoffset: 0; stroke-linejoin: miter; stroke-miterlimit: 4; is-custom-font: none; font-file-url: none; fill: rgb(51,79,96); fill-rule: evenodd; opacity: 1;" transform=" translate(-157.9785, -243.332)" d="M 148.394531 223.539062 L 163.8125 223.125 L 167.5625 261.457031 L 151.730469 263.539062 L 148.394531 223.539062" stroke-linecap="round"/>
</g>
		<g transform="matrix(1 0 0 1 60.1875 -286.752)" id="surface1">
<path style="stroke: none; stroke-width: 1; stroke-dasharray: none; stroke-linecap: butt; stroke-dashoffset: 0; stroke-linejoin: miter; stroke-miterlimit: 4; is-custom-font: none; font-file-url: none; fill: rgb(51,79,96); fill-rule: evenodd; opacity: 1;" transform=" translate(-173.1875, -181.248)" d="M 152.5625 223.539062 L 175.894531 222.289062 C 175.894531 222.289062 185.480469 198.125 185.480469 196.875 C 185.480469 195.625 193.8125 161.875 193.8125 161.875 L 175.0625 142.292969 L 171.3125 138.957031 L 161.3125 148.957031 L 161.3125 187.707031 L 152.5625 223.539062" stroke-linecap="round"/>
</g>
		<g transform="matrix(1 0 0 1 43.7285 -239.8036)" id="surface1">
<path style="stroke: none; stroke-width: 1; stroke-dasharray: none; stroke-linecap: butt; stroke-dashoffset: 0; stroke-linejoin: miter; stroke-miterlimit: 4; is-custom-font: none; font-file-url: none; fill: rgb(71,112,137); fill-rule: evenodd; opacity: 1;" transform=" translate(-156.7285, -228.1964)" d="M 162.980469 220.625 L 148.394531 223.539062 L 150.480469 235.207031 C 155.894531 237.707031 165.0625 231.039062 165.0625 231.039062" stroke-linecap="round"/>
</g>
		<g transform="matrix(1 0 0 1 65.3945 -313.834)" id="surface1">
<path style="stroke: none; stroke-width: 1; stroke-dasharray: none; stroke-linecap: butt; stroke-dashoffset: 0; stroke-linejoin: miter; stroke-miterlimit: 4; is-custom-font: none; font-file-url: none; fill: rgb(71,112,137); fill-rule: evenodd; opacity: 1;" transform=" translate(-178.3945, -154.166)" d="M 163.394531 147.707031 L 192.5625 169.375 L 193.394531 159.375 L 171.3125 138.957031 L 163.394531 147.707031" stroke-linecap="round"/>
</g>
		<g transform="matrix(1 0 0 1 4.5 -201.3339)" id="surface1">
<path style="stroke: none; stroke-width: 1; stroke-dasharray: none; stroke-linecap: butt; stroke-dashoffset: 0; stroke-linejoin: miter; stroke-miterlimit: 4; is-custom-font: none; font-file-url: none; fill: rgb(255,255,255); fill-rule: evenodd; opacity: 1;" transform=" translate(-117.5, -266.666)" d="M 98.6875 305.628906 L 90.0625 270.621094 L 85.773438 244.792969 L 85.0625 225.621094 L 124.105469 223.542969 L 148.394531 223.539062 L 146.1875 267.292969 L 149.9375 301.042969 L 149.519531 307.292969 L 117.855469 309.792969 L 98.6875 305.628906" stroke-linecap="round"/>
</g>
		<g transform="matrix(1 0 0 1 22.8965 -204.0449)" id="surface1">
<path style="stroke: none; stroke-width: 1; stroke-dasharray: none; stroke-linecap: butt; stroke-dashoffset: 0; stroke-linejoin: miter; stroke-miterlimit: 4; is-custom-font: none; font-file-url: none; fill: rgb(219,216,214); fill-rule: evenodd; opacity: 1;" transform=" translate(-135.8965, -263.9551)" d="M 142.980469 223.125 C 142.980469 223.125 140.894531 266.457031 147.144531 297.289062 C 147.144531 297.289062 134.644531 305.207031 116.3125 307.289062 L 151.3125 306.039062 L 155.480469 303.539062 L 150.480469 235.207031 L 149.230469 220.621094" stroke-linecap="round"/>
</g>
		<g transform="matrix(1 0 0 1 78.875 -232.9961)" id="surface1">
<path style="stroke: none; stroke-width: 1; stroke-dasharray: none; stroke-linecap: butt; stroke-dashoffset: 0; stroke-linejoin: miter; stroke-miterlimit: 4; is-custom-font: none; font-file-url: none; fill: rgb(255,255,255); fill-rule: evenodd; opacity: 1;" transform=" translate(-191.875, -235.0039)" d="M 168.273438 258.128906 L 184.523438 253.542969 L 215.355469 251.878906 L 219.9375 237.710938 L 211.605469 213.128906 L 202.023438 211.878906 L 188.6875 216.042969 L 175.894531 222.289062 L 169.105469 221.042969 L 163.8125 223.125" stroke-linecap="round"/>
</g>
		<g transform="matrix(1 0 0 1 80.6055 -228.627)" id="surface1">
<path style="stroke: none; stroke-width: 1; stroke-dasharray: none; stroke-linecap: butt; stroke-dashoffset: 0; stroke-linejoin: miter; stroke-miterlimit: 4; is-custom-font: none; font-file-url: none; fill: rgb(219,216,214); fill-rule: evenodd; opacity: 1;" transform=" translate(-193.6055, -239.373)" d="M 167.980469 249.789062 C 167.980469 249.789062 178.8125 244.789062 180.480469 245.207031 L 175.894531 222.289062 L 181.3125 220.207031 C 181.3125 220.207031 185.0625 241.875 185.0625 244.375 C 185.0625 244.375 208.394531 245.625 210.480469 245.625 C 210.480469 245.625 215.480469 236.039062 214.230469 226.039062 L 218.8125 239.375 L 219.230469 246.875 L 212.5625 256.875 L 205.0625 258.539062 L 192.5625 258.125 L 188.394531 252.707031 L 173.8125 254.789062 L 169.230469 256.457031" stroke-linecap="round"/>
</g>
		<g transform="matrix(1 0 0 1 31.7305 -269.248)" id="surface1">
<path style="stroke: none; stroke-width: 1; stroke-dasharray: none; stroke-linecap: butt; stroke-dashoffset: 0; stroke-linejoin: miter; stroke-miterlimit: 4; is-custom-font: none; font-file-url: none; fill: rgb(255,255,255); fill-rule: nonzero; opacity: 1;" transform=" translate(-144.7305, -198.752)" d="M 151.605469 220.210938 L 142.4375 196.878906 L 132.855469 183.128906 C 132.855469 183.128906 134.9375 177.292969 137.855469 177.292969 C 140.773438 177.292969 147.4375 177.292969 147.4375 177.292969 L 156.605469 180.628906 L 155.773438 196.042969 L 151.605469 220.210938" stroke-linecap="round"/>
</g>
		<g transform="matrix(1 0 0 1 31.0195 -271.543)" id="surface1">
<path style="stroke: none; stroke-width: 1; stroke-dasharray: none; stroke-linecap: butt; stroke-dashoffset: 0; stroke-linejoin: miter; stroke-miterlimit: 4; is-custom-font: none; font-file-url: none; fill: rgb(219,216,214); fill-rule: evenodd; opacity: 1;" transform=" translate(-144.0195, -196.457)" d="M 153.394531 212.289062 C 153.394531 212.289062 141.730469 189.789062 141.730469 186.457031 C 141.730469 186.457031 143.8125 181.457031 146.730469 182.707031 C 149.644531 183.957031 155.894531 187.289062 155.894531 187.289062 L 155.894531 179.375 L 141.730469 176.457031 L 132.144531 177.707031 L 148.394531 216.039062 L 151.730469 216.457031" stroke-linecap="round"/>
</g>
		<g transform="matrix(1 0 0 1 -21.75 -306.75)" id="surface1">
<path style="stroke: none; stroke-width: 1; stroke-dasharray: none; stroke-linecap: butt; stroke-dashoffset: 0; stroke-linejoin: miter; stroke-miterlimit: 4; is-custom-font: none; font-file-url: none; fill: rgb(255,255,255); fill-rule: nonzero; opacity: 1;" transform=" translate(-91.25, -161.25)" d="M 102.4375 157.296875 L 90.894531 156.039062 L 80.0625 152.707031 L 80.0625 156.457031 L 85.355469 162.292969 L 102.023438 169.792969" stroke-linecap="round"/>
</g>
		<g transform="matrix(1 0 0 1 -21.0625 -304.875)" id="surface1">
<path style="stroke: none; stroke-width: 1; stroke-dasharray: none; stroke-linecap: butt; stroke-dashoffset: 0; stroke-linejoin: miter; stroke-miterlimit: 4; is-custom-font: none; font-file-url: none; fill: rgb(219,216,214); fill-rule: evenodd; opacity: 1;" transform=" translate(-91.9375, -163.125)" d="M 83.8125 158.542969 C 83.8125 158.542969 96.730469 163.960938 100.898438 162.710938 L 101.3125 167.707031 L 89.648438 165.210938 L 82.5625 160.210938 L 83.8125 158.542969" stroke-linecap="round"/>
</g>
		<g transform="matrix(1 0 0 1 45.7162 -300.8337)" id="surface1">
<path style="stroke: none; stroke-width: 1; stroke-dasharray: none; stroke-linecap: butt; stroke-dashoffset: 0; stroke-linejoin: miter; stroke-miterlimit: 4; is-custom-font: none; font-file-url: none; fill: rgb(209,53,51); fill-rule: evenodd; opacity: 1;" transform=" translate(-158.7162, -167.1663)" d="M 168.226562 178.710938 C 161.15625 178.503906 154.769531 177.664062 149.175781 176.085938 C 149.558594 173.796875 148.847656 171.546875 149.417969 169.894531 C 150.976562 168.769531 153.589844 168.789062 155.945312 168.523438 C 153.90625 167.523438 151.046875 167.128906 148.695312 167.707031 C 148.640625 166.113281 147.925781 165.128906 147.492188 163.882812 C 151.46875 162.464844 160.851562 153.164062 166.128906 156.242188 C 168.644531 157.707031 169.714844 166.078125 169.910156 170.144531 C 170.070312 173.519531 169.601562 176.925781 168.226562 178.710938" stroke-linecap="round"/>
</g>
		<g transform="matrix(1.25 0 0 -1.25 45.7162 -300.8338)" id="surface1">
<path style="stroke: rgb(209,53,51); stroke-width: 2; stroke-dasharray: none; stroke-linecap: butt; stroke-dashoffset: 0; stroke-linejoin: miter; stroke-miterlimit: 4; is-custom-font: none; font-file-url: none; fill: none; fill-rule: nonzero; opacity: 1;" transform=" translate(-126.973, -115.867)" d="M 134.58125 106.63125 C 128.925 106.796875 123.815625 107.46875 119.340625 108.73125 C 119.646875 110.5625 119.078125 112.3625 119.534375 113.684375 C 120.78125 114.584375 122.871875 114.56875 124.75625 114.78125 C 123.125 115.58125 120.8375 115.896875 118.95625 115.434375 C 118.9125 116.709375 118.340625 117.496875 117.99375 118.49375 C 121.175 119.628125 128.68125 127.06875 132.903125 124.60625 C 134.915625 123.434375 135.771875 116.7375 135.928125 113.484375 C 136.05625 110.784375 135.68125 108.059375 134.58125 106.63125 Z M 134.58125 106.63125" stroke-linecap="round"/>
</g>
		<g transform="matrix(1 0 0 1 6.2534 -293.7343)" id="surface1">
<path style="stroke: none; stroke-width: 1; stroke-dasharray: none; stroke-linecap: butt; stroke-dashoffset: 0; stroke-linejoin: miter; stroke-miterlimit: 4; is-custom-font: none; font-file-url: none; fill: rgb(209,53,51); fill-rule: evenodd; opacity: 1;" transform=" translate(-119.2534, -174.2657)" d="M 134.417969 167.15625 C 134.398438 167.691406 134.378906 168.230469 134.355469 168.769531 C 132.148438 170.21875 128.585938 170.203125 126.164062 171.421875 C 129.734375 171.578125 132.546875 172.4375 134.976562 173.648438 C 134.921875 174.996094 134.871094 176.34375 134.820312 177.691406 C 130.773438 180.460938 127.078125 184.585938 122.3125 187.183594 C 120.0625 188.410156 112.15625 191.570312 109.757812 191.011719 C 108.402344 190.699219 108.28125 189.015625 107.738281 187.429688 C 106.585938 184.035156 103.925781 178.628906 103.695312 173.515625 C 103.398438 167.058594 102.746094 156.234375 109.707031 157.566406 C 115.320312 158.636719 121.851562 161.222656 126.195312 163.597656 C 128.851562 165.050781 130.390625 166.84375 134.417969 167.15625" stroke-linecap="round"/>
</g>
		<g transform="matrix(1.25 0 0 -1.25 6.2534 -293.7343)" id="surface1">
<path style="stroke: rgb(209,53,51); stroke-width: 2; stroke-dasharray: none; stroke-linecap: butt; stroke-dashoffset: 0; stroke-linejoin: miter; stroke-miterlimit: 4; is-custom-font: none; font-file-url: none; fill: none; fill-rule: nonzero; opacity: 1;" transform=" translate(-95.4027, -110.1875)" d="M 107.534375 115.875 C 107.51875 115.446875 107.503125 115.015625 107.484375 114.584375 C 105.71875 113.425 102.86875 113.4375 100.93125 112.4625 C 103.7875 112.3375 106.0375 111.65 107.98125 110.68125 C 107.9375 109.603125 107.896875 108.525 107.85625 107.446875 C 104.61875 105.23125 101.6625 101.93125 97.85 99.853125 C 96.05 98.871875 89.725 96.34375 87.80625 96.790625 C 86.721875 97.040625 86.625 98.3875 86.190625 99.65625 C 85.26875 102.371875 83.140625 106.696875 82.95625 110.7875 C 82.71875 115.953125 82.196875 124.6125 87.765625 123.546875 C 92.25625 122.690625 97.48125 120.621875 100.95625 118.721875 C 103.08125 117.559375 104.3125 116.125 107.534375 115.875 Z M 107.534375 115.875" stroke-linecap="round"/>
</g>
		<g transform="matrix(1 0 0 1 28.2851 -297.4352)" id="surface1">
<path style="stroke: none; stroke-width: 1; stroke-dasharray: none; stroke-linecap: butt; stroke-dashoffset: 0; stroke-linejoin: miter; stroke-miterlimit: 4; is-custom-font: none; font-file-url: none; fill: rgb(209,53,51); fill-rule: evenodd; opacity: 1;" transform=" translate(-141.2851, -170.5648)" d="M 138.4375 174.859375 C 137.820312 171.34375 137.105469 170.339844 137.382812 167.269531 C 146.765625 161.015625 148.523438 178.015625 138.4375 174.859375" stroke-linecap="round"/>
</g>
		<g transform="matrix(1.25 0 0 -1.25 28.2851 -297.4352)" id="surface1">
<path style="stroke: rgb(209,53,51); stroke-width: 2; stroke-dasharray: none; stroke-linecap: butt; stroke-dashoffset: 0; stroke-linejoin: miter; stroke-miterlimit: 4; is-custom-font: none; font-file-url: none; fill: none; fill-rule: nonzero; opacity: 1;" transform=" translate(-113.028, -113.1482)" d="M 110.75 109.7125 C 110.25625 112.525 109.684375 113.328125 109.90625 115.784375 C 117.4125 120.7875 118.81875 107.1875 110.75 109.7125 Z M 110.75 109.7125" stroke-linecap="round"/>
</g>
		<g transform="matrix(1 0 0 1 45.2715 -302.7891)" id="surface1">
<path style="stroke: none; stroke-width: 1; stroke-dasharray: none; stroke-linecap: butt; stroke-dashoffset: 0; stroke-linejoin: miter; stroke-miterlimit: 4; is-custom-font: none; font-file-url: none; fill: rgb(237,58,56); fill-rule: evenodd; opacity: 1;" transform=" translate(-158.2715, -165.2109)" d="M 152.019531 177.710938 C 152.019531 177.710938 149.105469 173.542969 151.1875 172.292969 C 153.269531 171.042969 155.355469 172.296875 156.605469 170.210938 C 157.855469 168.128906 156.605469 166.878906 157.019531 164.378906 C 157.4375 161.878906 159.523438 161.460938 161.605469 161.042969 C 163.6875 160.628906 169.523438 159.792969 170.355469 161.878906 L 167.855469 154.378906 L 162.855469 152.710938 L 147.019531 161.878906 L 146.1875 166.460938 L 146.1875 175.628906" stroke-linecap="round"/>
</g>
		<g transform="matrix(1 0 0 1 7.9476 -294.6606)" id="surface1">
<path style="stroke: none; stroke-width: 1; stroke-dasharray: none; stroke-linecap: butt; stroke-dashoffset: 0; stroke-linejoin: miter; stroke-miterlimit: 4; is-custom-font: none; font-file-url: none; fill: rgb(237,58,56); fill-rule: evenodd; opacity: 1;" transform=" translate(-120.9476, -173.3394)" d="M 108.273438 191.460938 C 107.769531 184.957031 107.242188 178.464844 106.652344 171.96875 C 105.769531 162.269531 108.980469 163.960938 117.390625 163.960938 C 118.675781 163.960938 125.296875 165.492188 125.769531 166.460938 C 128.042969 171.101562 121.972656 170.070312 128.390625 173.570312 C 133.804688 176.523438 143.375 171.777344 141.1875 165.210938 C 139.960938 163.75 134.804688 164.757812 132.957031 163.796875 C 129.703125 162.109375 126.445312 160.421875 123.191406 158.734375 C 119.050781 156.585938 109.476562 153.453125 105.0625 156.457031 C 93.875 164.066406 105.769531 183.078125 109.757812 191.011719" stroke-linecap="round"/>
</g>
		<g transform="matrix(1 0 0 1 -4.6587 -421.324)" id="surface1">
<path style="stroke: none; stroke-width: 1; stroke-dasharray: none; stroke-linecap: butt; stroke-dashoffset: 0; stroke-linejoin: miter; stroke-miterlimit: 4; is-custom-font: none; font-file-url: none; fill: rgb(33,30,30); fill-rule: evenodd; opacity: 1;" transform=" translate(-108.3413, -46.6761)" d="M 119.234375 43.835938 C 107.878906 41.191406 102.238281 48.585938 98.792969 56.261719 C 95.71875 55.515625 96.945312 51.335938 97.71875 49.203125 C 99.753906 43.613281 107.945312 36.171875 114.636719 37.183594 C 117.519531 37.617188 121.414062 40.25 119.234375 43.835938" stroke-linecap="round"/>
</g>
		<g transform="matrix(1 0 0 1 62.03 -400.5432)" id="surface1">
<path style="stroke: none; stroke-width: 1; stroke-dasharray: none; stroke-linecap: butt; stroke-dashoffset: 0; stroke-linejoin: miter; stroke-miterlimit: 4; is-custom-font: none; font-file-url: none; fill: rgb(33,30,30); fill-rule: evenodd; opacity: 1;" transform=" translate(-175.03, -67.4568)" d="M 174.570312 56.765625 C 174.746094 56.773438 174.929688 56.78125 175.109375 56.789062 C 177.671875 62.121094 179.894531 67.765625 183.132812 72.472656 C 180.964844 77.523438 166.710938 81.996094 166.929688 72.925781 C 170.011719 71.578125 175.332031 72.648438 178.066406 70.929688 C 176.484375 66.59375 174.207031 62.902344 174.570312 56.765625" stroke-linecap="round"/>
</g>
		<g transform="matrix(1 0 0 1 12.5213 -398.8968)" id="surface1">
<path style="stroke: none; stroke-width: 1; stroke-dasharray: none; stroke-linecap: butt; stroke-dashoffset: 0; stroke-linejoin: miter; stroke-miterlimit: 4; is-custom-font: none; font-file-url: none; fill: rgb(33,30,30); fill-rule: evenodd; opacity: 1;" transform=" translate(-125.5213, -69.1032)" d="M 125.050781 56.90625 C 127.484375 61.371094 128.277344 66.058594 131.738281 69.433594 C 133.296875 70.953125 136.328125 72.804688 134.828125 77.027344 C 134.476562 78.023438 131.910156 80.246094 130.425781 80.679688 C 125.015625 82.277344 112.40625 81.011719 116.675781 74.265625 C 121.152344 74.472656 127.167969 77.171875 130.511719 73.921875 C 127.945312 69.816406 123.363281 61.691406 125.050781 56.90625" stroke-linecap="round"/>
</g>
		<g transform="matrix(1 0 0 1 43.7726 -381.3091)" id="surface1">
<path style="stroke: none; stroke-width: 1; stroke-dasharray: none; stroke-linecap: butt; stroke-dashoffset: 0; stroke-linejoin: miter; stroke-miterlimit: 4; is-custom-font: none; font-file-url: none; fill: rgb(33,30,30); fill-rule: evenodd; opacity: 1;" transform=" translate(-156.7725, -86.6909)" d="M 172.539062 102.273438 C 164.390625 107.507812 155.304688 113.199219 141.953125 111.878906 C 139.101562 109.398438 138.015625 103.878906 140.785156 100.234375 C 142.230469 102.714844 141.324219 107.277344 145.34375 107.960938 C 152.917969 109.257812 161.734375 103.328125 167.183594 101.257812 C 170.5625 95.558594 166.890625 93.464844 163.847656 89.796875 C 157.617188 82.289062 149.257812 72.976562 149.5625 61.734375 C 152.078125 59.90625 152.296875 64.519531 152.660156 65.359375 C 155.914062 72.976562 164.101562 82.714844 170.078125 89.230469 C 171.546875 90.835938 173.960938 92.375 174.230469 93.4375 C 175.003906 96.523438 172.214844 100.222656 172.539062 102.273438" stroke-linecap="round"/>
</g>
		<g transform="matrix(1 0 0 1 -55.6589 -375.7959)" id="surface1">
<path style="stroke: none; stroke-width: 1; stroke-dasharray: none; stroke-linecap: butt; stroke-dashoffset: 0; stroke-linejoin: miter; stroke-miterlimit: 4; is-custom-font: none; font-file-url: none; fill: rgb(33,30,30); fill-rule: evenodd; opacity: 1;" transform=" translate(-57.3411, -92.2041)" d="M 65.128906 96.765625 C 62.574219 95.304688 61.964844 88.886719 58.96875 88.703125 C 54.683594 88.445312 55.464844 97.03125 55.480469 102.054688 C 52.53125 99.378906 52.011719 91.132812 54.179688 86.898438 C 51.710938 85.6875 50.609375 88.238281 49.238281 89.136719 C 51 76.347656 67.945312 83.203125 65.128906 96.765625" stroke-linecap="round"/>
</g>
		<g transform="matrix(1 0 0 1 54.4641 -352.7011)" id="surface1">
<path style="stroke: none; stroke-width: 1; stroke-dasharray: none; stroke-linecap: butt; stroke-dashoffset: 0; stroke-linejoin: miter; stroke-miterlimit: 4; is-custom-font: none; font-file-url: none; fill: rgb(33,30,30); fill-rule: evenodd; opacity: 1;" transform=" translate(-167.4641, -115.2988)" d="M 177.726562 107.597656 C 173.933594 114.816406 168.566406 122.765625 157.4375 123 C 157.210938 120.667969 157.039062 117.121094 157.453125 115.714844 C 165.957031 114.898438 171.210938 110.570312 177.726562 107.597656" stroke-linecap="round"/>
</g>
		<g transform="matrix(1 0 0 1 26.5664 -350.1064)" id="surface1">
<path style="stroke: none; stroke-width: 1; stroke-dasharray: none; stroke-linecap: butt; stroke-dashoffset: 0; stroke-linejoin: miter; stroke-miterlimit: 4; is-custom-font: none; font-file-url: none; fill: rgb(33,30,30); fill-rule: evenodd; opacity: 1;" transform=" translate(-139.5664, -117.8937)" d="M 124.410156 112.277344 C 131.507812 116.011719 144.550781 116.414062 154.199219 116.128906 C 154.714844 118.242188 154.703125 120.855469 154.722656 123.433594 C 142.324219 124.050781 127.660156 120.984375 124.410156 112.277344" stroke-linecap="round"/>
</g>
		<g transform="matrix(1 0 0 1 26.5537 -340.4243)" id="surface1">
<path style="stroke: none; stroke-width: 1; stroke-dasharray: none; stroke-linecap: butt; stroke-dashoffset: 0; stroke-linejoin: miter; stroke-miterlimit: 4; is-custom-font: none; font-file-url: none; fill: rgb(33,30,30); fill-rule: evenodd; opacity: 1;" transform=" translate(-139.5538, -127.5757)" d="M 123.058594 119.238281 C 127.96875 131.5625 144.835938 130.144531 159.0625 129.804688 C 158.4375 131.402344 157.078125 133.292969 155.390625 133.976562 C 150.832031 135.832031 138.261719 137.238281 131.929688 133.878906 C 127.917969 131.746094 125.339844 126.921875 123.140625 124.097656 C 122.078125 122.734375 116.789062 119.246094 123.058594 119.238281" stroke-linecap="round"/>
</g>
		<g transform="matrix(1 0 0 1 49.8925 -269.2303)" id="surface1">
<path style="stroke: none; stroke-width: 1; stroke-dasharray: none; stroke-linecap: butt; stroke-dashoffset: 0; stroke-linejoin: miter; stroke-miterlimit: 4; is-custom-font: none; font-file-url: none; fill: rgb(127,175,193); fill-rule: evenodd; opacity: 1;" transform=" translate(-162.8926, -198.7697)" d="M 171.945312 187.21875 C 166.183594 197.082031 160.671875 207.214844 153.839844 215.917969 C 156.703125 207.492188 157.929688 193.394531 158.363281 182.644531 C 164.359375 179.839844 169.488281 183.277344 171.945312 187.21875" stroke-linecap="round"/>
</g>
		<g transform="matrix(1 0 0 1 81.3047 -241.737)" id="surface1">
<path style="stroke: none; stroke-width: 1; stroke-dasharray: none; stroke-linecap: butt; stroke-dashoffset: 0; stroke-linejoin: miter; stroke-miterlimit: 4; is-custom-font: none; font-file-url: none; fill: rgb(33,30,30); fill-rule: evenodd; opacity: 1;" transform=" translate(-194.3047, -226.263)" d="M 202.941406 222.675781 C 196.492188 223.964844 191.960938 230.230469 185.667969 229.832031 C 189.125 224.957031 195.183594 222.902344 202.941406 222.675781" stroke-linecap="round"/>
</g>
		<g transform="matrix(1 0 0 1 84.4043 -235.463)" id="surface1">
<path style="stroke: none; stroke-width: 1; stroke-dasharray: none; stroke-linecap: butt; stroke-dashoffset: 0; stroke-linejoin: miter; stroke-miterlimit: 4; is-custom-font: none; font-file-url: none; fill: rgb(33,30,30); fill-rule: evenodd; opacity: 1;" transform=" translate(-197.4043, -232.537)" d="M 205.785156 232.765625 C 200.527344 233.320312 194.355469 234.171875 189.023438 233.734375 C 191.546875 229.878906 201.269531 231.210938 205.785156 232.765625" stroke-linecap="round"/>
</g>
		<g transform="matrix(1 0 0 1 85.1738 -227.6862)" id="surface1">
<path style="stroke: none; stroke-width: 1; stroke-dasharray: none; stroke-linecap: butt; stroke-dashoffset: 0; stroke-linejoin: miter; stroke-miterlimit: 4; is-custom-font: none; font-file-url: none; fill: rgb(33,30,30); fill-rule: evenodd; opacity: 1;" transform=" translate(-198.1738, -240.3138)" d="M 207.605469 241.46875 C 201.699219 241.59375 194.355469 241.476562 188.742188 241.007812 C 192.0625 237.4375 203.773438 239.683594 207.605469 241.46875" stroke-linecap="round"/>
</g>
		<g transform="matrix(1 0 0 1 46.0025 -190.2023)" id="surface1">
<path style="stroke: none; stroke-width: 1; stroke-dasharray: none; stroke-linecap: butt; stroke-dashoffset: 0; stroke-linejoin: miter; stroke-miterlimit: 4; is-custom-font: none; font-file-url: none; fill: rgb(219,216,214); fill-rule: evenodd; opacity: 1;" transform=" translate(-159.0025, -277.7978)" d="M 160.828125 265.277344 C 161.675781 272.699219 164.617188 280.214844 164.25 288.339844 C 160.984375 289.441406 159.109375 290.40625 154.730469 290.398438 C 154.421875 283.492188 153.5 272.9375 153.773438 266.355469 C 155.925781 266.496094 159.101562 264.816406 160.828125 265.277344" stroke-linecap="round"/>
</g>
		<g transform="matrix(1 0 0 1 26.9316 -308.8195)" id="surface1">
<path style="stroke: none; stroke-width: 1; stroke-dasharray: none; stroke-linecap: butt; stroke-dashoffset: 0; stroke-linejoin: miter; stroke-miterlimit: 4; is-custom-font: none; font-file-url: none; fill: rgb(239,211,181); fill-rule: evenodd; opacity: 1;" transform=" translate(-139.9316, -159.1805)" d="M 151.304688 155.9375 C 148.339844 157.875 145.8125 160.292969 142.964844 162.359375 C 136.648438 162.671875 133.199219 161.921875 128.558594 158.296875 C 128.636719 158.003906 129.101562 158.132812 129.117188 157.777344 C 135.882812 160.789062 144.476562 156.546875 151.304688 155.9375" stroke-linecap="round"/>
</g>
		<g transform="matrix(1 0 0 1 18.4512 -267.3457)" id="surface1">
<path style="stroke: none; stroke-width: 1; stroke-dasharray: none; stroke-linecap: butt; stroke-dashoffset: 0; stroke-linejoin: miter; stroke-miterlimit: 4; is-custom-font: none; font-file-url: none; fill: rgb(127,175,193); fill-rule: evenodd; opacity: 1;" transform=" translate(-131.4512, -200.6543)" d="M 115.804688 202.035156 C 117.664062 193.984375 124.945312 189.816406 131.554688 185.382812 C 138.378906 194.042969 142.527344 205.179688 147.097656 215.925781 C 136.300781 212.671875 125.269531 207.390625 115.804688 202.035156" stroke-linecap="round"/>
</g>
		<g transform="matrix(1 0 0 1 10.0401 -311.9277)" id="surface1">
<path style="stroke: none; stroke-width: 1; stroke-dasharray: none; stroke-linecap: butt; stroke-dashoffset: 0; stroke-linejoin: miter; stroke-miterlimit: 4; is-custom-font: none; font-file-url: none; fill: rgb(33,30,30); fill-rule: evenodd; opacity: 1;" transform=" translate(-123.0401, -156.0723)" d="M 153.773438 266.355469 C 153.5 272.9375 154.421875 283.492188 154.730469 290.398438 C 159.109375 290.40625 160.984375 289.441406 164.25 288.339844 C 164.617188 280.214844 161.675781 272.699219 160.828125 265.277344 C 159.101562 264.816406 155.925781 266.496094 153.773438 266.355469 Z M 85.632812 228.917969 C 88.519531 255.449219 92.699219 277.75 100.363281 301.242188 C 117.378906 306.40625 137.890625 306.855469 152.925781 302.195312 C 150.167969 288.9375 151.371094 272.792969 149.757812 258.644531 C 148.542969 248.011719 149.164062 237.308594 147.496094 226.460938 C 129.273438 222.667969 103.515625 225.574219 85.632812 228.917969 Z M 151.804688 226.625 C 151.648438 238.019531 152.3125 249.257812 153.183594 260.667969 C 157.558594 260.007812 160.527344 259.570312 164.59375 258.679688 C 163.273438 247.699219 163.433594 235.339844 160.746094 225.625 C 157.640625 225.65625 154.902344 225.589844 151.804688 226.625 Z M 173.996094 224.789062 C 171.921875 224.3125 169.503906 224.773438 167.519531 224.808594 C 168.453125 234.097656 170.714844 244.347656 171.511719 254.09375 C 174.632812 254.191406 176.300781 252.71875 178.867188 252.226562 C 179.003906 243.667969 178.121094 231.878906 173.996094 224.789062 Z M 207.601562 255.492188 C 214.109375 253.914062 218.199219 245.945312 216.378906 237.761719 C 215.160156 232.261719 212.984375 221.90625 210.65625 218.386719 C 208.9375 215.785156 204.273438 212.375 200.546875 214.761719 C 194.492188 218.640625 183.820312 219.765625 179.402344 224.460938 C 181.617188 231.835938 182.304688 241.964844 183.21875 251.3125 C 190.785156 251.78125 200.097656 249.226562 206.390625 251.9375 C 201.996094 253.363281 196.296875 253.375 192.5 255.449219 C 195.601562 256.945312 202.867188 256.644531 207.601562 255.492188 Z M 147.097656 215.925781 C 142.527344 205.179688 138.378906 194.042969 131.554688 185.382812 C 124.945312 189.816406 117.664062 193.984375 115.804688 202.035156 C 125.269531 207.390625 136.300781 212.671875 147.097656 215.925781 Z M 158.363281 182.644531 C 157.929688 193.394531 156.703125 207.492188 153.839844 215.917969 C 160.671875 207.214844 166.183594 197.082031 171.945312 187.21875 C 169.488281 183.277344 164.359375 179.839844 158.363281 182.644531 Z M 145.59375 178.109375 C 143.003906 177.828125 140.808594 181.082031 137.441406 179.675781 C 136.671875 180.527344 135.96875 181.453125 135.183594 182.285156 C 142.617188 191.246094 145.996094 203.957031 151.738281 214.488281 C 154.820312 204.371094 154.464844 193.289062 155.144531 182.25 C 150.910156 182.519531 148.5625 178.421875 145.59375 178.109375 Z M 137.382812 167.269531 C 137.105469 170.339844 137.820312 171.34375 138.4375 174.859375 C 148.523438 178.015625 146.765625 161.015625 137.382812 167.269531 Z M 126.195312 163.597656 C 121.851562 161.222656 115.320312 158.636719 109.707031 157.566406 C 102.746094 156.234375 103.398438 167.058594 103.695312 173.515625 C 103.925781 178.628906 106.585938 184.035156 107.738281 187.429688 C 108.28125 189.015625 108.402344 190.699219 109.757812 191.011719 C 112.15625 191.570312 120.0625 188.410156 122.3125 187.183594 C 127.078125 184.585938 130.773438 180.460938 134.820312 177.691406 C 134.871094 176.34375 134.921875 174.996094 134.976562 173.648438 C 132.546875 172.4375 129.734375 171.578125 126.164062 171.421875 C 128.585938 170.203125 132.148438 170.21875 134.355469 168.769531 C 134.378906 168.230469 134.398438 167.691406 134.417969 167.15625 C 130.390625 166.84375 128.851562 165.050781 126.195312 163.597656 Z M 84.679688 156.054688 C 81.070312 159.71875 94.796875 164.710938 99.167969 164.980469 C 99.144531 162.664062 100.488281 160.476562 100.21875 158.816406 C 95.027344 157.902344 88.207031 158.503906 84.679688 156.054688 Z M 129.117188 157.777344 C 129.101562 158.132812 128.636719 158.003906 128.558594 158.296875 C 133.199219 161.921875 136.648438 162.671875 142.964844 162.359375 C 145.8125 160.292969 148.339844 157.875 151.304688 155.9375 C 144.476562 156.546875 135.882812 160.789062 129.117188 157.777344 Z M 169.910156 170.144531 C 169.714844 166.078125 168.644531 157.707031 166.128906 156.242188 C 160.851562 153.164062 151.46875 162.464844 147.492188 163.882812 C 147.925781 165.128906 148.640625 166.113281 148.695312 167.707031 C 151.046875 167.128906 153.90625 167.523438 155.945312 168.523438 C 153.589844 168.789062 150.976562 168.769531 149.417969 169.894531 C 148.847656 171.546875 149.558594 173.796875 149.175781 176.085938 C 154.769531 177.664062 161.15625 178.503906 168.226562 178.710938 C 169.601562 176.925781 170.070312 173.519531 169.910156 170.144531 Z M 78.605469 159.597656 C 77.472656 158.792969 69.808594 148.820312 68.757812 149.234375 C 54.894531 154.703125 41.925781 164.160156 30.339844 173.101562 C 41.386719 196.808594 45.847656 225.851562 46.632812 253.84375 C 59.289062 259.761719 70.40625 268.292969 87.578125 269.183594 C 85.589844 255.125 83.777344 242.582031 82.648438 229.34375 C 78.335938 227.523438 72.144531 229.425781 68.105469 228.78125 C 68.070312 223.914062 74.273438 226.648438 74.789062 223.375 C 75.179688 220.902344 71.378906 220.714844 72.613281 216.816406 C 75.773438 217.964844 77.429688 220.5 80.796875 221.449219 C 83.871094 214.71875 80.753906 202.8125 81.195312 197.1875 C 81.28125 196.132812 81.722656 191.335938 84.089844 192.179688 C 86.183594 192.921875 83.96875 204.929688 84.199219 210.253906 C 84.410156 215.160156 83.605469 219.90625 85.59375 222.984375 C 102.1875 220.726562 119.050781 219.265625 137.003906 218.773438 C 133.054688 217.078125 128.363281 215.472656 123.21875 212.574219 C 120.429688 211 111.636719 207.730469 110.832031 205.082031 C 109.546875 200.859375 114.203125 198.613281 114.996094 194.992188 C 106.621094 199.5625 104.988281 190.613281 103.003906 184.273438 C 101.210938 178.535156 100.1875 174.246094 99.746094 170.933594 C 92.53125 167.492188 84.816406 164.011719 78.605469 159.597656 Z M 162.578125 150.441406 C 174.132812 144.835938 176.214844 171.378906 171.6875 179.929688 C 172.386719 182.480469 174.796875 183.453125 175.777344 185.746094 C 169.328125 197.296875 162.167969 208.078125 155.589844 219.492188 C 160.484375 216.445312 167.472656 218.949219 173.234375 216.667969 C 175.335938 215.835938 176.859375 211.015625 178.453125 207.160156 C 182.839844 196.554688 187.441406 183.183594 189.488281 173.0625 C 189.953125 170.757812 191.210938 165.730469 190.929688 163.679688 C 190.425781 160.003906 185.4375 157.277344 182.902344 155.007812 C 178.230469 150.808594 175.289062 147.113281 170.414062 143.191406 C 168.4375 146.109375 164.195312 148.066406 162.578125 150.441406 Z M 52.183594 47.980469 C 46.675781 54.039062 47.828125 65.386719 48.496094 73.460938 C 58.445312 67.203125 71.65625 73.957031 71.53125 84.605469 C 76.28125 84.480469 73.304688 78.671875 72.445312 74.929688 C 69.636719 62.710938 77.179688 49.433594 72.789062 38.257812 C 64.265625 38.90625 57.261719 42.386719 52.183594 47.980469 Z M 91.574219 12.824219 C 79.113281 16.355469 63.136719 25.410156 58.015625 36.609375 C 61.980469 36.03125 64.734375 34.03125 68.648438 33.785156 C 70.125 33.6875 72.0625 34.402344 73.761719 33.980469 C 77.148438 33.140625 80.007812 25.546875 82.5625 22.722656 C 85.050781 19.964844 88.042969 18.785156 90.09375 16.269531 C 91.410156 15.636719 93.355469 15.679688 93.429688 13.703125 C 92.859375 13.09375 92.257812 12.628906 91.574219 12.824219 Z M 156.453125 16.144531 C 143.515625 8.847656 121.621094 3.355469 107.859375 10.214844 C 96.757812 15.753906 81.746094 24.914062 76.632812 36.519531 C 81.410156 47.722656 75.214844 57.984375 74.820312 69.359375 C 74.609375 75.410156 77.667969 80.691406 77.902344 87.277344 C 76.265625 89.976562 71.269531 90.308594 67.808594 90.125 C 66.644531 84.296875 64.605469 77.746094 58.605469 77.089844 C 50.113281 76.160156 43.90625 83.1875 43.519531 90.53125 C 43.0625 99.167969 50.152344 113.484375 60.203125 112.488281 C 64.085938 112.105469 65.039062 108.214844 69.269531 108.253906 C 71.558594 112.828125 65.730469 114.265625 65.132812 117.535156 C 64.976562 118.378906 65.617188 121.683594 65.988281 123.230469 C 67.8125 130.773438 71.882812 140.53125 75.886719 146.273438 C 80.96875 153.554688 90.957031 154.652344 101.699219 155.367188 C 103.617188 151.234375 110.6875 151.574219 115.292969 152.65625 C 109.773438 150.46875 104.640625 145.167969 100.386719 140.476562 C 95.503906 135.09375 90.554688 129.320312 90.304688 122.285156 C 99.535156 135.09375 107.164062 146.277344 123.949219 151.914062 C 136.652344 156.171875 151.488281 149.960938 161.246094 143.105469 C 165.296875 140.257812 167.714844 135.738281 170.59375 131.601562 C 181.363281 116.105469 186.390625 93.992188 185.285156 72.554688 C 184.832031 63.714844 184.851562 54.90625 181.886719 48.957031 C 178.785156 42.738281 168.300781 37.175781 162.164062 42.800781 C 161.023438 36.753906 167.265625 33.015625 174.597656 35.191406 C 169.371094 28.445312 163.882812 20.335938 156.453125 16.144531 Z M 180.554688 215.605469 C 190.664062 210.578125 209.550781 202.078125 215.890625 215.621094 C 218.226562 220.617188 220.972656 229.054688 222.183594 234.210938 C 223.894531 241.480469 220.328125 256.761719 212.855469 259.203125 C 206.253906 261.355469 198.550781 261.226562 190.597656 259.628906 C 189.664062 258.851562 188.621094 257.492188 187.890625 256.078125 C 182.214844 255.855469 176.898438 256.382812 172.414062 258.714844 C 172.835938 262.914062 169.996094 263.589844 167.335938 264.453125 C 165.359375 272.28125 171.285156 282.5 169.867188 289.636719 C 168.855469 294.71875 162.601562 295.507812 158.003906 296.457031 C 157.851562 299.28125 158.203125 301.640625 158.515625 304.03125 C 157.464844 307.90625 152.75 310.109375 148.285156 310.648438 C 133.585938 312.417969 111.265625 313.210938 97.128906 308.128906 C 93.183594 298.449219 90.074219 286.679688 86.789062 275.628906 C 73 277.101562 61.847656 269.679688 51.335938 264.816406 C 47.695312 263.128906 42.660156 262.199219 41.300781 259.304688 C 39.980469 256.496094 40.519531 251.121094 40.191406 246.042969 C 39.359375 233.070312 38.648438 220.558594 35.222656 207.277344 C 33.683594 201.320312 31.003906 196.058594 29.132812 190.316406 C 27.40625 184.996094 24.382812 178.417969 23.597656 173.109375 C 22.429688 165.242188 29.835938 164.804688 34.574219 161.398438 C 41.894531 156.125 47.640625 153.210938 55.570312 148.453125 C 57.917969 147.046875 65.003906 143.480469 65.808594 141.835938 C 67.410156 138.578125 63.058594 133.988281 61.894531 131.4375 C 60.054688 127.398438 59.097656 123.972656 58.832031 119.988281 C 52.179688 118.9375 47.136719 114.980469 44.09375 110.515625 C 39.054688 103.128906 35.558594 89.460938 39.917969 79.0625 C 40.261719 78.246094 41.964844 76.636719 42.21875 75.378906 C 42.714844 72.902344 41.285156 69.609375 41.195312 66.976562 C 40.738281 53.460938 43.480469 41.820312 52.578125 37.746094 C 56.269531 23.035156 69.488281 18.140625 81.941406 10.832031 C 86.597656 8.097656 91.726562 6.351562 97.027344 4.402344 C 116.035156 -2.59375 145.203125 -1.277344 160.980469 10.65625 C 167.671875 15.714844 178.363281 26.398438 182.191406 34.136719 C 192.292969 54.554688 191.574219 88.683594 184.507812 113.527344 C 183.558594 116.859375 182.179688 121.765625 180.257812 125.769531 C 178.917969 128.566406 174.746094 134.164062 175.253906 136.636719 C 175.773438 139.1875 184.757812 146.011719 186.683594 147.867188 C 190.152344 151.214844 196.742188 155.65625 197.277344 159.878906 C 197.851562 164.371094 195.296875 170.519531 194.003906 174.855469 C 189.679688 189.324219 185.457031 202.703125 180.554688 215.605469" stroke-linecap="round"/>
</g>
		<g transform="matrix(1 0 0 1 3.8622 -348.3703)" id="surface1">
<path style="stroke: none; stroke-width: 1; stroke-dasharray: none; stroke-linecap: butt; stroke-dashoffset: 0; stroke-linejoin: miter; stroke-miterlimit: 4; is-custom-font: none; font-file-url: none; fill: rgb(244,226,204); fill-rule: evenodd; opacity: 1;" transform=" translate(-116.8622, -119.6297)" d="M 113.113281 115.429688 C 113.664062 114.703125 116.675781 113.59375 120.894531 115.625 C 120.894531 115.625 115.894531 116.457031 116.3125 124.792969 L 114.226562 124.375 C 114.226562 124.375 112.074219 116.816406 113.113281 115.429688" stroke-linecap="round"/>
</g>
		<g transform="matrix(1 0 0 1 34.3535 -280.9179)" id="surface1">
<path style="stroke: none; stroke-width: 1; stroke-dasharray: none; stroke-linecap: butt; stroke-dashoffset: 0; stroke-linejoin: miter; stroke-miterlimit: 4; is-custom-font: none; font-file-url: none; fill: rgb(28,22,22); fill-rule: evenodd; opacity: 1;" transform=" translate(-147.3535, -187.082)" d="M 149.644531 187.082031 C 149.644531 188.347656 148.621094 189.375 147.355469 189.375 C 146.089844 189.375 145.0625 188.347656 145.0625 187.082031 C 145.0625 185.816406 146.089844 184.789062 147.355469 184.789062 C 148.621094 184.789062 149.644531 185.816406 149.644531 187.082031" stroke-linecap="round"/>
</g>
		<g transform="matrix(1 0 0 1 36.6465 -270.2929)" id="surface1">
<path style="stroke: none; stroke-width: 1; stroke-dasharray: none; stroke-linecap: butt; stroke-dashoffset: 0; stroke-linejoin: miter; stroke-miterlimit: 4; is-custom-font: none; font-file-url: none; fill: rgb(28,22,22); fill-rule: evenodd; opacity: 1;" transform=" translate(-149.6465, -197.707)" d="M 151.9375 197.707031 C 151.9375 198.972656 150.910156 200 149.644531 200 C 148.378906 200 147.355469 198.972656 147.355469 197.707031 C 147.355469 196.441406 148.378906 195.414062 149.644531 195.414062 C 150.910156 195.414062 151.9375 196.441406 151.9375 197.707031" stroke-linecap="round"/>
</g>
		<g transform="matrix(1 0 0 1 -0.441 356.1528)" id="surface1">
<path style="stroke: none; stroke-width: 1; stroke-dasharray: none; stroke-linecap: butt; stroke-dashoffset: 0; stroke-linejoin: miter; stroke-miterlimit: 4; is-custom-font: none; font-file-url: none; fill: rgb(0,0,0); fill-rule: nonzero; opacity: 1;" transform=" translate(-112.559, -113.1527)" d="M 121.328125 57.695312 C 120.59375 57.808594 119.882812 60.507812 118.460938 61.914062 C 117.421875 62.929688 116.121094 62.867188 115.429688 64.121094 C 115.167969 64.589844 115.253906 65.390625 114.957031 66.160156 C 114.375 67.695312 112.328125 67.832031 112.328125 69.507812 C 112.320312 71.316406 114.035156 71.660156 115.519531 72.945312 C 116.675781 73.976562 116.789062 74.6875 118.191406 75.191406 C 119.390625 75.59375 121.167969 74.269531 122.773438 74.746094 C 124.089844 75.136719 125.351562 75.417969 125.648438 76.765625 C 125.910156 78.007812 125.628906 79.929688 124.035156 79.707031 C 123.496094 79.648438 121.164062 78.867188 118.296875 79.167969 C 114.835938 79.558594 110.886719 80.683594 110.503906 84.523438 C 110.289062 86.671875 112.957031 89.199219 115.53125 88.6875 C 117.308594 88.335938 116.46875 86.246094 117.4375 85.230469 C 118.707031 83.929688 125.910156 89.773438 132.605469 89.773438 C 135.421875 89.773438 137.519531 89.0625 139.601562 86.890625 C 139.796875 86.726562 140.035156 86.371094 140.335938 86.347656 C 140.617188 86.371094 141.113281 86.648438 141.277344 86.769531 C 146.667969 91.082031 150.742188 99.738281 170.558594 99.839844 C 173.347656 99.851562 176.523438 101.179688 179.113281 103.53125 C 181.425781 105.660156 182.777344 108.972656 184.089844 112.332031 C 186.074219 117.371094 189.628906 122.273438 195.015625 127.730469 C 195.3125 128.023438 199.746094 131.457031 200.101562 131.714844 C 200.15625 131.75 200.484375 132.523438 200.371094 132.957031 C 200.238281 136.230469 199.761719 145.742188 206.886719 146.171875 C 208.628906 146.261719 208.171875 145.042969 208.171875 144.203125 C 208.167969 142.546875 207.863281 140.898438 208.742188 139.203125 C 209.941406 136.871094 206.195312 135.796875 206.304688 130.75 C 206.382812 126.992188 203.210938 127.632812 201.597656 124.765625 C 200.671875 123.105469 199.847656 122.226562 199.90625 120.195312 C 200.269531 108.765625 197.464844 101.257812 196.066406 99.414062 C 194.976562 98.023438 194.070312 97.46875 195.070312 96.824219 C 201.015625 92.917969 202.363281 89.277344 202.363281 89.277344 C 205.523438 81.878906 208.367188 75.121094 212.289062 72.148438 C 213.078125 71.535156 215.101562 70.03125 216.34375 69.4375 C 220.003906 67.71875 221.929688 66.679688 222.992188 65.652344 C 224.671875 64.019531 226 60.617188 224.390625 58.554688 C 222.386719 56.011719 218.917969 58.03125 217.390625 58.933594 C 206.460938 65.390625 204.847656 76.78125 201.0625 83.324219 C 198.042969 88.550781 193.132812 92.390625 188.742188 92.703125 C 185.449219 92.949219 181.902344 92.285156 178.371094 90.742188 C 169.777344 86.992188 165.074219 82.148438 163.96875 81.292969 C 161.660156 79.519531 143.738281 62.003906 129.21875 61.289062 C 129.21875 61.289062 127.414062 57.695312 126.960938 57.636719 C 125.898438 57.5 124.8125 59.78125 124.035156 60.046875 C 123.300781 60.289062 122.070312 57.574219 121.328125 57.695312 M 57.410156 162.230469 C 56.042969 162.199219 54.882812 161.082031 54.882812 159.699219 L 54.886719 114.609375 L 39.957031 114.609375 L 39.957031 164.316406 C 39.957031 166.75 41.941406 168.738281 44.371094 168.738281 L 70.460938 168.738281 C 72.914062 168.738281 74.871094 166.75 74.871094 164.316406 L 74.871094 114.609375 L 59.957031 114.609375 L 59.945312 159.699219 C 59.945312 161.082031 58.78125 162.199219 57.410156 162.230469 M 107.386719 114.609375 L 84.792969 114.609375 C 82.121094 114.609375 79.945312 116.777344 79.945312 119.464844 L 79.945312 168.738281 L 94.886719 168.738281 L 94.886719 123.539062 C 94.894531 122.15625 96.019531 121.058594 97.410156 121.058594 C 98.804688 121.058594 99.921875 122.128906 99.953125 123.5 L 99.953125 168.738281 L 114.835938 168.738281 L 114.835938 123.5 C 114.851562 122.128906 115.972656 121.058594 117.363281 121.058594 C 118.746094 121.058594 119.882812 122.15625 119.894531 123.539062 L 119.894531 168.738281 L 134.835938 168.738281 L 134.835938 119.464844 C 134.835938 116.777344 132.65625 114.609375 129.980469 114.609375 Z M 19.984375 123.632812 C 19.992188 122.128906 18.761719 121.058594 17.453125 121.058594 L 14.917969 121.058594 L 14.917969 148.433594 L 17.453125 148.433594 C 18.773438 148.433594 19.992188 147.390625 19.984375 145.894531 Z M 30 155.136719 L 14.917969 155.136719 L 14.917969 168.738281 L 0 168.738281 L 0 114.609375 L 30.09375 114.609375 C 32.789062 114.609375 34.890625 116.789062 34.890625 119.484375 L 34.890625 150.261719 C 34.890625 152.960938 32.707031 155.136719 30 155.136719 M 186.035156 156.632812 C 183.035156 156.632812 180.519531 159.214844 180.519531 162.339844 C 180.519531 165.476562 183.035156 168.035156 186.128906 168.035156 C 189.199219 168.035156 191.6875 165.476562 191.6875 162.339844 C 191.6875 159.207031 189.199219 156.632812 186.128906 156.632812 Z M 192.753906 162.324219 C 192.753906 166 189.796875 168.988281 186.128906 168.988281 C 182.425781 168.988281 179.453125 166.019531 179.453125 162.324219 C 179.453125 158.695312 182.425781 155.664062 186.019531 155.664062 C 189.796875 155.664062 192.753906 158.605469 192.753906 162.324219" stroke-linecap="round"/>
</g>
		<g transform="matrix(1 0 0 1 51.582 384.6739)" id="surface1">
<path style="stroke: none; stroke-width: 1; stroke-dasharray: none; stroke-linecap: butt; stroke-dashoffset: 0; stroke-linejoin: miter; stroke-miterlimit: 4; is-custom-font: none; font-file-url: none; fill: rgb(0,0,0); fill-rule: nonzero; opacity: 1;" transform=" translate(-164.582, -141.6738)" d="M 185.441406 161.898438 C 186.476562 161.898438 187.023438 161.535156 187.023438 160.800781 C 187.023438 160.148438 186.496094 159.8125 185.484375 159.8125 L 185.1875 159.8125 L 185.1875 161.898438 Z M 189.261719 166.179688 L 187.480469 166.179688 L 185.1875 163.144531 L 185.1875 166.179688 L 183.734375 166.179688 L 183.734375 158.507812 L 185.261719 158.507812 C 187.339844 158.507812 188.445312 159.289062 188.445312 160.78125 C 188.445312 161.78125 187.792969 162.664062 186.882812 162.929688 L 186.777344 162.96875 Z M 159.886719 148.445312 L 159.886719 123.523438 C 159.847656 122.144531 158.734375 121.085938 157.34375 121.085938 C 155.964844 121.085938 154.824219 122.1875 154.816406 123.5625 L 154.816406 148.445312 Z M 159.886719 168.738281 L 159.886719 155.148438 L 154.816406 155.148438 L 154.816406 168.738281 L 139.902344 168.738281 L 139.902344 119.464844 C 139.902344 116.777344 142.078125 114.609375 144.753906 114.609375 L 169.945312 114.609375 C 172.628906 114.609375 174.804688 116.777344 174.804688 119.464844 L 174.804688 168.738281 Z M 159.886719 168.738281" stroke-linecap="round"/>
</g>
</g>
</g>
</svg>